fira-sans_light.sfdir

StartChar: quotedbl
Encoding: 34 34 991
Width: 362
Flags: MW
HStem: 434 251<80 124 80 80 238 238 238 282> 665 20G<71 133 133 133 229 291 291 291>
VStem: 75.5 53 233.5 53
LayerCount: 2
Fore
SplineSet
71 685 m 1x70
 133 685 l 1
 124 434 l 1
 80 434 l 1xb0
 71 685 l 1x70
229 685 m 1
 291 685 l 1
 282 434 l 1
 238 434 l 1
 229 685 l 1
EndSplineSet
EndChar

StartChar: numbersign
Encoding: 35 35 987
Width: 503
Flags: MW
HStem: 0 21G<63 117 63 63 296 350 296 296> 180 47<15 87 15 93 147 320 380 451> 452 47<52 123 52 129 183 356 416 488>
VStem: 15 473<180 499 227 499>
LayerCount: 2
Fore
SplineSet
410 452 m 1
 380 227 l 1
 451 227 l 1
 451 180 l 1
 374 180 l 1
 350 0 l 1
 296 0 l 1
 320 180 l 1
 141 180 l 1
 117 0 l 1
 63 0 l 1
 87 180 l 1
 15 180 l 1
 15 227 l 1
 93 227 l 1
 123 452 l 1
 52 452 l 1
 52 499 l 1
 129 499 l 1
 151 665 l 1
 205 665 l 1
 183 499 l 1
 362 499 l 1
 384 665 l 1
 438 665 l 1
 416 499 l 1
 488 499 l 1
 488 452 l 1
 410 452 l 1
356 452 m 1
 177 452 l 1
 147 227 l 1
 326 227 l 1
 356 452 l 1
EndSplineSet
Substitution2: "'onum' Oldstyle Figures lookup 22 subtable" numbersign.osf
Substitution2: "'tnum' Tabular Numbers lookup 21 subtable" numbersign.tf
AlternateSubs2: "'aalt' Access All Alternates lookup 1 subtable" numbersign.tf numbersign.osf
EndChar

StartChar: dollar
Encoding: 36 36 1062
Width: 526
Flags: MW
HStem: -11 50<238 238> 625 49<238 238>
VStem: 65 60<479 548 479 555.5> 238 51<-151 -11 -11 -11 674 819> 412 60<135 220>
LayerCount: 2
Fore
SplineSet
472 182 m 0
 472 79 401 5 289 -9 c 1
 289 -151 l 1
 238 -151 l 1
 238 -11 l 1
 154 -8 90 23 39 72 c 1
 74 109 l 1
 119 67 173 39 250 39 c 0
 344 39 412 90 412 180 c 0
 412 260 373 292 254 329 c 0
 122 371 65 417 65 511 c 0
 65 600 134 666 238 674 c 1
 238 819 l 1
 289 819 l 1
 289 674 l 1
 360 668 406 642 451 601 c 1
 416 564 l 1
 369 608 323 625 261 625 c 0
 181 625 125 583 125 513 c 0
 125 445 160 415 279 379 c 1
 399 341 472 299 472 182 c 0
EndSplineSet
Substitution2: "'onum' Oldstyle Figures lookup 22 subtable" dollar.osf
Substitution2: "'tnum' Tabular Numbers lookup 21 subtable" dollar.tf
AlternateSubs2: "'aalt' Access All Alternates lookup 1 subtable" dollar.tf dollar.osf
EndChar

StartChar: quotesingle
Encoding: 39 39 992
Width: 204
Flags: MW
HStem: 665 20G<71 133 133 133>
VStem: 75.5 53
LayerCount: 2
Fore
SplineSet
71 685 m 1
 133 685 l 1
 124 434 l 1
 80 434 l 1
 71 685 l 1
EndSplineSet
EndChar
StartChar: parenleft
Encoding: 40 40 2154
Width: 324
Flags: MW
HStem: -137 974<233 233>
VStem: 54 60<241.5 459 241.5 466.5>
LayerCount: 2
Back
Fore
SplineSet
233 837 m 1
 270 813 l 1
 181 681 114 568 114 350 c 0
 114 133 181 19 270 -113 c 1
 233 -137 l 1
 136 -1 54 117 54 350 c 0
 54 583 136 701 233 837 c 1
EndSplineSet
Substitution2: "'case' Case-Sensitive Forms lookup 28 subtable" parenleft.case
Substitution2: "'dnom' Denominators lookup 16 subtable" parenleft.dnom
Substitution2: "'numr' Numerators lookup 15 subtable" parenleft.numr
Substitution2: "'sups' Superscript lookup 14 subtable" uni207D
Substitution2: "'subs' Subscript lookup 13 subtable" uni208D
AlternateSubs2: "'aalt' Access All Alternates lookup 1 subtable" uni208D uni207D parenleft.numr parenleft.dnom parenleft.case
EndChar
StartChar: parenright
Encoding: 41 41 2155
Width: 324
Flags: MW
HStem: -137 974<91 91>
VStem: 210 60<241.5 459>
LayerCount: 2
Back
Fore
SplineSet
91 837 m 1
 188 701 270 583 270 350 c 0
 270 117 188 -1 91 -137 c 1
 54 -113 l 1
 143 19 210 133 210 350 c 0
 210 568 143 681 54 813 c 1
 91 837 l 1
EndSplineSet
Substitution2: "'case' Case-Sensitive Forms lookup 28 subtable" parenright.case
Substitution2: "'dnom' Denominators lookup 16 subtable" parenright.dnom
Substitution2: "'numr' Numerators lookup 15 subtable" parenright.numr
Substitution2: "'sups' Superscript lookup 14 subtable" uni207E
Substitution2: "'subs' Subscript lookup 13 subtable" uni208E
AlternateSubs2: "'aalt' Access All Alternates lookup 1 subtable" uni208E uni207E parenright.numr parenright.dnom parenright.case
EndChar

StartChar: plus
Encoding: 43 43 1113
Width: 493
Flags: MW
HStem: 306 50<69 219 69 219 274 424>
VStem: 219 55<154 306 154 306 356 508>
LayerCount: 2
Fore
SplineSet
274 356 m 1
 424 356 l 1
 424 306 l 1
 274 306 l 1
 274 154 l 1
 219 154 l 1
 219 306 l 1
 69 306 l 1
 69 356 l 1
 219 356 l 1
 219 508 l 1
 274 508 l 1
 274 356 l 1
EndSplineSet
Substitution2: "'onum' Oldstyle Figures lookup 22 subtable" plus.osf
Substitution2: "'tnum' Tabular Numbers lookup 21 subtable" plus.tf
Substitution2: "'dnom' Denominators lookup 14 subtable" plus.dnom
Substitution2: "'numr' Numerators lookup 13 subtable" plus.numr
Substitution2: "'sups' Superscript lookup 12 subtable" plussuperior
Substitution2: "'subs' Subscript lookup 11 subtable" uni208A
AlternateSubs2: "'aalt' Access All Alternates lookup 1 subtable" uni208A plussuperior plus.numr plus.dnom plus.tf plus.osf
EndChar
StartChar: hyphen
Encoding: 45 45 2166
Width: 401
Flags: MW
HStem: 288 50<68 333 68 333>
VStem: 68 265<288 338 288 338>
LayerCount: 2
Back
Fore
SplineSet
68 288 m 1
 68 338 l 1
 333 338 l 1
 333 288 l 1
 68 288 l 1
EndSplineSet
Substitution2: "'case' Case-Sensitive Forms lookup 28 subtable" hyphen.case
Substitution2: "'aalt' Access All Alternates lookup 0 subtable" hyphen.case
EndChar
StartChar: slash
Encoding: 47 47 2132
Width: 520
Flags: MW
HStem: -100 903<169 351>
VStem: 119 282
LayerCount: 2
Back
Fore
SplineSet
351 803 m 1
 401 791 l 1
 169 -100 l 1
 119 -87 l 1
 351 803 l 1
EndSplineSet
Substitution2: "'frac' Diagonal Fractions lookup 17 subtable" fraction
Substitution2: "'aalt' Access All Alternates lookup 0 subtable" fraction
EndChar
StartChar: zero
Encoding: 48 48 2011
Width: 550
Flags: MW
HStem: -11 48<227 323 227 343> 628 48<227.5 323>
VStem: 66 60<230.5 435.5 230.5 445.5> 423 61<229.5 434.5>
LayerCount: 2
Back
Fore
SplineSet
275 676 m 0
 412 676 484 558 484 332 c 0
 484 107 411 -11 275 -11 c 0
 138 -11 66 108 66 333 c 0
 66 558 138 676 275 676 c 0
275 628 m 0
 180 628 126 538 126 333 c 0
 126 128 179 37 275 37 c 0
 371 37 423 127 423 332 c 0
 423 537 371 628 275 628 c 0
EndSplineSet
Substitution2: "'zero' Slashed Zero lookup 31 subtable" zero.zero
Substitution2: "'onum' Oldstyle Figures lookup 25 subtable" zero.osf
Substitution2: "'tnum' Tabular Numbers lookup 24 subtable" zero.tf
Substitution2: "'frac' Diagonal Fractions lookup 18 subtable" zero.numr
Substitution2: "'dnom' Denominators lookup 16 subtable" zero.dnom
Substitution2: "'numr' Numerators lookup 15 subtable" zero.numr
Substitution2: "'sups' Superscript lookup 14 subtable" uni2070
Substitution2: "'subs' Subscript lookup 13 subtable" uni2080
AlternateSubs2: "'aalt' Access All Alternates lookup 1 subtable" uni2080 uni2070 zero.numr zero.dnom zero.tf zero.osf zero.zero
EndChar
StartChar: one
Encoding: 49 49 2012
Width: 413
Flags: MW
HStem: 0 21G<234 292 234 234>
VStem: 234 58<0 601 601 601>
LayerCount: 2
Back
Fore
SplineSet
292 665 m 1
 292 0 l 1
 234 0 l 1
 234 601 l 1
 70 499 l 1
 43 542 l 1
 242 665 l 1
 292 665 l 1
EndSplineSet
Substitution2: "'onum' Oldstyle Figures lookup 25 subtable" one.osf
Substitution2: "'tnum' Tabular Numbers lookup 24 subtable" one.tf
Substitution2: "'frac' Diagonal Fractions lookup 18 subtable" one.numr
Substitution2: "'dnom' Denominators lookup 16 subtable" one.dnom
Substitution2: "'numr' Numerators lookup 15 subtable" one.numr
Substitution2: "'sups' Superscript lookup 14 subtable" uni00B9
Substitution2: "'subs' Subscript lookup 13 subtable" uni2081
AlternateSubs2: "'aalt' Access All Alternates lookup 1 subtable" uni2081 uni00B9 one.numr one.dnom one.tf one.osf
EndChar
StartChar: two
Encoding: 50 50 2013
Width: 479
Flags: MW
HStem: 0 51<111 418> 627 49<190 260>
VStem: 348 60<439.5 537.5>
LayerCount: 2
Back
Fore
SplineSet
225 676 m 0
 339 676 408 601 408 501 c 0
 408 369 334 286 111 51 c 1
 426 51 l 1
 418 0 l 1
 43 0 l 1
 43 49 l 1
 290 312 348 381 348 498 c 0
 348 577 298 627 222 627 c 0
 158 627 114 600 74 551 c 1
 33 581 l 1
 86 645 145 676 225 676 c 0
EndSplineSet
Substitution2: "'onum' Oldstyle Figures lookup 25 subtable" two.osf
Substitution2: "'tnum' Tabular Numbers lookup 24 subtable" two.tf
Substitution2: "'frac' Diagonal Fractions lookup 18 subtable" two.numr
Substitution2: "'dnom' Denominators lookup 16 subtable" two.dnom
Substitution2: "'numr' Numerators lookup 15 subtable" two.numr
Substitution2: "'sups' Superscript lookup 14 subtable" uni00B2
Substitution2: "'subs' Subscript lookup 13 subtable" uni2082
AlternateSubs2: "'aalt' Access All Alternates lookup 1 subtable" uni2082 uni00B2 two.numr two.dnom two.tf two.osf
EndChar
StartChar: three
Encoding: 51 51 2014
Width: 486
Flags: MW
HStem: -11 49<180 258 180 275.5> 327 47<177 209 209 213 169 209> 627 49<190 256.5>
VStem: 346 58<465 544> 363 60<143 237.5>
LayerCount: 2
Back
Fore
SplineSet
221 676 m 0xf0
 337 676 404 603 404 510 c 0xf0
 404 420 347 367 272 354 c 1
 356 350 423 293 423 188 c 0
 423 72 340 -11 211 -11 c 0
 133 -11 70 18 20 75 c 1
 57 108 l 1
 104 57 151 38 209 38 c 0
 307 38 363 99 363 187 c 0xe8
 363 288 303 327 213 327 c 2
 169 327 l 1
 177 374 l 1
 209 374 l 2
 279 374 346 416 346 507 c 0
 346 581 295 627 218 627 c 0
 162 627 118 609 70 565 c 1
 39 601 l 1
 91 651 148 676 221 676 c 0xf0
EndSplineSet
Substitution2: "'onum' Oldstyle Figures lookup 25 subtable" three.osf
Substitution2: "'tnum' Tabular Numbers lookup 24 subtable" three.tf
Substitution2: "'frac' Diagonal Fractions lookup 18 subtable" three.numr
Substitution2: "'dnom' Denominators lookup 16 subtable" three.dnom
Substitution2: "'numr' Numerators lookup 15 subtable" three.numr
Substitution2: "'sups' Superscript lookup 14 subtable" uni00B3
Substitution2: "'subs' Subscript lookup 13 subtable" uni2083
AlternateSubs2: "'aalt' Access All Alternates lookup 1 subtable" uni2083 uni00B3 three.numr three.dnom three.tf three.osf
EndChar

StartChar: four
Encoding: 52 52 881
Width: 518
Flags: MW
HStem: 0 21G<336 393 336 336> 175 48<107 336 107 336 393 483>
VStem: 336 57<0 175 0 175 0 223>
LayerCount: 2
Fore
SplineSet
483 175 m 1
 393 175 l 1
 393 0 l 1
 336 0 l 1
 336 175 l 1
 45 175 l 1
 45 218 l 1
 248 676 l 1
 297 656 l 1
 107 223 l 1
 336 223 l 1
 343 418 l 1
 393 418 l 1
 393 223 l 1
 483 223 l 1
 483 175 l 1
EndSplineSet
Substitution2: "'onum' Oldstyle Figures lookup 22 subtable" four.osf
Substitution2: "'tnum' Tabular Numbers lookup 21 subtable" four.tf
Substitution2: "'frac' Diagonal Fractions lookup 16 subtable" four.numr
Substitution2: "'dnom' Denominators lookup 14 subtable" four.dnom
Substitution2: "'numr' Numerators lookup 13 subtable" four.numr
Substitution2: "'sups' Superscript lookup 12 subtable" foursuperior
Substitution2: "'subs' Subscript lookup 11 subtable" fourinferior
AlternateSubs2: "'aalt' Access All Alternates lookup 1 subtable" fourinferior foursuperior four.numr four.dnom four.tf four.osf
EndChar

StartChar: five
Encoding: 53 53 882
Width: 487
Flags: MW
HStem: -11 49<189.5 269 189.5 287.5> 374 47<226 276.5> 617 48<135 405 135 135>
VStem: 79 56<390 617 390 665 390 665> 375 61<160.5 270.5>
LayerCount: 2
Fore
SplineSet
405 617 m 1
 135 617 l 1
 135 390 l 1
 167 408 203 421 249 421 c 0
 363 421 436 343 436 214 c 0
 436 83 353 -11 222 -11 c 0
 141 -11 82 19 34 69 c 1
 71 104 l 1
 112 60 157 38 222 38 c 0
 316 38 375 106 375 215 c 0
 375 326 317 374 236 374 c 0
 191 374 162 363 125 342 c 1
 79 342 l 1
 79 665 l 1
 414 665 l 1
 405 617 l 1
EndSplineSet
Substitution2: "'onum' Oldstyle Figures lookup 22 subtable" five.osf
Substitution2: "'tnum' Tabular Numbers lookup 21 subtable" five.tf
Substitution2: "'frac' Diagonal Fractions lookup 16 subtable" five.numr
Substitution2: "'dnom' Denominators lookup 14 subtable" five.dnom
Substitution2: "'numr' Numerators lookup 13 subtable" five.numr
Substitution2: "'sups' Superscript lookup 12 subtable" fivesuperior
Substitution2: "'subs' Subscript lookup 11 subtable" fiveinferior
AlternateSubs2: "'aalt' Access All Alternates lookup 1 subtable" fiveinferior fivesuperior five.numr five.dnom five.tf five.osf
EndChar
StartChar: six
Encoding: 54 54 2017
Width: 524
Flags: MW
HStem: -11 48<224 322 224 333> 385 48<259.5 324> 628 48<249 324>
VStem: 66 59 414 59<168 280>
LayerCount: 2
Back
Fore
SplineSet
296 433 m 0
 392 433 473 366 473 224 c 0
 473 78 389 -11 277 -11 c 0
 122 -11 66 125 66 300 c 0
 66 532 157 676 306 676 c 0
 357 676 395 661 430 637 c 1
 405 597 l 1
 374 617 343 628 305 628 c 0
 193 628 129 506 125 334 c 1
 167 396 223 433 296 433 c 0
277 37 m 0
 367 37 414 114 414 222 c 0
 414 338 360 385 288 385 c 0
 219 385 163 341 125 275 c 1
 129 127 171 37 277 37 c 0
EndSplineSet
Substitution2: "'onum' Oldstyle Figures lookup 25 subtable" six.osf
Substitution2: "'tnum' Tabular Numbers lookup 24 subtable" six.tf
Substitution2: "'frac' Diagonal Fractions lookup 18 subtable" six.numr
Substitution2: "'dnom' Denominators lookup 16 subtable" six.dnom
Substitution2: "'numr' Numerators lookup 15 subtable" six.numr
Substitution2: "'sups' Superscript lookup 14 subtable" uni2076
Substitution2: "'subs' Subscript lookup 13 subtable" uni2086
AlternateSubs2: "'aalt' Access All Alternates lookup 1 subtable" uni2086 uni2076 six.numr six.dnom six.tf six.osf
EndChar
StartChar: seven
Encoding: 55 55 2018
Width: 437
Flags: MW
HStem: -8 21G<139 139> 616 49<30 341 30 401>
VStem: 30 371<620 665 620 665 620 665>
LayerCount: 2
Back
Fore
SplineSet
401 665 m 1
 401 620 l 1
 139 -8 l 1
 85 10 l 1
 341 616 l 1
 30 616 l 1
 30 665 l 1
 401 665 l 1
EndSplineSet
Substitution2: "'onum' Oldstyle Figures lookup 25 subtable" seven.osf
Substitution2: "'tnum' Tabular Numbers lookup 24 subtable" seven.tf
Substitution2: "'frac' Diagonal Fractions lookup 18 subtable" seven.numr
Substitution2: "'dnom' Denominators lookup 16 subtable" seven.dnom
Substitution2: "'numr' Numerators lookup 15 subtable" seven.numr
Substitution2: "'sups' Superscript lookup 14 subtable" uni2077
Substitution2: "'subs' Subscript lookup 13 subtable" uni2087
AlternateSubs2: "'aalt' Access All Alternates lookup 1 subtable" uni2087 uni2077 seven.numr seven.dnom seven.tf seven.osf
EndChar
StartChar: eight
Encoding: 56 56 2019
Width: 538
Flags: MW
HStem: -11 49<222 314.5 222 331> 630 46<232 307.5>
VStem: 53 61<128.5 212.5 128.5 216.5> 82 58<476.5 548 476.5 563.5> 399 58<478 547.5> 424 61<130 213.5>
LayerCount: 2
Back
Fore
SplineSet
336 353 m 1xe4
 436 312 485 262 485 173 c 0
 485 62 395 -11 267 -11 c 0
 137 -11 53 64 53 172 c 0xe4
 53 261 105 321 196 356 c 1
 118 392 82 436 82 510 c 0
 82 617 173 676 269 676 c 0
 364 676 457 621 457 511 c 0xd8
 457 440 418 394 336 353 c 1xe4
140 509 m 0xd8
 140 444 174 413 263 380 c 2
 294 369 l 1
 367 407 399 447 399 509 c 0
 399 586 346 630 269 630 c 0
 195 630 140 587 140 509 c 0xd8
268 38 m 0xe4
 361 38 424 87 424 173 c 0
 424 254 381 287 276 326 c 2
 242 339 l 1
 152 304 114 253 114 172 c 0
 114 85 176 38 268 38 c 0xe4
EndSplineSet
Substitution2: "'onum' Oldstyle Figures lookup 25 subtable" eight.osf
Substitution2: "'tnum' Tabular Numbers lookup 24 subtable" eight.tf
Substitution2: "'frac' Diagonal Fractions lookup 18 subtable" eight.numr
Substitution2: "'dnom' Denominators lookup 16 subtable" eight.dnom
Substitution2: "'numr' Numerators lookup 15 subtable" eight.numr
Substitution2: "'sups' Superscript lookup 14 subtable" uni2078
Substitution2: "'subs' Subscript lookup 13 subtable" uni2088
AlternateSubs2: "'aalt' Access All Alternates lookup 1 subtable" uni2088 uni2078 eight.numr eight.dnom eight.tf eight.osf
EndChar

StartChar: nine
Encoding: 57 57 886
Width: 518
Flags: MW
HStem: 248 48<204.5 268.5> 628 48<212.5 307>
VStem: 53 60<404.5 512 404.5 526> 398 59
LayerCount: 2
Fore
SplineSet
255 676 m 0
 393 676 457 573 457 408 c 0
 457 145 343 48 123 -19 c 1
 108 26 l 1
 281 79 388 164 398 341 c 1
 359 284 303 248 234 248 c 0
 131 248 53 328 53 458 c 0
 53 594 141 676 255 676 c 0
244 296 m 0
 310 296 357 334 398 396 c 1
 399 553 357 628 257 628 c 0
 168 628 113 567 113 457 c 0
 113 352 165 296 244 296 c 0
EndSplineSet
Substitution2: "'onum' Oldstyle Figures lookup 22 subtable" nine.osf
Substitution2: "'tnum' Tabular Numbers lookup 21 subtable" nine.tf
Substitution2: "'frac' Diagonal Fractions lookup 16 subtable" nine.numr
Substitution2: "'dnom' Denominators lookup 14 subtable" nine.dnom
Substitution2: "'numr' Numerators lookup 13 subtable" nine.numr
Substitution2: "'sups' Superscript lookup 12 subtable" ninesuperior
Substitution2: "'subs' Subscript lookup 11 subtable" nineinferior
AlternateSubs2: "'aalt' Access All Alternates lookup 1 subtable" nineinferior ninesuperior nine.numr nine.dnom nine.tf nine.osf
EndChar
StartChar: less
Encoding: 60 60 2259
Width: 497
GlyphClass: 2
Flags: MW
HStem: 509 20G<412 412>
VStem: 64 51<333 333 333 360 333 360>
LayerCount: 2
Back
Fore
SplineSet
412 529 m 1
 433 480 l 1
 115 333 l 1
 433 183 l 1
 412 135 l 1
 64 306 l 1
 64 360 l 1
 412 529 l 1
EndSplineSet
Substitution2: "'onum' Oldstyle Figures lookup 25 subtable" less.osf
Substitution2: "'tnum' Tabular Numbers lookup 24 subtable" less.tf
AlternateSubs2: "'aalt' Access All Alternates lookup 1 subtable" less.tf less.osf
EndChar

StartChar: equal
Encoding: 61 61 1093
Width: 493
Flags: MW
HStem: 218 51<69 424 69 424> 393 51<69 424 69 424>
VStem: 69 355<218 269 218 269 393 444 218 444>
LayerCount: 2
Fore
SplineSet
69 444 m 1
 424 444 l 1
 424 393 l 1
 69 393 l 1
 69 444 l 1
69 269 m 1
 424 269 l 1
 424 218 l 1
 69 218 l 1
 69 269 l 1
EndSplineSet
Substitution2: "'onum' Oldstyle Figures lookup 22 subtable" equal.osf
Substitution2: "'tnum' Tabular Numbers lookup 21 subtable" equal.tf
Substitution2: "'dnom' Denominators lookup 14 subtable" equal.dnom
Substitution2: "'numr' Numerators lookup 13 subtable" equal.numr
Substitution2: "'sups' Superscript lookup 12 subtable" equalsuperior
AlternateSubs2: "'aalt' Access All Alternates lookup 1 subtable" equalsuperior equal.numr equal.dnom equal.tf equal.osf
EndChar
StartChar: greater
Encoding: 62 62 2254
Width: 497
GlyphClass: 2
Flags: MW
HStem: 509 20G<85 85>
VStem: 381 52<333 333>
LayerCount: 2
Back
Fore
SplineSet
85 529 m 1
 433 360 l 1
 433 306 l 1
 85 135 l 1
 64 183 l 1
 381 333 l 1
 64 480 l 1
 85 529 l 1
EndSplineSet
Substitution2: "'onum' Oldstyle Figures lookup 25 subtable" greater.osf
Substitution2: "'tnum' Tabular Numbers lookup 24 subtable" greater.tf
AlternateSubs2: "'aalt' Access All Alternates lookup 1 subtable" greater.tf greater.osf
EndChar
StartChar: at
Encoding: 64 64 2372
Width: 1020
GlyphClass: 2
Flags: MW
HStem: -205 49<408.5 563 408.5 569> 14 46<455 521> 439 45<478.5 544.5> 646 50<410 639.5>
VStem: 85 59<121 353.5 121 367.5> 316 58<175 298.5 175 317.5> 616 54<166 190 190 419 419 419> 876 59<213 403>
LayerCount: 2
Back
Fore
SplineSet
526 696 m 0
 796 696 935 514 935 308 c 0
 935 109 858 12 754 12 c 0
 683 12 644 63 632 121 c 1
 605 59 558 14 484 14 c 0
 388 14 316 93 316 232 c 0
 316 403 408 484 525 484 c 0
 577 484 625 471 670 448 c 1
 670 190 l 2
 670 97 702 59 753 59 c 0
 821 59 876 120 876 306 c 0
 876 500 753 646 526 646 c 0
 294 646 144 465 144 242 c 0
 144 0 292 -156 525 -156 c 0
 601 -156 660 -142 714 -122 c 1
 730 -169 l 1
 670 -190 614 -205 524 -205 c 0
 268 -205 85 -36 85 242 c 0
 85 493 262 696 526 696 c 0
490 60 m 0
 560 60 601 118 616 166 c 1
 616 419 l 1
 589 432 562 439 527 439 c 0
 430 439 374 365 374 232 c 0
 374 118 420 60 490 60 c 0
EndSplineSet
EndChar
StartChar: A
Encoding: 65 65 2
Width: 565
GlyphClass: 2
Flags: MW
HStem: 0 21G<16 77 16 16 485 548 485 485> 187 51<153 409 153 425 137 409> 636 49<282 282>
VStem: 16 532<0 0>
AnchorPoint: "Anchor-14" 0 0 basechar 0
AnchorPoint: "Anchor-13" 0 0 basechar 0
AnchorPoint: "Anchor-12" 283 685 basechar 0
AnchorPoint: "Anchor-11" 540 0 basechar 0
AnchorPoint: "Anchor-10" 283 0 basechar 0
LayerCount: 2
Back
Fore
SplineSet
485 0 m 1
 425 187 l 1
 137 187 l 1
 77 0 l 1
 16 0 l 1
 245 685 l 1
 320 685 l 1
 548 0 l 1
 485 0 l 1
153 238 m 1
 409 238 l 1
 282 636 l 1
 153 238 l 1
EndSplineSet
Substitution2: "Single Substitution lookup 41 subtable" ordfeminine
Substitution2: "'c2sc' Capitals to Small Capitals lookup 26 subtable" a.sc
AlternateSubs2: "'aalt' Access All Alternates lookup 1 subtable" ordfeminine a.sc
Position2: "'cpsp' Capital Spacing lookup 0 subtable" dx=5 dy=0 dh=10 dv=0
EndChar

StartChar: C
Encoding: 67 67 14
Width: 550
GlyphClass: 2
Flags: MW
HStem: -11 53<284 379.5 284 384.5> 645 51<287.5 375>
VStem: 66 63<239 452 239 460>
AnchorPoint: "Anchor-11" 343 0 basechar 0
AnchorPoint: "Anchor-10" 0 0 basechar 0
AnchorPoint: "Anchor-9" 344 685 basechar 0
AnchorPoint: "Anchor-8" 0 0 basechar 0
LayerCount: 2
Fore
SplineSet
343 696 m 0
 424 696 470 673 519 633 c 1
 487 593 l 1
 441 629 403 645 347 645 c 0
 228 645 129 561 129 343 c 0
 129 135 224 42 344 42 c 0
 415 42 455 68 495 100 c 1
 527 60 l 1
 487 21 427 -11 342 -11 c 0
 184 -11 66 112 66 343 c 0
 66 577 191 696 343 696 c 0
EndSplineSet
Substitution2: "'c2sc' Capitals to Small Capitals lookup 23 subtable" c.sc
Substitution2: "'aalt' Access All Alternates lookup 0 subtable" c.sc
Position2: "'cpsp' Capital Spacing lookup 0 subtable" dx=5 dy=0 dh=10 dv=0
EndChar
StartChar: D
Encoding: 68 68 52
Width: 632
GlyphClass: 2
Flags: MW
HStem: 0 50<171 258> 635 50<171 247 247 255 171 171>
VStem: 111 60<50 635 50 685 50 685> 503 63<225 473.5>
AnchorPoint: "Anchor-14" 320 343 basechar 0
AnchorPoint: "Anchor-13" 0 0 basechar 0
AnchorPoint: "Anchor-12" 300 685 basechar 0
AnchorPoint: "Anchor-11" 0 0 basechar 0
AnchorPoint: "Anchor-10" 300 0 basechar 0
LayerCount: 2
Back
Fore
SplineSet
247 685 m 2
 406 685 566 630 566 348 c 0
 566 64 399 0 258 0 c 2
 111 0 l 1
 111 685 l 1
 247 685 l 2
255 635 m 2
 171 635 l 1
 171 50 l 1
 262 50 l 2
 380 50 503 102 503 348 c 0
 503 599 375 635 255 635 c 2
EndSplineSet
Substitution2: "'c2sc' Capitals to Small Capitals lookup 26 subtable" d.sc
Substitution2: "'aalt' Access All Alternates lookup 0 subtable" d.sc
Position2: "'cpsp' Capital Spacing lookup 0 subtable" dx=5 dy=0 dh=10 dv=0
EndChar
StartChar: F
Encoding: 70 70 95
Width: 481
GlyphClass: 2
Flags: MW
HStem: 0 21G<111 171 111 111> 318 50<171 408 171 408> 635 50<171 446 171 171>
VStem: 111 60<0 318 368 635>
AnchorPoint: "Anchor-14" 0 0 basechar 0
AnchorPoint: "Anchor-13" 0 0 basechar 0
AnchorPoint: "Anchor-12" 292 685 basechar 0
AnchorPoint: "Anchor-11" 0 0 basechar 0
AnchorPoint: "Anchor-10" 0 0 basechar 0
LayerCount: 2
Back
Fore
SplineSet
453 685 m 1
 446 635 l 1
 171 635 l 1
 171 368 l 1
 408 368 l 1
 408 318 l 1
 171 318 l 1
 171 0 l 1
 111 0 l 1
 111 685 l 1
 453 685 l 1
EndSplineSet
Substitution2: "'c2sc' Capitals to Small Capitals lookup 26 subtable" f.sc
Substitution2: "'aalt' Access All Alternates lookup 0 subtable" f.sc
Position2: "'cpsp' Capital Spacing lookup 0 subtable" dx=5 dy=0 dh=10 dv=0
EndChar

StartChar: H
Encoding: 72 72 40
Width: 670
GlyphClass: 2
Flags: MW
HStem: 0 21G<111 171 111 111 499 499 499 559> 335 51<171 499 171 499> 665 20G<111 171 171 171 499 559 559 559>
VStem: 111 60<0 335 0 386 386 685> 499 60<0 335 335 335 386 685 0 685>
AnchorPoint: "Anchor-11" 0 0 basechar 0
AnchorPoint: "Anchor-10" 90 685 basechar 0
AnchorPoint: "Anchor-9" 334 685 basechar 0
AnchorPoint: "Anchor-8" 0 0 basechar 0
LayerCount: 2
Fore
SplineSet
499 335 m 1
 171 335 l 1
 171 0 l 1
 111 0 l 1
 111 685 l 1
 171 685 l 1
 171 386 l 1
 499 386 l 1
 499 685 l 1
 559 685 l 1
 559 0 l 1
 499 0 l 1
 499 335 l 1
EndSplineSet
Substitution2: "'c2sc' Capitals to Small Capitals lookup 23 subtable" h.sc
Substitution2: "'aalt' Access All Alternates lookup 0 subtable" h.sc
Position2: "'cpsp' Capital Spacing lookup 0 subtable" dx=5 dy=0 dh=10 dv=0
EndChar

StartChar: J
Encoding: 74 74 54
Width: 291
GlyphClass: 2
Flags: MW
HStem: 665 20G<125 185 185 185>
VStem: 125 60<95 685>
AnchorPoint: "Anchor-11" 0 0 basechar 0
AnchorPoint: "Anchor-10" 0 0 basechar 0
AnchorPoint: "Anchor-9" 154 685 basechar 0
AnchorPoint: "Anchor-8" 0 0 basechar 0
LayerCount: 2
Fore
SplineSet
185 92 m 2
 185 -30 141 -76 29 -119 c 1
 13 -75 l 1
 104 -35 125 2 125 95 c 2
 125 685 l 1
 185 685 l 1
 185 92 l 2
EndSplineSet
Substitution2: "'c2sc' Capitals to Small Capitals lookup 23 subtable" j.sc
Substitution2: "'aalt' Access All Alternates lookup 0 subtable" j.sc
Position2: "'cpsp' Capital Spacing lookup 0 subtable" dx=5 dy=0 dh=10 dv=0
EndChar

StartChar: L
Encoding: 76 76 58
Width: 474
GlyphClass: 2
Flags: MW
HStem: 0 54<171 449> 665 20G<111 171 171 171>
VStem: 111 60<54 54 54 685>
AnchorPoint: "Anchor-11" 282 0 basechar 0
AnchorPoint: "Anchor-10" 0 0 basechar 0
AnchorPoint: "Anchor-9" 141 685 basechar 0
AnchorPoint: "Anchor-8" 0 0 basechar 0
LayerCount: 2
Fore
SplineSet
171 54 m 1
 457 54 l 1
 449 0 l 1
 111 0 l 1
 111 685 l 1
 171 685 l 1
 171 54 l 1
EndSplineSet
Substitution2: "'c2sc' Capitals to Small Capitals lookup 23 subtable" l.sc
Substitution2: "'aalt' Access All Alternates lookup 0 subtable" l.sc
Position2: "'cpsp' Capital Spacing lookup 0 subtable" dx=5 dy=0 dh=10 dv=0
EndChar
StartChar: M
Encoding: 77 77 155
Width: 778
GlyphClass: 2
Flags: MW
HStem: 0 21G<69 126 69 69 643 701 643 643> 627 58<179 179 586 586>
VStem: 69 632<0 0>
AnchorPoint: "Anchor-14" 0 0 basechar 0
AnchorPoint: "Anchor-13" 0 0 basechar 0
AnchorPoint: "Anchor-12" 385 685 basechar 0
AnchorPoint: "Anchor-11" 0 0 basechar 0
AnchorPoint: "Anchor-10" 0 0 basechar 0
LayerCount: 2
Back
Fore
SplineSet
635 685 m 1
 701 0 l 1
 643 0 l 1
 612 328 l 2
 601 438 590 564 586 627 c 1
 414 81 l 1
 357 81 l 1
 179 627 l 1
 176 559 165 435 156 330 c 2
 126 0 l 1
 69 0 l 1
 134 685 l 1
 217 685 l 1
 387 151 l 1
 551 685 l 1
 635 685 l 1
EndSplineSet
Substitution2: "'c2sc' Capitals to Small Capitals lookup 26 subtable" m.sc
Substitution2: "'aalt' Access All Alternates lookup 0 subtable" m.sc
Position2: "'cpsp' Capital Spacing lookup 0 subtable" dx=5 dy=0 dh=10 dv=0
EndChar
StartChar: P
Encoding: 80 80 218
Width: 570
GlyphClass: 2
Flags: MW
HStem: 0 21G<111 171 111 111> 267 49<171 269 171 269> 636 49<171 271 171 171>
VStem: 111 60<0 267 0 316 316 636> 462 63<416 537>
AnchorPoint: "Anchor-14" 0 0 basechar 0
AnchorPoint: "Anchor-13" 0 0 basechar 0
AnchorPoint: "Anchor-12" 286 685 basechar 0
AnchorPoint: "Anchor-11" 0 0 basechar 0
AnchorPoint: "Anchor-10" 286 0 basechar 0
LayerCount: 2
Back
Fore
SplineSet
272 685 m 2
 431 685 525 622 525 480 c 0
 525 326 418 267 269 267 c 2
 171 267 l 1
 171 0 l 1
 111 0 l 1
 111 685 l 1
 272 685 l 2
269 316 m 2
 383 316 462 353 462 479 c 0
 462 595 391 636 271 636 c 2
 171 636 l 1
 171 316 l 1
 269 316 l 2
EndSplineSet
Substitution2: "'c2sc' Capitals to Small Capitals lookup 26 subtable" p.sc
Substitution2: "'aalt' Access All Alternates lookup 0 subtable" p.sc
Position2: "'cpsp' Capital Spacing lookup 0 subtable" dx=5 dy=0 dh=10 dv=0
EndChar

StartChar: R
Encoding: 82 82 86
Width: 590
GlyphClass: 2
Flags: MW
HStem: 0 21G<111 171 111 111 484 484 484 556> 307 49<171 285 285 308 171 285> 636 49<171 275 171 171>
VStem: 111 60<0 307 0 356 356 636> 457 64<449 544.5>
AnchorPoint: "Anchor-11" 307 0 basechar 0
AnchorPoint: "Anchor-10" 0 0 basechar 0
AnchorPoint: "Anchor-9" 294 685 basechar 0
AnchorPoint: "Anchor-8" 0 0 basechar 0
LayerCount: 2
Fore
SplineSet
308 307 m 1
 171 307 l 1
 171 0 l 1
 111 0 l 1
 111 685 l 1
 277 685 l 2
 442 685 521 620 521 499 c 0
 521 397 465 343 368 318 c 1
 556 0 l 1
 484 0 l 1
 308 307 l 1
285 356 m 2
 394 356 457 399 457 499 c 0
 457 590 406 636 275 636 c 2
 171 636 l 1
 171 356 l 1
 285 356 l 2
EndSplineSet
Substitution2: "'c2sc' Capitals to Small Capitals lookup 23 subtable" r.sc
Substitution2: "'aalt' Access All Alternates lookup 0 subtable" r.sc
Position2: "'cpsp' Capital Spacing lookup 0 subtable" dx=5 dy=0 dh=10 dv=0
EndChar
StartChar: T
Encoding: 84 84 247
Width: 495
GlyphClass: 2
Flags: MW
HStem: 0 21G<218 277 218 218> 632 53<15 218 15 485 277 478 277 277>
VStem: 218 59<0 632 0 632>
AnchorPoint: "Anchor-14" 248 347 basechar 0
AnchorPoint: "Anchor-13" 0 0 basechar 0
AnchorPoint: "Anchor-12" 248 685 basechar 0
AnchorPoint: "Anchor-11" 0 0 basechar 0
AnchorPoint: "Anchor-10" 248 0 basechar 0
LayerCount: 2
Back
Fore
SplineSet
485 685 m 1
 478 632 l 1
 277 632 l 1
 277 0 l 1
 218 0 l 1
 218 632 l 1
 15 632 l 1
 15 685 l 1
 485 685 l 1
EndSplineSet
Substitution2: "'c2sc' Capitals to Small Capitals lookup 26 subtable" t.sc
Substitution2: "'aalt' Access All Alternates lookup 0 subtable" t.sc
Position2: "'cpsp' Capital Spacing lookup 0 subtable" dx=5 dy=0 dh=10 dv=0
EndChar

StartChar: U
Encoding: 85 85 101
Width: 652
GlyphClass: 2
Flags: MW
HStem: -11 52<268.5 383.5 268.5 401> 665 20G<101 161 161 161 490 551 551 551>
VStem: 101 60<214 219 219 685> 490 61<219 685>
AnchorPoint: "Anchor-11" 0 0 basechar 0
AnchorPoint: "Anchor-10" 0 0 basechar 0
AnchorPoint: "Anchor-9" 328 685 basechar 0
AnchorPoint: "Anchor-8" 416 0 basechar 0
LayerCount: 2
Fore
SplineSet
551 214 m 2
 551 82 476 -11 326 -11 c 0
 173 -11 101 82 101 214 c 2
 101 685 l 1
 161 685 l 1
 161 219 l 2
 161 108 211 41 326 41 c 0
 441 41 490 109 490 219 c 2
 490 685 l 1
 551 685 l 1
 551 214 l 2
EndSplineSet
Substitution2: "'c2sc' Capitals to Small Capitals lookup 23 subtable" u.sc
Substitution2: "'aalt' Access All Alternates lookup 0 subtable" u.sc
Position2: "'cpsp' Capital Spacing lookup 0 subtable" dx=5 dy=0 dh=10 dv=0
EndChar

StartChar: V
Encoding: 86 86 112
Width: 546
GlyphClass: 2
Flags: MW
HStem: 0 21G<240 307 240 240> 0 62<274 274 274 307 240 274> 665 20G<16 81 81 81 468 530 530 530>
VStem: 16 514<685 685>
LayerCount: 2
Fore
SplineSet
307 0 m 1xb0
 240 0 l 1
 16 685 l 1
 81 685 l 1
 274 62 l 1x70
 468 685 l 1
 530 685 l 1
 307 0 l 1xb0
EndSplineSet
Substitution2: "'c2sc' Capitals to Small Capitals lookup 23 subtable" v.sc
Substitution2: "'aalt' Access All Alternates lookup 0 subtable" v.sc
Position2: "'cpsp' Capital Spacing lookup 0 subtable" dx=5 dy=0 dh=10 dv=0
EndChar

StartChar: X
Encoding: 88 88 118
Width: 512
GlyphClass: 2
Flags: MW
HStem: 0 21G<10 75 10 10 436 504 436 436> 665 20G<31 99 99 99 411 476 476 476>
VStem: 10 494<0 0>
LayerCount: 2
Fore
SplineSet
504 0 m 1
 436 0 l 1
 254 330 l 1
 75 0 l 1
 10 0 l 1
 219 368 l 1
 31 685 l 1
 99 685 l 1
 255 407 l 1
 411 685 l 1
 476 685 l 1
 290 371 l 1
 504 0 l 1
EndSplineSet
Substitution2: "'c2sc' Capitals to Small Capitals lookup 23 subtable" x.sc
Substitution2: "'aalt' Access All Alternates lookup 0 subtable" x.sc
Position2: "'cpsp' Capital Spacing lookup 0 subtable" dx=5 dy=0 dh=10 dv=0
EndChar

StartChar: Y
Encoding: 89 89 119
Width: 523
GlyphClass: 2
Flags: MW
HStem: 0 21G<232 292 232 232> 665 20G<13 80 80 80 445 509 509 509>
VStem: 232 60<0 267 267 267>
AnchorPoint: "Anchor-11" 0 0 basechar 0
AnchorPoint: "Anchor-10" 10 685 basechar 0
AnchorPoint: "Anchor-9" 260 685 basechar 0
AnchorPoint: "Anchor-8" 0 0 basechar 0
LayerCount: 2
Fore
SplineSet
292 268 m 1
 292 0 l 1
 232 0 l 1
 232 267 l 1
 13 685 l 1
 80 685 l 1
 264 320 l 1
 445 685 l 1
 509 685 l 1
 292 268 l 1
EndSplineSet
Substitution2: "'c2sc' Capitals to Small Capitals lookup 23 subtable" y.sc
Substitution2: "'aalt' Access All Alternates lookup 0 subtable" y.sc
Position2: "'cpsp' Capital Spacing lookup 0 subtable" dx=5 dy=0 dh=10 dv=0
EndChar

StartChar: bracketleft
Encoding: 91 91 1005
Width: 317
Flags: MW
HStem: -112 47<138 251 138 251> 759 48<138 251 138 138>
VStem: 84 54<-65 759 -65 807 -65 807>
LayerCount: 2
Fore
SplineSet
251 759 m 1
 138 759 l 1
 138 -65 l 1
 251 -65 l 1
 251 -112 l 1
 84 -112 l 1
 84 807 l 1
 251 807 l 1
 251 759 l 1
EndSplineSet
Substitution2: "'case' Case-Sensitive Forms lookup 25 subtable" bracketleft.case
Substitution2: "'aalt' Access All Alternates lookup 0 subtable" bracketleft.case
EndChar

StartChar: backslash
Encoding: 92 92 979
Width: 520
Flags: MW
HStem: -100 903<169 350>
VStem: 119 282
LayerCount: 2
Fore
SplineSet
401 -87 m 1
 350 -100 l 1
 119 791 l 1
 169 803 l 1
 401 -87 l 1
EndSplineSet
EndChar
StartChar: bracketright
Encoding: 93 93 2143
Width: 317
Flags: MW
HStem: -112 47<66 179 66 233 66 179> 759 48<66 179 66 233>
VStem: 179 54<-65 759 759 759>
LayerCount: 2
Back
Fore
SplineSet
233 807 m 1
 233 -112 l 1
 66 -112 l 1
 66 -65 l 1
 179 -65 l 1
 179 759 l 1
 66 759 l 1
 66 807 l 1
 233 807 l 1
EndSplineSet
Substitution2: "'case' Case-Sensitive Forms lookup 28 subtable" bracketright.case
Substitution2: "'aalt' Access All Alternates lookup 0 subtable" bracketright.case
EndChar

StartChar: asciicircum
Encoding: 94 94 1228
Width: 531
Flags: MW
HStem: 527 305<56 290 56 290 241 474 241 409>
VStem: 56 418<527 527>
LayerCount: 2
Fore
SplineSet
474 527 m 1
 409 527 l 1
 265 775 l 1
 122 527 l 1
 56 527 l 1
 241 832 l 1
 290 832 l 1
 474 527 l 1
EndSplineSet
EndChar

StartChar: grave
Encoding: 96 96 1257
Width: 274
Flags: MW
HStem: 645 137
VStem: 30 214<679 730>
LayerCount: 2
Fore
SplineSet
244 679 m 1
 226 645 l 1
 30 730 l 1
 56 782 l 1
 244 679 l 1
EndSplineSet
Substitution2: "'case' Case-Sensitive Forms lookup 25 subtable" grave.case
Substitution2: "'smcp' Lowercase to Small Capitals lookup 24 subtable" grave.sc
Substitution2: "'c2sc' Capitals to Small Capitals lookup 23 subtable" grave.sc
AlternateSubs2: "'aalt' Access All Alternates lookup 1 subtable" grave.sc grave.case
EndChar
StartChar: a
Encoding: 97 97 335
Width: 536
GlyphClass: 2
Flags: MW
HStem: -11 47<193.5 253> 272 42<273 282 282 373> 485 49<232.5 295.5>
VStem: 56 62<112 189.5 112 200> 373 58<130 272 272 272 314 365 365 368>
AnchorPoint: "Anchor-14" 0 0 basechar 0
AnchorPoint: "Anchor-13" 0 0 basechar 0
AnchorPoint: "Anchor-12" 258 523 basechar 0
AnchorPoint: "Anchor-11" 472 -11 basechar 0
AnchorPoint: "Anchor-10" 258 0 basechar 0
LayerCount: 2
Back
Fore
SplineSet
431 116 m 2
 431 58 447 41 475 30 c 1
 462 -11 l 1
 416 -1 389 22 381 76 c 1
 343 18 288 -11 218 -11 c 0
 117 -11 56 52 56 145 c 0
 56 255 139 314 273 314 c 2
 373 314 l 1
 373 365 l 2
 373 448 339 485 252 485 c 0
 210 485 162 474 110 455 c 1
 95 499 l 1
 153 522 205 534 260 534 c 0
 379 534 431 475 431 368 c 2
 431 116 l 2
228 36 m 0
 295 36 341 69 373 130 c 1
 373 272 l 1
 282 272 l 2
 177 272 118 231 118 148 c 0
 118 76 159 36 228 36 c 0
EndSplineSet
Substitution2: "Single Substitution lookup 41 subtable" ordfeminine
Substitution2: "'smcp' Lowercase to Small Capitals lookup 27 subtable" a.sc
AlternateSubs2: "'aalt' Access All Alternates lookup 1 subtable" ordfeminine a.sc
EndChar

StartChar: b
Encoding: 98 98 146
Width: 581
GlyphClass: 2
Flags: MW
HStem: -11 48<280 348.5 272 376> 0 21G<106 157 106 106> 486 48<286.5 353.5> 716 20G<106 106> 723 20G<164 164>
VStem: 106 58<121 396 450 736 736 736> 450 62<188 341>
LayerCount: 2
Fore
SplineSet
321 534 m 0xae
 441 534 512 438 512 264 c 0
 512 96 439 -11 313 -11 c 0
 247 -11 196 22 163 66 c 1xae
 157 0 l 1
 106 0 l 1
 106 736 l 1x76
 164 743 l 1
 164 450 l 1
 201 500 252 534 321 534 c 0xae
302 37 m 0
 395 37 450 112 450 264 c 0
 450 418 398 486 309 486 c 0
 241 486 199 446 164 396 c 1
 164 121 l 1
 196 72 242 37 302 37 c 0
EndSplineSet
Substitution2: "'smcp' Lowercase to Small Capitals lookup 24 subtable" b.sc
Substitution2: "'aalt' Access All Alternates lookup 0 subtable" b.sc
EndChar
StartChar: f
Encoding: 102 102 448
Width: 321
GlyphClass: 2
Flags: MW
HStem: 0 21G<112 170 112 112> 476 47<21 112 21 112 170 300> 695 48<230.5 276.5>
VStem: 112 58<0 476 0 476 523 607>
AnchorPoint: "Anchor-14" 0 0 basechar 0
AnchorPoint: "Anchor-13" 0 0 basechar 0
AnchorPoint: "Anchor-12" 255 736 basechar 0
AnchorPoint: "Anchor-11" 0 0 basechar 0
AnchorPoint: "Anchor-10" 141 0 basechar 0
LayerCount: 2
Back
Fore
SplineSet
260 695 m 0
 201 695 170 669 170 607 c 2
 170 523 l 1
 308 523 l 1
 300 476 l 1
 170 476 l 1
 170 0 l 1
 112 0 l 1
 112 476 l 1
 21 476 l 1
 21 523 l 1
 112 523 l 1
 112 609 l 2
 112 691 166 743 257 743 c 0
 302 743 340 733 379 715 c 1
 359 672 l 1
 325 687 293 695 260 695 c 0
EndSplineSet
Substitution2: "'smcp' Lowercase to Small Capitals lookup 27 subtable" f.sc
Substitution2: "'aalt' Access All Alternates lookup 0 subtable" f.sc
EndChar
StartChar: h
Encoding: 104 104 469
Width: 584
GlyphClass: 2
Flags: MW
HStem: 0 21G<106 164 106 106 425 483 425 425> 487 47<300 357.5> 716 20G<106 106> 723 20G<164 164>
VStem: 106 58<0 379 0 436 436 736 736 736> 425 58<0 366 366 374 0 408.5>
AnchorPoint: "Anchor-14" 294 262 basechar 0
AnchorPoint: "Anchor-13" 0 0 basechar 0
AnchorPoint: "Anchor-12" 294 736 basechar 0
AnchorPoint: "Anchor-11" 0 0 basechar 0
AnchorPoint: "Anchor-10" 295 0 basechar 0
LayerCount: 2
Back
Fore
SplineSet
337 534 m 0xdc
 431 534 483 473 483 374 c 2
 483 0 l 1
 425 0 l 1
 425 366 l 2
 425 451 389 487 326 487 c 0
 255 487 207 443 164 379 c 1
 164 0 l 1
 106 0 l 1
 106 736 l 1xec
 164 743 l 1
 164 436 l 1
 206 495 263 534 337 534 c 0xdc
EndSplineSet
Substitution2: "'smcp' Lowercase to Small Capitals lookup 27 subtable" h.sc
Substitution2: "'aalt' Access All Alternates lookup 0 subtable" h.sc
EndChar

StartChar: i
Encoding: 105 105 176
Width: 270
GlyphClass: 2
Flags: MW
HStem: 0 21G<106 164 106 106> 503 20G<106 164 164 164> 669 84<121 147.5>
VStem: 91 87<699.5 722.5> 106 58<0 523>
AnchorPoint: "Anchor-11" 0 0 basechar 0
AnchorPoint: "Anchor-10" 0 0 basechar 0
AnchorPoint: "Anchor-9" 135 523 basechar 0
AnchorPoint: "Anchor-8" 174 0 basechar 0
LayerCount: 2
Fore
SplineSet
134 753 m 0xf0
 161 753 178 734 178 711 c 0
 178 688 161 669 134 669 c 0
 108 669 91 688 91 711 c 0
 91 734 108 753 134 753 c 0xf0
164 0 m 1xe8
 106 0 l 1
 106 523 l 1
 164 523 l 1
 164 0 l 1xe8
EndSplineSet
Substitution2: "'smcp' Lowercase to Small Capitals lookup 24 subtable" i.sc
Substitution2: "'locl' Localized Forms in Latin lookup 10 subtable" i.loclTRK
Substitution2: "'locl' Localized Forms in Latin lookup 8 subtable" i.loclTRK
Substitution2: "'locl' Localized Forms in Latin lookup 6 subtable" i.loclTRK
Substitution2: "'locl' Localized Forms in Latin lookup 3 subtable" i.loclTRK
Substitution2: "'locl' Localized Forms in Latin lookup 2 subtable" i.loclTRK
AlternateSubs2: "'aalt' Access All Alternates lookup 1 subtable" i.loclTRK i.sc
EndChar
StartChar: j
Encoding: 106 106 498
Width: 270
GlyphClass: 2
Flags: MW
HStem: -203 21G<23 23> 503 20G<106 164 164 164> 669 84<121 147.5>
VStem: 91 87<699.5 722.5> 106 58<17 19 19 523>
AnchorPoint: "Anchor-14" 0 0 basechar 0
AnchorPoint: "Anchor-13" 0 0 basechar 0
AnchorPoint: "Anchor-12" 136 706 basechar 0
AnchorPoint: "Anchor-11" 0 0 basechar 0
AnchorPoint: "Anchor-10" 135 -197 basechar 0
LayerCount: 2
Back
Fore
SplineSet
134 753 m 0xf0
 161 753 178 734 178 711 c 0
 178 688 161 669 134 669 c 0
 108 669 91 688 91 711 c 0
 91 734 108 753 134 753 c 0xf0
164 523 m 1xe8
 164 19 l 2
 164 -121 118 -159 23 -203 c 1
 6 -161 l 1
 75 -127 106 -99 106 17 c 2
 106 523 l 1
 164 523 l 1xe8
EndSplineSet
Substitution2: "'smcp' Lowercase to Small Capitals lookup 27 subtable" j.sc
Substitution2: "'aalt' Access All Alternates lookup 0 subtable" j.sc
EndChar
StartChar: l
Encoding: 108 108 512
Width: 284
GlyphClass: 2
Flags: MW
HStem: -11 50<186.5 204> 716 20G<101 101> 723 20G<159 159>
VStem: 101 58<88 90 90 736 736 736>
AnchorPoint: "Anchor-14" 278 377 basechar 0
AnchorPoint: "Anchor-13" 180 736 basechar 0
AnchorPoint: "Anchor-12" 130 736 basechar 0
AnchorPoint: "Anchor-11" 0 0 basechar 0
AnchorPoint: "Anchor-10" 179 0 basechar 0
LayerCount: 2
Back
Fore
SplineSet
193 -11 m 0xb0
 138 -11 101 21 101 88 c 2
 101 736 l 1xd0
 159 743 l 1
 159 90 l 2
 159 56 172 39 201 39 c 0
 214 39 226 41 237 46 c 1
 253 3 l 1
 237 -5 215 -11 193 -11 c 0xb0
EndSplineSet
Substitution2: "'smcp' Lowercase to Small Capitals lookup 27 subtable" l.sc
Substitution2: "'sups' Superscript lookup 14 subtable" uni02E1
AlternateSubs2: "'aalt' Access All Alternates lookup 1 subtable" uni02E1 l.sc
EndChar
StartChar: m
Encoding: 109 109 530
Width: 853
GlyphClass: 2
Flags: MW
HStem: 0 21G<106 164 106 106 400 458 400 400 694 752 694 694> 487 47<288 338 581 632> 503 20G<106 156 156 156>
VStem: 106 58<0 379 0 523> 400 58<0 366 366 379 0 408.5> 694 58<0 366 366 374 0 408.5>
AnchorPoint: "Anchor-14" 0 0 basechar 0
AnchorPoint: "Anchor-13" 0 0 basechar 0
AnchorPoint: "Anchor-12" 427 523 basechar 0
AnchorPoint: "Anchor-11" 0 0 basechar 0
AnchorPoint: "Anchor-10" 427 0 basechar 0
LayerCount: 2
Back
Fore
SplineSet
616 534 m 0xdc
 700 534 752 473 752 374 c 2
 752 0 l 1
 694 0 l 1
 694 366 l 2
 694 451 659 487 605 487 c 0
 542 487 498 443 458 379 c 1
 458 0 l 1
 400 0 l 1
 400 366 l 2
 400 451 365 487 311 487 c 0xdc
 248 487 203 443 164 379 c 1
 164 0 l 1
 106 0 l 1
 106 523 l 1
 156 523 l 1xbc
 161 435 l 1
 200 494 254 534 322 534 c 0
 389 534 435 496 451 430 c 1
 492 492 546 534 616 534 c 0xdc
EndSplineSet
Substitution2: "'smcp' Lowercase to Small Capitals lookup 27 subtable" m.sc
Substitution2: "'aalt' Access All Alternates lookup 0 subtable" m.sc
EndChar
StartChar: q
Encoding: 113 113 603
Width: 580
GlyphClass: 2
Flags: MW
HStem: -205 21G<474 474> -197 21G<416 416> -11 48<225.5 297.5> 486 48<233.5 307 205.5 311.5> 503 20G<424 474 474 474>
VStem: 64 62<187 260 187 339.5> 416 58<-197 77 77 77 133 407 407 407>
AnchorPoint: "Anchor-14" 0 0 basechar 0
AnchorPoint: "Anchor-13" 0 0 basechar 0
AnchorPoint: "Anchor-12" 290 523 basechar 0
AnchorPoint: "Anchor-11" 0 0 basechar 0
AnchorPoint: "Anchor-10" 290 -197 basechar 0
LayerCount: 2
Back
Fore
SplineSet
424 523 m 1x6e
 474 523 l 1
 474 -205 l 1xae
 416 -197 l 1
 416 77 l 1
 386 27 335 -11 260 -11 c 0
 138 -11 64 93 64 259 c 0
 64 420 141 534 270 534 c 0
 344 534 389 498 420 460 c 1x76
 424 523 l 1x6e
270 37 m 0
 339 37 381 72 416 133 c 1
 416 407 l 1
 385 452 343 486 280 486 c 0x76
 187 486 125 407 126 260 c 0
 126 114 181 37 270 37 c 0
EndSplineSet
Substitution2: "'smcp' Lowercase to Small Capitals lookup 27 subtable" q.sc
Substitution2: "'aalt' Access All Alternates lookup 0 subtable" q.sc
EndChar

StartChar: r
Encoding: 114 114 223
Width: 373
GlyphClass: 2
Flags: MW
HStem: 0 21G<106 164 106 106> 479 55<272.5 313> 503 20G<106 156 156 156> 508 20G<361 361>
VStem: 106 58<0 320 0 523>
AnchorPoint: "Anchor-11" 134 0 basechar 0
AnchorPoint: "Anchor-10" 0 0 basechar 0
AnchorPoint: "Anchor-9" 233 523 basechar 0
AnchorPoint: "Anchor-8" 0 0 basechar 0
LayerCount: 2
Fore
SplineSet
309 534 m 0xc8
 329 534 347 532 361 528 c 1x98
 350 473 l 1
 335 477 322 479 304 479 c 0xc8
 231 479 192 427 164 320 c 1
 164 0 l 1
 106 0 l 1
 106 523 l 1
 156 523 l 1xa8
 161 406 l 1
 189 492 236 534 309 534 c 0xc8
EndSplineSet
Substitution2: "'smcp' Lowercase to Small Capitals lookup 24 subtable" r.sc
Substitution2: "'aalt' Access All Alternates lookup 0 subtable" r.sc
EndChar

StartChar: t
Encoding: 116 116 234
Width: 341
GlyphClass: 2
Flags: MW
HStem: -11 50<214.5 255> 476 47<18 106 18 106 164 292>
VStem: 106 58<127 130 130 476 523 648 648 648>
AnchorPoint: "Anchor-11" 227 0 basechar 0
AnchorPoint: "Anchor-10" 0 0 basechar 0
AnchorPoint: "Anchor-9" 0 0 basechar 0
AnchorPoint: "Anchor-8" 0 0 basechar 0
LayerCount: 2
Fore
SplineSet
344 22 m 1
 312 1 276 -11 234 -11 c 0
 155 -11 106 36 106 127 c 2
 106 476 l 1
 18 476 l 1
 18 523 l 1
 106 523 l 1
 106 648 l 1
 164 655 l 1
 164 523 l 1
 299 523 l 1
 292 476 l 1
 164 476 l 1
 164 130 l 2
 164 69 188 39 241 39 c 0
 270 39 295 47 321 63 c 1
 344 22 l 1
EndSplineSet
Substitution2: "'smcp' Lowercase to Small Capitals lookup 24 subtable" t.sc
Substitution2: "'aalt' Access All Alternates lookup 0 subtable" t.sc
EndChar
StartChar: v
Encoding: 118 118 690
Width: 470
GlyphClass: 2
Flags: MW
HStem: 0 51<238 238 238 274 202 238> 503 20G<15 79 79 79 393 455 455 455>
VStem: 15 440<523 523>
AnchorPoint: "Anchor-14" 0 0 basechar 0
AnchorPoint: "Anchor-13" 0 0 basechar 0
AnchorPoint: "Anchor-12" 236 523 basechar 0
AnchorPoint: "Anchor-11" 0 0 basechar 0
AnchorPoint: "Anchor-10" 239 0 basechar 0
LayerCount: 2
Back
Fore
SplineSet
455 523 m 1
 274 0 l 1
 202 0 l 1
 15 523 l 1
 79 523 l 1
 238 51 l 1
 393 523 l 1
 455 523 l 1
EndSplineSet
Substitution2: "'smcp' Lowercase to Small Capitals lookup 27 subtable" v.sc
Substitution2: "'aalt' Access All Alternates lookup 0 subtable" v.sc
EndChar

StartChar: w
Encoding: 119 119 251
Width: 698
GlyphClass: 2
Flags: MW
HStem: 0 44<505 505 505 545 467 505> 469 54<351 351>
VStem: 25 648<523 523>
AnchorPoint: "Anchor-11" 0 0 basechar 0
AnchorPoint: "Anchor-10" 0 0 basechar 0
AnchorPoint: "Anchor-9" 350 523 basechar 0
AnchorPoint: "Anchor-8" 0 0 basechar 0
LayerCount: 2
Fore
SplineSet
545 0 m 1
 467 0 l 1
 351 469 l 1
 233 0 l 1
 156 0 l 1
 25 523 l 1
 85 523 l 1
 197 45 l 1
 319 523 l 1
 385 523 l 1
 505 44 l 1
 616 523 l 1
 673 523 l 1
 545 0 l 1
EndSplineSet
Substitution2: "'smcp' Lowercase to Small Capitals lookup 24 subtable" w.sc
Substitution2: "'aalt' Access All Alternates lookup 0 subtable" w.sc
EndChar

StartChar: z
Encoding: 122 122 262
Width: 422
GlyphClass: 2
Flags: MW
HStem: 0 50<96 380> 473 50<52 320 52 388>
VStem: 28 360
AnchorPoint: "Anchor-11" 0 0 basechar 0
AnchorPoint: "Anchor-10" 0 0 basechar 0
AnchorPoint: "Anchor-9" 216 523 basechar 0
AnchorPoint: "Anchor-8" 0 0 basechar 0
LayerCount: 2
Fore
SplineSet
388 478 m 1
 96 50 l 1
 386 50 l 1
 380 0 l 1
 28 0 l 1
 28 45 l 1
 320 473 l 1
 52 473 l 1
 52 523 l 1
 388 523 l 1
 388 478 l 1
EndSplineSet
Substitution2: "'smcp' Lowercase to Small Capitals lookup 24 subtable" z.sc
Substitution2: "'aalt' Access All Alternates lookup 0 subtable" z.sc
EndChar
StartChar: braceleft
Encoding: 123 123 2140
Width: 326
Flags: MW
HStem: -129 44<230 262 230 262> 324 50<44 69> 784 44<230 262>
VStem: 120 54<-4 247 448 451 451 703 703 705>
LayerCount: 2
Back
Fore
SplineSet
262 828 m 1
 262 784 l 1
 198 784 174 760 174 705 c 2
 174 451 l 2
 174 382 149 362 99 349 c 1
 149 336 174 317 174 247 c 2
 174 -6 l 2
 174 -61 198 -85 262 -85 c 1
 262 -129 l 1
 164 -129 120 -92 120 -4 c 2
 120 251 l 2
 120 305 94 324 44 324 c 1
 44 374 l 1
 94 374 120 394 120 448 c 2
 120 703 l 2
 120 791 164 828 262 828 c 1
EndSplineSet
Substitution2: "'case' Case-Sensitive Forms lookup 28 subtable" braceleft.case
Substitution2: "'aalt' Access All Alternates lookup 0 subtable" braceleft.case
EndChar
StartChar: bar
Encoding: 124 124 2370
Width: 407
GlyphClass: 2
Flags: MW
HStem: -100 904<176 230 176 230>
VStem: 176 54<-100 804 -100 804>
LayerCount: 2
Back
Fore
SplineSet
230 804 m 1
 230 -100 l 1
 176 -100 l 1
 176 804 l 1
 230 804 l 1
EndSplineSet
EndChar
StartChar: braceright
Encoding: 125 125 2141
Width: 326
Flags: MW
HStem: -129 44<64 95.5 64 112.5> 324 50<257 282> 784 44<64 95.5>
VStem: 152 54<-6 -4 -4 247 247 251 451 703>
LayerCount: 2
Back
Fore
SplineSet
64 828 m 1
 161 828 206 791 206 703 c 2
 206 448 l 2
 206 394 232 374 282 374 c 1
 282 324 l 1
 232 324 206 305 206 251 c 2
 206 -4 l 2
 206 -92 161 -129 64 -129 c 1
 64 -85 l 1
 127 -85 152 -61 152 -6 c 2
 152 247 l 2
 152 317 177 336 227 349 c 1
 177 362 152 382 152 451 c 2
 152 705 l 2
 152 760 127 784 64 784 c 1
 64 828 l 1
EndSplineSet
Substitution2: "'case' Case-Sensitive Forms lookup 28 subtable" braceright.case
Substitution2: "'aalt' Access All Alternates lookup 0 subtable" braceright.case
EndChar
StartChar: asciitilde
Encoding: 126 126 2241
Width: 472
GlyphClass: 2
Flags: MW
HStem: 264 49<292.5 331.5 292.5 339.5> 322 49<142 181>
VStem: 51 369<295 337>
LayerCount: 2
Back
Fore
SplineSet
312 264 m 0
 247 264 203 322 159 322 c 0
 125 322 106 300 88 275 c 1
 51 295 l 1
 75 333 105 371 162 371 c 0x60
 229 371 270 313 315 313 c 0
 348 313 366 332 384 357 c 1
 420 337 l 1
 397 299 367 264 312 264 c 0
EndSplineSet
Substitution2: "'onum' Oldstyle Figures lookup 25 subtable" asciitilde.osf
Substitution2: "'tnum' Tabular Numbers lookup 24 subtable" asciitilde.tf
AlternateSubs2: "'aalt' Access All Alternates lookup 1 subtable" asciitilde.tf asciitilde.osf
EndChar

StartChar: exclamdown
Encoding: 161 161 986
Width: 240
Flags: MW
HStem: -197 21G<90 152 90 90> 380 95<106 134>
VStem: 72 96<414 440.5> 92.5 57
LayerCount: 2
Fore
SplineSet
120 475 m 0xe0
 148 475 168 454 168 427 c 0
 168 401 148 380 120 380 c 0
 92 380 72 401 72 427 c 0
 72 454 92 475 120 475 c 0xe0
152 -197 m 1xd0
 90 -197 l 1
 95 249 l 1
 147 249 l 1
 152 -197 l 1xd0
EndSplineSet
Substitution2: "'case' Case-Sensitive Forms lookup 25 subtable" exclamdown.case
Substitution2: "'aalt' Access All Alternates lookup 0 subtable" exclamdown.case
EndChar
StartChar: cent
Encoding: 162 162 2198
Width: 469
GlyphClass: 2
Flags: MW
HStem: -150 190<260 311 260 260> -10 50<260 260 311 311> 484 49<261 261> 484 196<261 311 261 312>
VStem: 64 62<184 334.5 184 337> 261 50<533 680>
LayerCount: 2
Back
Fore
SplineSet
436 45 m 1x6c
 401 15 359 -5 311 -10 c 1x6c
 311 -150 l 1
 260 -150 l 1xac
 260 -10 l 1
 140 3 64 99 64 258 c 0
 64 416 140 521 261 533 c 1x6c
 261 680 l 1
 311 680 l 1x5c
 311 533 l 1
 357 529 395 513 433 481 c 1
 404 443 l 1
 370 470 336 484 288 484 c 0
 193 484 126 410 126 259 c 0
 126 109 192 40 287 40 c 0
 336 40 371 56 408 84 c 1
 436 45 l 1x6c
EndSplineSet
Substitution2: "'onum' Oldstyle Figures lookup 25 subtable" cent.osf
Substitution2: "'tnum' Tabular Numbers lookup 24 subtable" cent.tf
AlternateSubs2: "'aalt' Access All Alternates lookup 1 subtable" cent.tf cent.osf
EndChar

StartChar: yen
Encoding: 165 165 1066
Width: 512
Flags: MW
HStem: 0 192<91 286 91 227> 149 43<91 227 91 227 286 422> 295 43<91 208 91 227 91 208 304 422>
VStem: 227 59<0 149 0 149 192 295>
LayerCount: 2
Fore
SplineSet
304 338 m 1x70
 422 338 l 1
 422 295 l 1
 286 295 l 1
 286 192 l 1
 422 192 l 1
 422 149 l 1
 286 149 l 1x70
 286 0 l 1
 227 0 l 1xb0
 227 149 l 1
 91 149 l 1
 91 192 l 1
 227 192 l 1
 227 295 l 1
 91 295 l 1
 91 338 l 1
 208 338 l 1
 13 665 l 1
 79 665 l 1
 258 352 l 1
 436 665 l 1
 499 665 l 1
 304 338 l 1x70
EndSplineSet
Substitution2: "'onum' Oldstyle Figures lookup 22 subtable" yen.osf
Substitution2: "'tnum' Tabular Numbers lookup 21 subtable" yen.tf
AlternateSubs2: "'aalt' Access All Alternates lookup 1 subtable" yen.tf yen.osf
EndChar
StartChar: brokenbar
Encoding: 166 166 2371
Width: 407
GlyphClass: 2
Flags: MW
HStem: 146 412<176 230 176 230>
VStem: 176 54<146 558 146 558>
LayerCount: 2
Back
Fore
SplineSet
176 558 m 1
 230 558 l 1
 230 146 l 1
 176 146 l 1
 176 558 l 1
EndSplineSet
EndChar

StartChar: dieresis
Encoding: 168 168 1255
Width: 330
Flags: MW
HStem: 663 79<58.5 81.5 247.5 270.5>
VStem: 30 80<691 713> 219 80<691 713>
AnchorPoint: "Anchor-12" 165 651 basemark 0
LayerCount: 2
Fore
SplineSet
70 742 m 0
 93 742 110 724 110 702 c 0
 110 680 93 663 70 663 c 0
 47 663 30 680 30 702 c 0
 30 724 47 742 70 742 c 0
259 742 m 0
 282 742 299 724 299 702 c 0
 299 680 282 663 259 663 c 0
 236 663 219 680 219 702 c 0
 219 724 236 742 259 742 c 0
EndSplineSet
Substitution2: "'case' Case-Sensitive Forms lookup 25 subtable" dieresis.case
Substitution2: "'smcp' Lowercase to Small Capitals lookup 24 subtable" dieresis.sc
Substitution2: "'c2sc' Capitals to Small Capitals lookup 23 subtable" dieresis.sc
AlternateSubs2: "'aalt' Access All Alternates lookup 1 subtable" dieresis.sc dieresis.case
EndChar
StartChar: copyright
Encoding: 169 169 2375
Width: 810
GlyphClass: 2
Flags: MW
HStem: 134 39<333 478.5 333 488.5> 254 44<380.5 427.5 380.5 431.5> 573 43<385.5 424.5> 697 39<333 478.5>
VStem: 108 45<359 510 359 520.5> 259 51<389 488 389 497> 657 45<360 511>
LayerCount: 2
Back
Fore
SplineSet
405 736 m 0
 572 736 702 607 702 435 c 0
 702 263 572 134 405 134 c 0
 238 134 108 262 108 435 c 0
 108 606 238 736 405 736 c 0
406 697 m 0
 260 697 153 585 153 435 c 0
 153 283 260 173 406 173 c 0
 551 173 657 285 657 435 c 0
 657 587 551 697 406 697 c 0
407 616 m 0
 451 616 480 603 509 581 c 1
 484 548 l 1
 462 565 440 573 409 573 c 0
 362 573 310 540 310 436 c 0
 310 342 352 298 409 298 c 0
 446 298 470 311 493 327 c 1
 515 294 l 1
 490 273 456 254 407 254 c 0
 320 254 259 322 259 436 c 0
 259 558 333 616 407 616 c 0
EndSplineSet
EndChar
StartChar: guillemotleft
Encoding: 171 171 2175
Width: 555
Flags: MW
HStem: 56 464<235 235 235 448>
VStem: 71 413<80 307 80 307>
LayerCount: 2
Back
Fore
SplineSet
448 520 m 1
 484 495 l 1
 347 288 l 1
 484 80 l 1
 448 56 l 1
 285 268 l 1
 285 307 l 1
 448 520 l 1
235 520 m 1
 271 495 l 1
 134 288 l 1
 271 80 l 1
 235 56 l 1
 71 268 l 1
 71 307 l 1
 235 520 l 1
EndSplineSet
Substitution2: "'case' Case-Sensitive Forms lookup 28 subtable" guillemotleft.case
Substitution2: "'aalt' Access All Alternates lookup 0 subtable" guillemotleft.case
EndChar
StartChar: logicalnot
Encoding: 172 172 2261
Width: 499
GlyphClass: 2
Flags: MW
HStem: 296 51<69 375 69 430>
VStem: 375 55<168 296 296 296>
LayerCount: 2
Back
Fore
SplineSet
430 347 m 1
 430 168 l 1
 375 168 l 1
 375 296 l 1
 69 296 l 1
 69 347 l 1
 430 347 l 1
EndSplineSet
Substitution2: "'onum' Oldstyle Figures lookup 25 subtable" logicalnot.osf
Substitution2: "'tnum' Tabular Numbers lookup 24 subtable" logicalnot.tf
AlternateSubs2: "'aalt' Access All Alternates lookup 1 subtable" logicalnot.tf logicalnot.osf
EndChar

StartChar: softhyphen
Encoding: 173 173 1026
Width: 401
Flags: MW
HStem: 288 50<68 333 68 333>
VStem: 68 265<288 338 288 338>
LayerCount: 2
Fore
SplineSet
68 338 m 1
 333 338 l 1
 333 288 l 1
 68 288 l 1
 68 338 l 1
EndSplineSet
Substitution2: "'case' Case-Sensitive Forms lookup 25 subtable" softhyphen.case
Substitution2: "'aalt' Access All Alternates lookup 0 subtable" softhyphen.case
EndChar
StartChar: uni00AD
Encoding: 173 173 2168
Width: 401
Flags: MW
HStem: 288 50<68 333 68 333>
VStem: 68 265<288 338 288 338>
LayerCount: 2
Back
Fore
SplineSet
68 288 m 1
 68 338 l 1
 333 338 l 1
 333 288 l 1
 68 288 l 1
EndSplineSet
Substitution2: "'case' Case-Sensitive Forms lookup 28 subtable" uni00AD.case
Substitution2: "'aalt' Access All Alternates lookup 0 subtable" uni00AD.case
EndChar
StartChar: macron
Encoding: 175 175 2535
Width: 301
Flags: MW
HStem: 676 47<30 271 30 271>
VStem: 30 241<676 723 676 723>
LayerCount: 2
Back
Fore
SplineSet
271 676 m 1
 30 676 l 1
 30 723 l 1
 271 723 l 1
 271 676 l 1
EndSplineSet
Substitution2: "Single Substitution lookup 41 subtable" macron.case
Substitution2: "'case' Case-Sensitive Forms lookup 28 subtable" macron.case
Substitution2: "'smcp' Lowercase to Small Capitals lookup 27 subtable" macron.sc
Substitution2: "'c2sc' Capitals to Small Capitals lookup 26 subtable" macron.sc
AlternateSubs2: "'aalt' Access All Alternates lookup 1 subtable" macron.sc macron.case
EndChar

StartChar: acute
Encoding: 180 180 1250
Width: 275
Flags: MW
HStem: 645 137
VStem: 30 214<679 730>
LayerCount: 2
Fore
SplineSet
244 730 m 1
 49 645 l 1
 30 679 l 1
 218 782 l 1
 244 730 l 1
EndSplineSet
Substitution2: "'case' Case-Sensitive Forms lookup 25 subtable" acute.case
Substitution2: "'smcp' Lowercase to Small Capitals lookup 24 subtable" acute.sc
Substitution2: "'c2sc' Capitals to Small Capitals lookup 23 subtable" acute.sc
Substitution2: "'locl' Localized Forms in Latin lookup 7 subtable" acute.loclPLK
AlternateSubs2: "'aalt' Access All Alternates lookup 1 subtable" acute.loclPLK acute.sc acute.case
EndChar
StartChar: uni00B5
Encoding: 181 181 2262
Width: 585
GlyphClass: 2
Flags: MW
HStem: -203 21G<106 106> -197 21G<164 164> -11 51<235.5 293 235.5 299.5> -2 21G<499 499> 503 20G<106 164 164 164 414 472 472 472>
VStem: 106 58<-197 -80 109.5 150 150 523> 414 58<157 177 177 523>
LayerCount: 2
Back
Fore
SplineSet
499 -2 m 1x5e
 446 -9 l 1
 430 31 424 57 420 102 c 1
 387 43 337 -11 262 -11 c 0
 206 -11 173 12 153 52 c 1
 161 10 164 -25 164 -80 c 2
 164 -197 l 1x6e
 106 -203 l 1
 106 523 l 1
 164 523 l 1
 164 150 l 2
 164 69 209 40 262 40 c 0xae
 324 40 375 80 414 157 c 1
 414 523 l 1
 472 523 l 1
 472 177 l 2
 472 99 483 45 499 -2 c 1x5e
EndSplineSet
EndChar
StartChar: paragraph
Encoding: 182 182 2374
Width: 708
GlyphClass: 2
Flags: MW
HStem: -206 21G<321 321 503 503> -197 21G<375 375 557 557> 636 49
VStem: 321 54<-197 294 294 294> 503 54<-197 636 636 636>
LayerCount: 2
Back
Fore
SplineSet
333 684 m 2x78
 557 685 l 1
 557 -197 l 1x78
 503 -206 l 1xb8
 503 636 l 1
 375 636 l 1
 375 -197 l 1x78
 321 -206 l 1xb8
 321 294 l 1
 160 300 101 384 101 489 c 0
 101 614 187 684 333 684 c 2x78
EndSplineSet
EndChar
StartChar: cedilla
Encoding: 184 184 2527
Width: 245
Flags: MW
HStem: -227 42<96 124 96 138.5> -206 21G -96 32<75 123>
VStem: 80 43 164 51<-156 -125.5>
LayerCount: 2
Back
Fore
SplineSet
123 16 m 1x78
 123 -64 l 1
 188 -69 215 -99 215 -140 c 0
 215 -197 167 -227 110 -227 c 0xb8
 75 -227 48 -218 30 -206 c 1x78
 48 -170 l 1
 64 -179 83 -185 109 -185 c 0xb8
 139 -185 164 -172 164 -140 c 0
 164 -111 138 -96 75 -96 c 1
 85 16 l 1
 123 16 l 1x78
EndSplineSet
Substitution2: "Single Substitution lookup 41 subtable" cedilla.case
Substitution2: "'case' Case-Sensitive Forms lookup 28 subtable" cedilla.case
Substitution2: "'smcp' Lowercase to Small Capitals lookup 27 subtable" cedilla.sc
Substitution2: "'c2sc' Capitals to Small Capitals lookup 26 subtable" cedilla.sc
AlternateSubs2: "'aalt' Access All Alternates lookup 1 subtable" cedilla.sc cedilla.case
EndChar
StartChar: guillemotright
Encoding: 187 187 2176
Width: 546
Flags: MW
HStem: 56 464<107 107 107 311>
VStem: 71 403<80 307 268 495>
LayerCount: 2
Back
Fore
SplineSet
311 520 m 1
 474 307 l 1
 474 268 l 1
 311 56 l 1
 275 80 l 1
 412 288 l 1
 275 495 l 1
 311 520 l 1
107 520 m 1
 271 307 l 1
 271 268 l 1
 107 56 l 1
 71 80 l 1
 209 288 l 1
 71 495 l 1
 107 520 l 1
EndSplineSet
Substitution2: "'case' Case-Sensitive Forms lookup 28 subtable" guillemotright.case
Substitution2: "'aalt' Access All Alternates lookup 0 subtable" guillemotright.case
EndChar
StartChar: Agrave
Encoding: 192 192 23
Width: 565
GlyphClass: 2
Flags: MW
HStem: 0 21G<16 77 16 16 485 548 485 485> 187 51<153 409 153 425 137 409> 636 49<282 282>
VStem: 16 532<0 0>
AnchorPoint: "Anchor-14" 0 0 basechar 0
AnchorPoint: "Anchor-13" 0 0 basechar 0
AnchorPoint: "Anchor-12" 284 888 basechar 0
AnchorPoint: "Anchor-11" 540 0 basechar 0
AnchorPoint: "Anchor-10" 283 0 basechar 0
LayerCount: 2
Back
Fore
SplineSet
385 792 m 1
 369 758 l 1
 171 836 l 1
 197 888 l 1
 385 792 l 1
485 0 m 1
 425 187 l 1
 137 187 l 1
 77 0 l 1
 16 0 l 1
 245 685 l 1
 320 685 l 1
 548 0 l 1
 485 0 l 1
153 238 m 1
 409 238 l 1
 282 636 l 1
 153 238 l 1
EndSplineSet
Substitution2: "'c2sc' Capitals to Small Capitals lookup 26 subtable" agrave.sc
Substitution2: "'aalt' Access All Alternates lookup 0 subtable" agrave.sc
Position2: "'cpsp' Capital Spacing lookup 0 subtable" dx=5 dy=0 dh=10 dv=0
EndChar
StartChar: Acircumflex
Encoding: 194 194 11
Width: 565
GlyphClass: 2
Flags: MW
HStem: 0 21G<16 77 16 16 485 548 485 485> 187 51<153 409 153 425 137 409> 636 49<282 282>
VStem: 16 532<0 0>
AnchorPoint: "Anchor-14" 0 0 basechar 0
AnchorPoint: "Anchor-13" 379 755 basechar 0
AnchorPoint: "Anchor-12" 282 894 basechar 0
AnchorPoint: "Anchor-11" 540 0 basechar 0
AnchorPoint: "Anchor-10" 283 0 basechar 0
LayerCount: 2
Back
Fore
SplineSet
282 842 m 1
 160 762 l 1
 134 792 l 1
 264 894 l 1
 300 894 l 1
 429 792 l 1
 403 762 l 1
 282 842 l 1
485 0 m 1
 425 187 l 1
 137 187 l 1
 77 0 l 1
 16 0 l 1
 245 685 l 1
 320 685 l 1
 548 0 l 1
 485 0 l 1
153 238 m 1
 409 238 l 1
 282 636 l 1
 153 238 l 1
EndSplineSet
Substitution2: "'c2sc' Capitals to Small Capitals lookup 26 subtable" acircumflex.sc
Substitution2: "'aalt' Access All Alternates lookup 0 subtable" acircumflex.sc
Position2: "'cpsp' Capital Spacing lookup 0 subtable" dx=5 dy=0 dh=10 dv=0
EndChar
StartChar: Atilde
Encoding: 195 195 32
Width: 565
GlyphClass: 2
Flags: MW
HStem: 0 21G<16 77 16 16 485 548 485 485> 187 51<153 409 153 425 137 409> 636 49<282 282> 792 47<321.5 351.5 321.5 359> 838 46<212.5 241>
VStem: 16 532<0 0>
AnchorPoint: "Anchor-14" 0 0 basechar 0
AnchorPoint: "Anchor-13" 0 0 basechar 0
AnchorPoint: "Anchor-12" 285 884 basechar 0
AnchorPoint: "Anchor-11" 540 0 basechar 0
AnchorPoint: "Anchor-10" 283 0 basechar 0
LayerCount: 2
Back
Fore
SplineSet
224 838 m 0xec
 201 838 186 825 168 798 c 1
 132 816 l 1
 154 856 184 884 224 884 c 0xec
 271 884 302 839 341 839 c 0
 362 839 377 851 397 882 c 1
 433 864 l 1
 409 814 377 792 341 792 c 0xf4
 290 792 258 838 224 838 c 0xec
485 0 m 1xf4
 425 187 l 1
 137 187 l 1
 77 0 l 1
 16 0 l 1
 245 685 l 1
 320 685 l 1
 548 0 l 1
 485 0 l 1xf4
153 238 m 1
 409 238 l 1
 282 636 l 1
 153 238 l 1
EndSplineSet
Substitution2: "'c2sc' Capitals to Small Capitals lookup 26 subtable" atilde.sc
Substitution2: "'aalt' Access All Alternates lookup 0 subtable" atilde.sc
Position2: "'cpsp' Capital Spacing lookup 0 subtable" dx=5 dy=0 dh=10 dv=0
EndChar

StartChar: Aring
Encoding: 197 197 9
Width: 565
GlyphClass: 2
Flags: MW
HStem: 0 21G<16 77 16 16 485 485 485 548> 187 51<154 409 154 425 137 409> 636 49<282 282> 759 36<265 300 265 312> 911 36<265 300.5>
VStem: 184 43<834.5 871 834.5 880> 338 43<834.5 871>
AnchorPoint: "Anchor-11" 0 0 basechar 0
AnchorPoint: "Anchor-10" 156 685 basechar 0
AnchorPoint: "Anchor-9" 283 685 basechar 0
AnchorPoint: "Anchor-8" 540 0 basechar 0
LayerCount: 2
Fore
SplineSet
283 759 m 0
 224 759 184 798 184 853 c 0
 184 907 224 947 283 947 c 0
 341 947 381 907 381 853 c 0
 381 798 341 759 283 759 c 0
283 911 m 0
 247 911 227 889 227 853 c 0
 227 816 247 795 283 795 c 0
 317 795 338 816 338 853 c 0
 338 889 318 911 283 911 c 0
425 187 m 1
 137 187 l 1
 77 0 l 1
 16 0 l 1
 245 685 l 1
 320 685 l 1
 548 0 l 1
 485 0 l 1
 425 187 l 1
409 238 m 1
 282 636 l 1
 154 238 l 1
 409 238 l 1
EndSplineSet
Substitution2: "'c2sc' Capitals to Small Capitals lookup 23 subtable" aring.sc
Substitution2: "'aalt' Access All Alternates lookup 0 subtable" aring.sc
Position2: "'cpsp' Capital Spacing lookup 0 subtable" dx=5 dy=0 dh=10 dv=0
EndChar
StartChar: Ccedilla
Encoding: 199 199 47
Width: 550
GlyphClass: 2
Flags: MW
HStem: -227 42<332 360 332 374.5> -206 21G -96 32<311 359> -10 52<319 319 359 359> 645 51<287.5 375>
VStem: 66 63<239 452 239 460> 315 44 400 51<-156 -125.5>
AnchorPoint: "Anchor-14" 334 345 basechar 0
AnchorPoint: "Anchor-13" 0 0 basechar 0
AnchorPoint: "Anchor-12" 344 685 basechar 0
AnchorPoint: "Anchor-11" 0 0 basechar 0
AnchorPoint: "Anchor-10" 361 -227 basechar 0
LayerCount: 2
Back
Fore
SplineSet
359 -64 m 1x7f
 424 -69 451 -99 451 -140 c 0
 451 -197 403 -227 346 -227 c 0xbf
 311 -227 284 -218 266 -206 c 1x7f
 284 -170 l 1
 300 -179 319 -185 345 -185 c 0xbf
 375 -185 400 -172 400 -140 c 0
 400 -111 374 -96 311 -96 c 1
 319 -10 l 1
 172 2 66 124 66 343 c 0
 66 577 191 696 343 696 c 0
 424 696 470 673 519 633 c 1
 487 593 l 1
 441 629 403 645 347 645 c 0
 228 645 129 561 129 343 c 0
 129 135 224 42 344 42 c 0
 415 42 455 68 495 100 c 1
 527 60 l 1
 489 24 435 -7 359 -10 c 1
 359 -64 l 1x7f
EndSplineSet
Substitution2: "'c2sc' Capitals to Small Capitals lookup 26 subtable" ccedilla.sc
Substitution2: "'aalt' Access All Alternates lookup 0 subtable" ccedilla.sc
Position2: "'cpsp' Capital Spacing lookup 0 subtable" dx=5 dy=0 dh=10 dv=0
EndChar
StartChar: Egrave
Encoding: 200 200 82
Width: 512
GlyphClass: 2
Flags: MW
HStem: 0 50<171 466 171 466> 330 50<171 414 171 414> 635 50<171 452 171 171>
VStem: 111 60<50 330 380 635>
AnchorPoint: "Anchor-14" 0 0 basechar 0
AnchorPoint: "Anchor-13" 0 0 basechar 0
AnchorPoint: "Anchor-12" 290 888 basechar 0
AnchorPoint: "Anchor-11" 444 0 basechar 0
AnchorPoint: "Anchor-10" 287 0 basechar 0
LayerCount: 2
Back
Fore
SplineSet
203 888 m 1
 391 792 l 1
 375 758 l 1
 177 836 l 1
 203 888 l 1
459 685 m 1
 452 635 l 1
 171 635 l 1
 171 380 l 1
 414 380 l 1
 414 330 l 1
 171 330 l 1
 171 50 l 1
 466 50 l 1
 466 0 l 1
 111 0 l 1
 111 685 l 1
 459 685 l 1
EndSplineSet
Substitution2: "'c2sc' Capitals to Small Capitals lookup 26 subtable" egrave.sc
Substitution2: "'aalt' Access All Alternates lookup 0 subtable" egrave.sc
Position2: "'cpsp' Capital Spacing lookup 0 subtable" dx=5 dy=0 dh=10 dv=0
EndChar

StartChar: Eacute
Encoding: 201 201 25
Width: 512
GlyphClass: 2
Flags: MW
HStem: 0 50<171 466 171 466> 330 50<171 414 171 414> 635 50<171 452 171 171>
VStem: 111 60<50 330 380 635>
AnchorPoint: "Anchor-11" 287 0 basechar 0
AnchorPoint: "Anchor-10" 90 685 basechar 0
AnchorPoint: "Anchor-9" 289 685 basechar 0
AnchorPoint: "Anchor-8" 444 0 basechar 0
LayerCount: 2
Fore
SplineSet
400 836 m 1
 202 758 l 1
 186 792 l 1
 373 888 l 1
 400 836 l 1
452 635 m 1
 171 635 l 1
 171 380 l 1
 414 380 l 1
 414 330 l 1
 171 330 l 1
 171 50 l 1
 466 50 l 1
 466 0 l 1
 111 0 l 1
 111 685 l 1
 459 685 l 1
 452 635 l 1
EndSplineSet
Substitution2: "'c2sc' Capitals to Small Capitals lookup 23 subtable" eacute.sc
Substitution2: "'aalt' Access All Alternates lookup 0 subtable" eacute.sc
Position2: "'cpsp' Capital Spacing lookup 0 subtable" dx=5 dy=0 dh=10 dv=0
EndChar
StartChar: Ecircumflex
Encoding: 202 202 72
Width: 512
GlyphClass: 2
Flags: MW
HStem: 0 50<171 466 171 466> 330 50<171 414 171 414> 635 50<171 452 171 171>
VStem: 111 60<50 330 380 635>
AnchorPoint: "Anchor-14" 0 0 basechar 0
AnchorPoint: "Anchor-13" 386 755 basechar 0
AnchorPoint: "Anchor-12" 289 894 basechar 0
AnchorPoint: "Anchor-11" 444 0 basechar 0
AnchorPoint: "Anchor-10" 287 0 basechar 0
LayerCount: 2
Back
Fore
SplineSet
410 762 m 1
 289 842 l 1
 167 762 l 1
 141 792 l 1
 271 894 l 1
 307 894 l 1
 436 792 l 1
 410 762 l 1
459 685 m 1
 452 635 l 1
 171 635 l 1
 171 380 l 1
 414 380 l 1
 414 330 l 1
 171 330 l 1
 171 50 l 1
 466 50 l 1
 466 0 l 1
 111 0 l 1
 111 685 l 1
 459 685 l 1
EndSplineSet
Substitution2: "'c2sc' Capitals to Small Capitals lookup 26 subtable" ecircumflex.sc
Substitution2: "'aalt' Access All Alternates lookup 0 subtable" ecircumflex.sc
Position2: "'cpsp' Capital Spacing lookup 0 subtable" dx=5 dy=0 dh=10 dv=0
EndChar
StartChar: Igrave
Encoding: 204 204 129
Width: 282
GlyphClass: 2
Flags: MW
HStem: 0 21G<111 171 111 111> 665 20G<111 171 171 171>
VStem: 111 60<0 685 0 685>
AnchorPoint: "Anchor-14" 0 0 basechar 0
AnchorPoint: "Anchor-13" 0 0 basechar 0
AnchorPoint: "Anchor-12" 142 888 basechar 0
AnchorPoint: "Anchor-11" 181 0 basechar 0
AnchorPoint: "Anchor-10" 141 0 basechar 0
LayerCount: 2
Back
Fore
SplineSet
55 888 m 1
 243 792 l 1
 227 758 l 1
 29 836 l 1
 55 888 l 1
171 685 m 1
 171 0 l 1
 111 0 l 1
 111 685 l 1
 171 685 l 1
EndSplineSet
Substitution2: "'c2sc' Capitals to Small Capitals lookup 26 subtable" igrave.sc
Substitution2: "'aalt' Access All Alternates lookup 0 subtable" igrave.sc
Position2: "'cpsp' Capital Spacing lookup 0 subtable" dx=5 dy=0 dh=10 dv=0
EndChar

StartChar: Iacute
Encoding: 205 205 45
Width: 282
GlyphClass: 2
Flags: MW
HStem: 0 21G<111 171 111 111> 665 20G<111 171 171 171>
VStem: 111 60<0 685>
AnchorPoint: "Anchor-11" 0 0 basechar 0
AnchorPoint: "Anchor-10" 90 685 basechar 0
AnchorPoint: "Anchor-9" 141 685 basechar 0
AnchorPoint: "Anchor-8" 181 0 basechar 0
LayerCount: 2
Fore
SplineSet
252 836 m 1
 54 758 l 1
 38 792 l 1
 225 888 l 1
 252 836 l 1
171 0 m 1
 111 0 l 1
 111 685 l 1
 171 685 l 1
 171 0 l 1
EndSplineSet
Substitution2: "'c2sc' Capitals to Small Capitals lookup 23 subtable" iacute.sc
Substitution2: "'aalt' Access All Alternates lookup 0 subtable" iacute.sc
Position2: "'cpsp' Capital Spacing lookup 0 subtable" dx=5 dy=0 dh=10 dv=0
EndChar

StartChar: Idieresis
Encoding: 207 207 48
Width: 282
GlyphClass: 2
Flags: MW
HStem: 0 21G<111 171 111 111> 665 20G<111 171 171 171> 789 79<34.5 57.5 223.5 246.5>
VStem: 6 80<817 839> 111 60<0 685> 195 80<817 839>
AnchorPoint: "Anchor-11" 0 0 basechar 0
AnchorPoint: "Anchor-10" 90 685 basechar 0
AnchorPoint: "Anchor-9" 141 777 basechar 0
AnchorPoint: "Anchor-8" 181 0 basechar 0
LayerCount: 2
Fore
SplineSet
46 868 m 0
 69 868 86 850 86 828 c 0
 86 806 69 789 46 789 c 0
 23 789 6 806 6 828 c 0
 6 850 23 868 46 868 c 0
235 868 m 0
 258 868 275 850 275 828 c 0
 275 806 258 789 235 789 c 0
 212 789 195 806 195 828 c 0
 195 850 212 868 235 868 c 0
171 0 m 1xe8
 111 0 l 1
 111 685 l 1
 171 685 l 1
 171 0 l 1xe8
EndSplineSet
Substitution2: "'c2sc' Capitals to Small Capitals lookup 23 subtable" idieresis.sc
Substitution2: "'aalt' Access All Alternates lookup 0 subtable" idieresis.sc
Position2: "'cpsp' Capital Spacing lookup 0 subtable" dx=5 dy=0 dh=10 dv=0
EndChar

StartChar: Ntilde
Encoding: 209 209 70
Width: 673
GlyphClass: 2
Flags: MW
HStem: 0 21G<111 168 111 111 483 562 483 483> 0 66<513 513 513 562 483 513> 619 66<160 160> 665 20G<111 188 188 188 505 562 562 562> 792 47<385 415 385 424> 838 46<273.5 304.5>
VStem: 111 57<0 383 0 685> 505 57<269 685>
AnchorPoint: "Anchor-11" 337 0 basechar 0
AnchorPoint: "Anchor-10" 0 0 basechar 0
AnchorPoint: "Anchor-9" 345 685 basechar 0
AnchorPoint: "Anchor-8" 0 0 basechar 0
LayerCount: 2
Fore
SplineSet
408 792 m 0x9b
 350 792 322 838 287 838 c 0
 260 838 249 825 231 798 c 1
 195 816 l 1
 217 856 246 884 287 884 c 0x97
 333 884 365 839 405 839 c 0
 425 839 440 851 460 882 c 1
 496 864 l 1
 472 814 440 792 408 792 c 0x9b
562 0 m 1x97
 483 0 l 1
 160 619 l 1xa7
 163 572 168 506 168 383 c 2
 168 0 l 1
 111 0 l 1
 111 685 l 1
 188 685 l 1
 513 66 l 1x57
 511 95 505 180 505 269 c 2
 505 685 l 1
 562 685 l 1
 562 0 l 1x97
EndSplineSet
Substitution2: "'c2sc' Capitals to Small Capitals lookup 23 subtable" ntilde.sc
Substitution2: "'aalt' Access All Alternates lookup 0 subtable" ntilde.sc
Position2: "'cpsp' Capital Spacing lookup 0 subtable" dx=5 dy=0 dh=10 dv=0
EndChar

StartChar: Ograve
Encoding: 210 210 76
Width: 691
GlyphClass: 2
Flags: MW
HStem: -11 51<281.5 412 281.5 430> 645 51<280.5 411>
VStem: 66 63<238.5 445 238.5 454> 562 63<239 446>
AnchorPoint: "Anchor-11" 0 0 basechar 0
AnchorPoint: "Anchor-10" 108 685 basechar 0
AnchorPoint: "Anchor-9" 339 685 basechar 0
AnchorPoint: "Anchor-8" 0 0 basechar 0
LayerCount: 2
Fore
SplineSet
438 792 m 1
 422 758 l 1
 224 836 l 1
 250 888 l 1
 438 792 l 1
345 696 m 0
 512 696 625 573 625 342 c 0
 625 117 515 -11 345 -11 c 0
 180 -11 66 113 66 341 c 0
 66 567 181 696 345 696 c 0
345 645 m 0
 216 645 129 549 129 341 c 0
 129 136 218 40 345 40 c 0
 479 40 562 136 562 342 c 0
 562 550 477 645 345 645 c 0
EndSplineSet
Substitution2: "'c2sc' Capitals to Small Capitals lookup 23 subtable" ograve.sc
Substitution2: "'aalt' Access All Alternates lookup 0 subtable" ograve.sc
Position2: "'cpsp' Capital Spacing lookup 0 subtable" dx=5 dy=0 dh=10 dv=0
EndChar

StartChar: Otilde
Encoding: 213 213 81
Width: 691
GlyphClass: 2
Flags: MW
HStem: -11 51<281.5 412 281.5 430> 645 51<280.5 411> 792 47<378 408 378 417> 838 46<266.5 297.5>
VStem: 66 63<238.5 445 238.5 454> 562 63<239 446>
AnchorPoint: "Anchor-11" 0 0 basechar 0
AnchorPoint: "Anchor-10" 108 685 basechar 0
AnchorPoint: "Anchor-9" 339 685 basechar 0
AnchorPoint: "Anchor-8" 0 0 basechar 0
LayerCount: 2
Fore
SplineSet
401 792 m 0xec
 343 792 315 838 280 838 c 0
 253 838 242 825 224 798 c 1
 188 816 l 1
 210 856 239 884 280 884 c 0xdc
 326 884 358 839 398 839 c 0
 418 839 433 851 453 882 c 1
 489 864 l 1
 465 814 433 792 401 792 c 0xec
345 696 m 0xdc
 512 696 625 573 625 342 c 0
 625 117 515 -11 345 -11 c 0
 180 -11 66 113 66 341 c 0
 66 567 181 696 345 696 c 0xdc
345 645 m 0
 216 645 129 549 129 341 c 0
 129 136 218 40 345 40 c 0
 479 40 562 136 562 342 c 0
 562 550 477 645 345 645 c 0
EndSplineSet
Substitution2: "'c2sc' Capitals to Small Capitals lookup 23 subtable" otilde.sc
Substitution2: "'aalt' Access All Alternates lookup 0 subtable" otilde.sc
Position2: "'cpsp' Capital Spacing lookup 0 subtable" dx=5 dy=0 dh=10 dv=0
EndChar

StartChar: multiply
Encoding: 215 215 1108
Width: 493
Flags: MW
HStem: 144 327<122 122 122 371>
VStem: 85 324<180 180 180 434>
LayerCount: 2
Fore
SplineSet
409 434 m 1
 282 307 l 1
 409 180 l 1
 371 144 l 1
 246 271 l 1
 122 144 l 1
 85 180 l 1
 210 307 l 1
 85 434 l 1
 122 471 l 1
 246 343 l 1
 371 471 l 1
 409 434 l 1
EndSplineSet
Substitution2: "'onum' Oldstyle Figures lookup 22 subtable" multiply.osf
Substitution2: "'tnum' Tabular Numbers lookup 21 subtable" multiply.tf
AlternateSubs2: "'aalt' Access All Alternates lookup 1 subtable" multiply.tf multiply.osf
EndChar
StartChar: Oslash
Encoding: 216 216 212
Width: 691
GlyphClass: 2
Flags: MW
HStem: -11 51<333.5 412 333.5 430> -1 21G<268 268> 645 51<280.5 357> 667 20G<421 421>
VStem: 66 63<268 445 268 454> 562 63<239 417>
AnchorPoint: "Anchor-14" 0 0 basechar 0
AnchorPoint: "Anchor-13" 0 0 basechar 0
AnchorPoint: "Anchor-12" 339 697 basechar 0
AnchorPoint: "Anchor-11" 0 0 basechar 0
AnchorPoint: "Anchor-10" 0 0 basechar 0
LayerCount: 2
Back
Fore
SplineSet
469 669 m 1x9c
 565 621 625 510 625 342 c 0
 625 117 515 -11 345 -11 c 0xac
 318 -11 292 -7 268 -1 c 1
 235 -120 l 1
 182 -105 l 1
 220 18 l 1
 125 66 66 177 66 341 c 0
 66 567 181 696 345 696 c 0x6c
 372 696 397 693 421 687 c 1
 456 810 l 1
 509 796 l 1
 469 669 l 1x9c
129 341 m 0xac
 129 195 172 107 241 66 c 1
 410 636 l 1
 390 642 369 645 345 645 c 0
 216 645 129 549 129 341 c 0xac
345 40 m 0
 479 40 562 136 562 342 c 0
 562 492 520 581 448 621 c 1
 279 50 l 1
 300 43 322 40 345 40 c 0
EndSplineSet
Substitution2: "'c2sc' Capitals to Small Capitals lookup 26 subtable" oslash.sc
Substitution2: "'aalt' Access All Alternates lookup 0 subtable" oslash.sc
Position2: "'cpsp' Capital Spacing lookup 0 subtable" dx=5 dy=0 dh=10 dv=0
EndChar
StartChar: Ugrave
Encoding: 217 217 275
Width: 652
GlyphClass: 2
Flags: MW
HStem: -11 52<268.5 383.5 268.5 401> 665 20G<101 161 161 161 490 551 551 551>
VStem: 101 60<214 219 219 685> 490 61<219 685>
AnchorPoint: "Anchor-14" 0 0 basechar 0
AnchorPoint: "Anchor-13" 561 685 basechar 0
AnchorPoint: "Anchor-12" 327 888 basechar 0
AnchorPoint: "Anchor-11" 416 0 basechar 0
AnchorPoint: "Anchor-10" 326 0 basechar 0
LayerCount: 2
Back
Fore
SplineSet
240 888 m 1
 428 792 l 1
 412 758 l 1
 214 836 l 1
 240 888 l 1
551 685 m 1
 551 214 l 2
 551 82 476 -11 326 -11 c 0
 174 -11 101 82 101 214 c 2
 101 685 l 1
 161 685 l 1
 161 219 l 2
 161 108 211 41 326 41 c 0
 441 41 490 109 490 219 c 2
 490 685 l 1
 551 685 l 1
EndSplineSet
Substitution2: "'c2sc' Capitals to Small Capitals lookup 26 subtable" ugrave.sc
Substitution2: "'aalt' Access All Alternates lookup 0 subtable" ugrave.sc
Position2: "'cpsp' Capital Spacing lookup 0 subtable" dx=5 dy=0 dh=10 dv=0
EndChar

StartChar: Ucircumflex
Encoding: 219 219 104
Width: 652
GlyphClass: 2
Flags: MW
HStem: -11 52<268.5 383.5 268.5 401> 665 20G<101 161 161 161 490 551 551 551>
VStem: 101 60<214 219 219 685> 490 61<219 685>
AnchorPoint: "Anchor-11" 0 0 basechar 0
AnchorPoint: "Anchor-10" 0 0 basechar 0
AnchorPoint: "Anchor-9" 328 685 basechar 0
AnchorPoint: "Anchor-8" 416 0 basechar 0
LayerCount: 2
Fore
SplineSet
328 842 m 1
 206 762 l 1
 180 792 l 1
 310 894 l 1
 346 894 l 1
 475 792 l 1
 449 762 l 1
 328 842 l 1
551 214 m 2
 551 82 476 -11 326 -11 c 0
 173 -11 101 82 101 214 c 2
 101 685 l 1
 161 685 l 1
 161 219 l 2
 161 108 211 41 326 41 c 0
 441 41 490 109 490 219 c 2
 490 685 l 1
 551 685 l 1
 551 214 l 2
EndSplineSet
Substitution2: "'c2sc' Capitals to Small Capitals lookup 23 subtable" ucircumflex.sc
Substitution2: "'aalt' Access All Alternates lookup 0 subtable" ucircumflex.sc
Position2: "'cpsp' Capital Spacing lookup 0 subtable" dx=5 dy=0 dh=10 dv=0
EndChar

StartChar: Udieresis
Encoding: 220 220 105
Width: 652
GlyphClass: 2
Flags: MW
HStem: -11 52<268.5 383.5 268.5 401> 665 20G<101 161 161 161 490 551 551 551> 789 79<221.5 244.5 410.5 433.5>
VStem: 101 60<214 219 219 685> 193 80<817 839> 382 80<817 839> 490 61<219 685>
AnchorPoint: "Anchor-11" 0 0 basechar 0
AnchorPoint: "Anchor-10" 0 0 basechar 0
AnchorPoint: "Anchor-9" 328 777 basechar 0
AnchorPoint: "Anchor-8" 416 0 basechar 0
LayerCount: 2
Fore
SplineSet
233 868 m 0
 256 868 273 850 273 828 c 0
 273 806 256 789 233 789 c 0
 210 789 193 806 193 828 c 0
 193 850 210 868 233 868 c 0
422 868 m 0xfe
 445 868 462 850 462 828 c 0
 462 806 445 789 422 789 c 0
 399 789 382 806 382 828 c 0
 382 850 399 868 422 868 c 0xfe
551 214 m 2xfa
 551 82 476 -11 326 -11 c 0
 173 -11 101 82 101 214 c 2
 101 685 l 1
 161 685 l 1
 161 219 l 2
 161 108 211 41 326 41 c 0
 441 41 490 109 490 219 c 2
 490 685 l 1
 551 685 l 1
 551 214 l 2xfa
EndSplineSet
Substitution2: "'c2sc' Capitals to Small Capitals lookup 23 subtable" udieresis.sc
Substitution2: "'aalt' Access All Alternates lookup 0 subtable" udieresis.sc
Position2: "'cpsp' Capital Spacing lookup 0 subtable" dx=5 dy=0 dh=10 dv=0
EndChar
StartChar: Yacute
Encoding: 221 221 303
Width: 523
GlyphClass: 2
Flags: MW
HStem: 0 21G<232 292 232 232> 665 20G<13 80 80 80 445 509 509 509>
VStem: 232 60<0 267 267 267>
AnchorPoint: "Anchor-14" 0 0 basechar 0
AnchorPoint: "Anchor-13" 0 0 basechar 0
AnchorPoint: "Anchor-12" 263 888 basechar 0
AnchorPoint: "Anchor-11" 0 0 basechar 0
AnchorPoint: "Anchor-10" 262 0 basechar 0
LayerCount: 2
Back
Fore
SplineSet
341 888 m 1
 368 836 l 1
 170 758 l 1
 154 792 l 1
 341 888 l 1
509 685 m 1
 292 268 l 1
 292 0 l 1
 232 0 l 1
 232 267 l 1
 13 685 l 1
 80 685 l 1
 264 320 l 1
 445 685 l 1
 509 685 l 1
EndSplineSet
Substitution2: "'c2sc' Capitals to Small Capitals lookup 26 subtable" yacute.sc
Substitution2: "'aalt' Access All Alternates lookup 0 subtable" yacute.sc
Position2: "'cpsp' Capital Spacing lookup 0 subtable" dx=5 dy=0 dh=10 dv=0
EndChar

StartChar: Thorn
Encoding: 222 222 84
Width: 570
GlyphClass: 2
Flags: MW
HStem: 0 21G<111 171 111 111> 136 50<171 269 171 269> 513 50<171 271 171 272> 513 172<111 271 111 171>
VStem: 111 60<0 136 0 186 186 513 563 685> 462 63<288.5 414>
AnchorPoint: "Anchor-11" 0 0 basechar 0
AnchorPoint: "Anchor-10" 0 0 basechar 0
AnchorPoint: "Anchor-9" -86 -292 basechar 0
AnchorPoint: "Anchor-8" 0 0 basechar 0
LayerCount: 2
Fore
SplineSet
272 563 m 2xec
 431 563 525 500 525 356 c 0
 525 196 418 136 269 136 c 2
 171 136 l 1
 171 0 l 1
 111 0 l 1
 111 685 l 1
 171 685 l 1xdc
 171 563 l 1
 272 563 l 2xec
269 186 m 2
 383 186 462 222 462 355 c 0
 462 473 391 513 271 513 c 2
 171 513 l 1
 171 186 l 1
 269 186 l 2
EndSplineSet
Substitution2: "'c2sc' Capitals to Small Capitals lookup 23 subtable" thorn.sc
Substitution2: "'aalt' Access All Alternates lookup 0 subtable" thorn.sc
Position2: "'cpsp' Capital Spacing lookup 0 subtable" dx=5 dy=0 dh=10 dv=0
EndChar
StartChar: germandbls
Encoding: 223 223 634
Width: 582
GlyphClass: 2
Flags: MW
HStem: -11 49<349 398.5 349 418> 0 21G<106 164 106 106> 696 47<255 324.5>
VStem: 106 58<0 538 0 540 0 605.5> 286 55<381 457 381 464.5> 401 57<558.5 634.5> 474 60<117.5 231.5>
LayerCount: 2
Back
Fore
SplineSet
294 743 m 0x7e
 393 743 458 686 458 609 c 0xbe
 458 501 341 490 341 424 c 0
 341 338 534 331 534 155 c 0
 534 55 465 -11 371 -11 c 0
 327 -11 299 -1 275 12 c 1
 293 53 l 1
 310 45 331 38 367 38 c 0
 430 38 474 79 474 156 c 0xba
 474 307 286 305 286 421 c 0
 286 508 401 511 401 606 c 0
 401 663 356 696 293 696 c 0
 217 696 164 647 164 538 c 2
 164 0 l 1
 106 0 l 1
 106 540 l 2
 106 671 181 743 294 743 c 0x7e
EndSplineSet
Substitution2: "'smcp' Lowercase to Small Capitals lookup 27 subtable" germandbls.sc
Substitution2: "'aalt' Access All Alternates lookup 0 subtable" germandbls.sc
EndChar

StartChar: aacute
Encoding: 225 225 135
Width: 536
GlyphClass: 2
Flags: MW
HStem: -11 47<193.5 253> 272 43<273 282 282 373> 485 49<232.5 295.5>
VStem: 56 62<112 189.5 112 200> 373 58<128 272 272 272 315 365 365 368>
AnchorPoint: "Anchor-11" 0 0 basechar 0
AnchorPoint: "Anchor-10" 0 0 basechar 0
AnchorPoint: "Anchor-9" 258 523 basechar 0
AnchorPoint: "Anchor-8" 472 -11 basechar 0
LayerCount: 2
Fore
SplineSet
160 645 m 1
 141 679 l 1
 329 782 l 1
 355 730 l 1
 160 645 l 1
431 116 m 2
 431 58 447 41 475 30 c 1
 462 -11 l 1
 416 -2 389 21 381 77 c 1
 344 17 288 -11 218 -11 c 0
 117 -11 56 52 56 145 c 0
 56 255 139 315 273 315 c 2
 373 315 l 1
 373 365 l 2
 373 448 339 485 252 485 c 0
 210 485 162 474 110 455 c 1
 95 499 l 1
 153 522 205 534 260 534 c 0
 379 534 431 475 431 368 c 2
 431 116 l 2
228 36 m 0
 294 36 340 69 373 128 c 1
 373 272 l 1
 282 272 l 2
 177 272 118 231 118 148 c 0
 118 76 159 36 228 36 c 0
EndSplineSet
Substitution2: "'smcp' Lowercase to Small Capitals lookup 24 subtable" aacute.sc
Substitution2: "'aalt' Access All Alternates lookup 0 subtable" aacute.sc
EndChar
StartChar: atilde
Encoding: 227 227 366
Width: 536
GlyphClass: 2
Flags: MW
HStem: -11 47<193.5 253> 272 42<273 282 282 373> 485 49<232.5 295.5> 666 47<297.5 327.5 297.5 335> 670 20G<108 108> 712 46<188.5 217> 718 20G<409 409>
VStem: 56 62<112 189.5 112 200> 373 58<130 272 272 272 314 365 365 368>
AnchorPoint: "Anchor-14" 0 0 basechar 0
AnchorPoint: "Anchor-13" 0 0 basechar 0
AnchorPoint: "Anchor-12" 259 715 basechar 0
AnchorPoint: "Anchor-11" 472 -11 basechar 0
AnchorPoint: "Anchor-10" 258 0 basechar 0
LayerCount: 2
Back
Fore
SplineSet
200 712 m 0xed80
 177 712 162 699 144 672 c 1xeb80
 108 690 l 1
 130 730 160 758 200 758 c 0xed80
 247 758 278 713 317 713 c 0
 338 713 353 725 373 756 c 1
 409 738 l 1
 385 688 353 666 317 666 c 0xf180
 266 666 234 712 200 712 c 0xed80
431 116 m 2xeb80
 431 58 447 41 475 30 c 1
 462 -11 l 1
 416 -1 389 22 381 76 c 1
 343 18 288 -11 218 -11 c 0
 117 -11 56 52 56 145 c 0
 56 255 139 314 273 314 c 2
 373 314 l 1
 373 365 l 2
 373 448 339 485 252 485 c 0
 210 485 162 474 110 455 c 1
 95 499 l 1
 153 522 205 534 260 534 c 0
 379 534 431 475 431 368 c 2
 431 116 l 2xeb80
228 36 m 0
 295 36 341 69 373 130 c 1
 373 272 l 1
 282 272 l 2
 177 272 118 231 118 148 c 0
 118 76 159 36 228 36 c 0
EndSplineSet
Substitution2: "'smcp' Lowercase to Small Capitals lookup 27 subtable" atilde.sc
Substitution2: "'aalt' Access All Alternates lookup 0 subtable" atilde.sc
EndChar
StartChar: ae
Encoding: 230 230 368
Width: 849
GlyphClass: 2
Flags: MW
HStem: -11 47<194.5 259> 239 45<436 730 436 786 436 730> 272 43<275 283 283 375> 486 48<549.5 635.5>
VStem: 56 63<112 189.5 112 200> 375 61<239 272 239 272> 730 58<284 299 299 356>
AnchorPoint: "Anchor-14" 0 0 basechar 0
AnchorPoint: "Anchor-13" 0 0 basechar 0
AnchorPoint: "Anchor-12" 425 523 basechar 0
AnchorPoint: "Anchor-11" 0 0 basechar 0
AnchorPoint: "Anchor-10" 417 0 basechar 0
LayerCount: 2
Back
Fore
SplineSet
788 281 m 0xde
 788 265 787 249 786 239 c 1
 436 239 l 1xde
 444 97 510 38 599 38 c 0
 656 38 695 56 740 90 c 1
 768 53 l 1
 719 13 666 -11 596 -11 c 0
 511 -11 447 27 410 96 c 1
 356 18 298 -11 220 -11 c 0
 118 -11 56 52 56 145 c 0
 56 255 141 315 275 315 c 2
 375 315 l 1xbe
 375 365 l 2
 375 448 340 485 254 485 c 0
 211 485 164 474 112 455 c 1
 96 499 l 1
 154 522 206 534 261 534 c 0
 353 534 400 497 421 433 c 1
 456 498 511 534 588 534 c 0
 719 534 788 435 788 281 c 0xde
730 284 m 1
 730 299 l 2
 730 413 684 486 587 486 c 0
 504 486 442 425 436 284 c 1
 730 284 l 1
229 36 m 0
 295 36 343 68 391 141 c 1
 380 175 375 213 375 256 c 2
 375 272 l 1
 283 272 l 2xbe
 179 272 119 231 119 148 c 0
 119 76 160 36 229 36 c 0
EndSplineSet
Substitution2: "'smcp' Lowercase to Small Capitals lookup 27 subtable" ae.sc
Substitution2: "'aalt' Access All Alternates lookup 0 subtable" ae.sc
EndChar
StartChar: eacute
Encoding: 233 233 411
Width: 538
GlyphClass: 2
Flags: MW
HStem: -11 49<244 317.5 244 320.5> 239 45<126 420 125 475 126 126> 486 48<234.5 324.5>
VStem: 64 61<284 284 284 340.5> 420 57<284 299 299 356>
AnchorPoint: "Anchor-14" 0 0 basechar 0
AnchorPoint: "Anchor-13" 0 0 basechar 0
AnchorPoint: "Anchor-12" 277 782 basechar 0
AnchorPoint: "Anchor-11" 386 5 basechar 0
AnchorPoint: "Anchor-10" 289 0 basechar 0
LayerCount: 2
Back
Fore
SplineSet
377 730 m 1
 182 645 l 1
 163 679 l 1
 351 782 l 1
 377 730 l 1
477 281 m 0
 477 265 476 249 475 239 c 1
 126 239 l 1
 133 97 199 38 289 38 c 0
 346 38 384 56 430 90 c 1
 457 53 l 1
 408 13 355 -11 286 -11 c 0
 148 -11 64 89 64 257 c 0
 64 424 145 534 273 534 c 0
 409 534 477 435 477 281 c 0
420 284 m 1
 420 299 l 2
 420 413 374 486 275 486 c 0
 194 486 132 425 125 284 c 1
 420 284 l 1
EndSplineSet
Substitution2: "'smcp' Lowercase to Small Capitals lookup 27 subtable" eacute.sc
Substitution2: "'aalt' Access All Alternates lookup 0 subtable" eacute.sc
EndChar
StartChar: edieresis
Encoding: 235 235 422
Width: 538
GlyphClass: 2
Flags: MW
HStem: -11 49<244 317.5 244 320.5> 239 45<126 420 125 475 126 126> 486 48<234.5 324.5> 663 79<169.5 192.5 358.5 381.5>
VStem: 64 61<284 284 284 340.5> 141 80<691 713> 330 80<691 713> 420 57<284 299 299 356>
AnchorPoint: "Anchor-14" 0 0 basechar 0
AnchorPoint: "Anchor-13" 0 0 basechar 0
AnchorPoint: "Anchor-12" 278 742 basechar 0
AnchorPoint: "Anchor-11" 386 5 basechar 0
AnchorPoint: "Anchor-10" 289 0 basechar 0
LayerCount: 2
Back
Fore
SplineSet
181 663 m 0
 158 663 141 680 141 702 c 0
 141 724 158 742 181 742 c 0
 204 742 221 724 221 702 c 0
 221 680 204 663 181 663 c 0
370 663 m 0
 347 663 330 680 330 702 c 0
 330 724 347 742 370 742 c 0
 393 742 410 724 410 702 c 0
 410 680 393 663 370 663 c 0
477 281 m 0xf9
 477 265 476 249 475 239 c 1
 126 239 l 1
 133 97 199 38 289 38 c 0
 346 38 384 56 430 90 c 1
 457 53 l 1
 408 13 355 -11 286 -11 c 0
 148 -11 64 89 64 257 c 0
 64 424 145 534 273 534 c 0
 409 534 477 435 477 281 c 0xf9
420 284 m 1
 420 299 l 2
 420 413 374 486 275 486 c 0
 194 486 132 425 125 284 c 1
 420 284 l 1
EndSplineSet
Substitution2: "'smcp' Lowercase to Small Capitals lookup 27 subtable" edieresis.sc
Substitution2: "'aalt' Access All Alternates lookup 0 subtable" edieresis.sc
EndChar

StartChar: igrave
Encoding: 236 236 183
Width: 270
GlyphClass: 2
Flags: MW
HStem: 0 21G<106 164 106 106> 503 20G<106 164 164 164>
VStem: 106 58<0 523>
AnchorPoint: "Anchor-11" 0 0 basechar 0
AnchorPoint: "Anchor-10" 0 0 basechar 0
AnchorPoint: "Anchor-9" 135 523 basechar 0
AnchorPoint: "Anchor-8" 174 0 basechar 0
LayerCount: 2
Fore
SplineSet
249 679 m 1
 231 645 l 1
 35 730 l 1
 61 782 l 1
 249 679 l 1
164 0 m 1
 106 0 l 1
 106 523 l 1
 164 523 l 1
 164 0 l 1
EndSplineSet
Substitution2: "'smcp' Lowercase to Small Capitals lookup 24 subtable" igrave.sc
Substitution2: "'aalt' Access All Alternates lookup 0 subtable" igrave.sc
EndChar

StartChar: iacute
Encoding: 237 237 178
Width: 270
GlyphClass: 2
Flags: MW
HStem: 0 21G<106 164 106 106> 503 20G<106 164 164 164>
VStem: 106 58<0 523>
AnchorPoint: "Anchor-11" 0 0 basechar 0
AnchorPoint: "Anchor-10" 0 0 basechar 0
AnchorPoint: "Anchor-9" 135 523 basechar 0
AnchorPoint: "Anchor-8" 174 0 basechar 0
LayerCount: 2
Fore
SplineSet
232 730 m 1
 37 645 l 1
 18 679 l 1
 206 782 l 1
 232 730 l 1
164 0 m 1
 106 0 l 1
 106 523 l 1
 164 523 l 1
 164 0 l 1
EndSplineSet
Substitution2: "'smcp' Lowercase to Small Capitals lookup 24 subtable" iacute.sc
Substitution2: "'aalt' Access All Alternates lookup 0 subtable" iacute.sc
EndChar

StartChar: icircumflex
Encoding: 238 238 180
Width: 270
GlyphClass: 2
Flags: MW
HStem: 0 21G<106 164 106 106> 503 20G<106 164 164 164>
VStem: 106 58<0 523>
AnchorPoint: "Anchor-11" 0 0 basechar 0
AnchorPoint: "Anchor-10" 0 0 basechar 0
AnchorPoint: "Anchor-9" 135 523 basechar 0
AnchorPoint: "Anchor-8" 174 0 basechar 0
LayerCount: 2
Fore
SplineSet
-11 674 m 1
 118 779 l 1
 154 779 l 1
 284 674 l 1
 258 643 l 1
 136 728 l 1
 15 643 l 1
 -11 674 l 1
164 0 m 1
 106 0 l 1
 106 523 l 1
 164 523 l 1
 164 0 l 1
EndSplineSet
Substitution2: "'smcp' Lowercase to Small Capitals lookup 24 subtable" icircumflex.sc
Substitution2: "'aalt' Access All Alternates lookup 0 subtable" icircumflex.sc
EndChar
StartChar: idieresis
Encoding: 239 239 485
Width: 270
GlyphClass: 2
Flags: MW
HStem: 0 21G<106 164 106 106> 503 20G<106 164 164 164> 663 79<28.5 51.5 217.5 240.5>
VStem: 0 80<691 713> 106 58<0 523 0 523> 189 80<691 713>
AnchorPoint: "Anchor-14" 0 0 basechar 0
AnchorPoint: "Anchor-13" 0 0 basechar 0
AnchorPoint: "Anchor-12" 137 742 basechar 0
AnchorPoint: "Anchor-11" 174 0 basechar 0
AnchorPoint: "Anchor-10" 135 0 basechar 0
LayerCount: 2
Back
Fore
SplineSet
40 742 m 0
 63 742 80 724 80 702 c 0
 80 680 63 663 40 663 c 0
 17 663 0 680 0 702 c 0
 0 724 17 742 40 742 c 0
229 742 m 0
 252 742 269 724 269 702 c 0
 269 680 252 663 229 663 c 0
 206 663 189 680 189 702 c 0
 189 724 206 742 229 742 c 0
164 523 m 1xe8
 164 0 l 1
 106 0 l 1
 106 523 l 1
 164 523 l 1xe8
EndSplineSet
Substitution2: "'smcp' Lowercase to Small Capitals lookup 27 subtable" idieresis.sc
Substitution2: "'aalt' Access All Alternates lookup 0 subtable" idieresis.sc
EndChar
StartChar: eth
Encoding: 240 240 392
Width: 561
GlyphClass: 2
Flags: MW
HStem: -11 48<226.5 320.5 226.5 336.5> 421 47<218 293.5 194.5 299> 550 20G<170 170> 669 20G<286 286> 678 20G<128 128> 724 20G<141 141>
VStem: 64 60<171 285.5 171 293> 428 59<201.5 291.5>
AnchorPoint: "Anchor-14" 0 0 basechar 0
AnchorPoint: "Anchor-13" 0 0 basechar 0
AnchorPoint: "Anchor-12" 292 736 basechar 0
AnchorPoint: "Anchor-11" 0 0 basechar 0
AnchorPoint: "Anchor-10" 273 0 basechar 0
LayerCount: 2
Back
Fore
SplineSet
324 664 m 1xf7
 436 579 487 464 487 280 c 0
 487 90 400 -11 273 -11 c 0
 147 -11 64 81 64 233 c 0
 64 353 130 468 259 468 c 0
 328 468 380 438 421 388 c 1
 408 487 367 565 288 627 c 1
 212 551 l 1
 170 570 l 1
 250 653 l 1
 213 674 171 690 128 698 c 1xef
 141 744 l 1
 192 734 240 716 286 689 c 1
 355 762 l 1
 390 731 l 1
 324 664 l 1xf7
273 37 m 0xef
 368 37 428 121 428 282 c 0
 428 301 427 316 426 330 c 1
 384 387 331 421 267 421 c 0
 169 421 124 337 124 234 c 0
 124 108 180 37 273 37 c 0xef
EndSplineSet
Substitution2: "'smcp' Lowercase to Small Capitals lookup 27 subtable" eth.sc
Substitution2: "'aalt' Access All Alternates lookup 0 subtable" eth.sc
EndChar
StartChar: ntilde
Encoding: 241 241 552
Width: 584
GlyphClass: 2
Flags: MW
HStem: 0 21G<106 164 106 106 425 483 425 425> 487 47<299 358> 503 20G<106 156 156 156> 666 47<336.5 366.5 336.5 374> 670 20G<147 147> 712 46<227.5 256> 718 20G<448 448>
VStem: 106 58<0 379 0 523> 425 58<0 366 366 374 0 409>
AnchorPoint: "Anchor-14" 0 0 basechar 0
AnchorPoint: "Anchor-13" 0 0 basechar 0
AnchorPoint: "Anchor-12" 298 715 basechar 0
AnchorPoint: "Anchor-11" 0 0 basechar 0
AnchorPoint: "Anchor-10" 291 0 basechar 0
LayerCount: 2
Back
Fore
SplineSet
239 712 m 0xcd80
 216 712 201 699 183 672 c 1xcb80
 147 690 l 1
 169 730 199 758 239 758 c 0xcd80
 286 758 317 713 356 713 c 0
 377 713 392 725 412 756 c 1
 448 738 l 1
 424 688 392 666 356 666 c 0xd180
 305 666 273 712 239 712 c 0xcd80
337 534 m 0xcb80
 432 534 483 475 483 374 c 2
 483 0 l 1
 425 0 l 1
 425 366 l 2
 425 452 390 487 326 487 c 0xcb80
 255 487 207 443 164 379 c 1
 164 0 l 1
 106 0 l 1
 106 523 l 1
 156 523 l 1xab80
 161 434 l 1
 203 493 261 534 337 534 c 0xcb80
EndSplineSet
Substitution2: "'smcp' Lowercase to Small Capitals lookup 27 subtable" ntilde.sc
Substitution2: "'aalt' Access All Alternates lookup 0 subtable" ntilde.sc
EndChar

StartChar: ograve
Encoding: 242 242 213
Width: 571
GlyphClass: 2
Flags: MW
HStem: -11 49<235 335 235 354> 485 49<236.5 336.5>
VStem: 64 62<187.5 336 187.5 345> 446 61<188 336.5>
AnchorPoint: "Anchor-11" 0 0 basechar 0
AnchorPoint: "Anchor-10" 0 0 basechar 0
AnchorPoint: "Anchor-9" 286 523 basechar 0
AnchorPoint: "Anchor-8" 0 0 basechar 0
LayerCount: 2
Fore
SplineSet
400 679 m 1
 382 645 l 1
 186 730 l 1
 212 782 l 1
 400 679 l 1
286 534 m 0
 425 534 507 434 507 263 c 0
 507 94 423 -11 285 -11 c 0
 146 -11 64 93 64 261 c 0
 64 429 149 534 286 534 c 0
286 485 m 0
 187 485 126 411 126 261 c 0
 126 114 185 38 285 38 c 0
 385 38 446 113 446 263 c 0
 446 410 387 485 286 485 c 0
EndSplineSet
Substitution2: "'smcp' Lowercase to Small Capitals lookup 24 subtable" ograve.sc
Substitution2: "'aalt' Access All Alternates lookup 0 subtable" ograve.sc
EndChar

StartChar: otilde
Encoding: 245 245 218
Width: 571
GlyphClass: 2
Flags: MW
HStem: -11 49<235 335 235 354> 485 49<236.5 336.5> 666 47<325 355 325 364> 670 20G<135 135> 712 46<213.5 244.5> 718 20G<436 436>
VStem: 64 62<187.5 336 187.5 345> 446 61<188 336.5>
AnchorPoint: "Anchor-11" 0 0 basechar 0
AnchorPoint: "Anchor-10" 0 0 basechar 0
AnchorPoint: "Anchor-9" 286 523 basechar 0
AnchorPoint: "Anchor-8" 0 0 basechar 0
LayerCount: 2
Fore
SplineSet
348 666 m 0xe3
 290 666 262 712 227 712 c 0xdb
 200 712 189 699 171 672 c 1xd7
 135 690 l 1
 157 730 186 758 227 758 c 0xdb
 273 758 305 713 345 713 c 0
 365 713 380 725 400 756 c 1xe3
 436 738 l 1xd7
 412 688 380 666 348 666 c 0xe3
286 534 m 0xd7
 425 534 507 434 507 263 c 0
 507 94 423 -11 285 -11 c 0
 146 -11 64 93 64 261 c 0
 64 429 149 534 286 534 c 0xd7
286 485 m 0
 187 485 126 411 126 261 c 0
 126 114 185 38 285 38 c 0
 385 38 446 113 446 263 c 0
 446 410 387 485 286 485 c 0
EndSplineSet
Substitution2: "'smcp' Lowercase to Small Capitals lookup 24 subtable" otilde.sc
Substitution2: "'aalt' Access All Alternates lookup 0 subtable" otilde.sc
EndChar
StartChar: oslash
Encoding: 248 248 589
Width: 571
GlyphClass: 2
Flags: MW
HStem: -11 49<276.5 335 276.5 354> -3 21G<224 224> 485 49<236.5 295.5> 506 20G<349 349>
VStem: 64 62<209.5 336 209.5 345> 446 61<188 314.5>
AnchorPoint: "Anchor-14" 0 0 basechar 0
AnchorPoint: "Anchor-13" 0 0 basechar 0
AnchorPoint: "Anchor-12" 286 523 basechar 0
AnchorPoint: "Anchor-11" 0 0 basechar 0
AnchorPoint: "Anchor-10" 285 0 basechar 0
LayerCount: 2
Back
Fore
SplineSet
396 507 m 1x9c
 467 467 507 382 507 263 c 0
 507 94 423 -11 285 -11 c 0xac
 263 -11 243 -8 224 -3 c 1
 183 -125 l 1
 134 -111 l 1
 177 16 l 1
 105 57 64 143 64 261 c 0
 64 429 149 534 286 534 c 0x6c
 309 534 330 531 349 526 c 1
 388 648 l 1
 437 634 l 1
 396 507 l 1x9c
126 261 m 0xac
 126 158 152 93 199 62 c 1
 337 479 l 1
 322 483 305 485 286 485 c 0
 187 485 126 411 126 261 c 0xac
285 38 m 0
 385 38 446 113 446 263 c 0
 446 366 420 430 374 461 c 1
 236 44 l 1
 251 40 268 38 285 38 c 0
EndSplineSet
Substitution2: "'smcp' Lowercase to Small Capitals lookup 27 subtable" oslash.sc
Substitution2: "'aalt' Access All Alternates lookup 0 subtable" oslash.sc
EndChar
StartChar: ugrave
Encoding: 249 249 674
Width: 579
GlyphClass: 2
Flags: MW
HStem: -11 48<228 289.5> 0 21G<423 473 423 423> 503 20G<101 159 159 159 415 473 473 473>
VStem: 101 58<149 155 155 523> 415 58<144 523 0 523>
AnchorPoint: "Anchor-14" 0 0 basechar 0
AnchorPoint: "Anchor-13" 483 523 basechar 0
AnchorPoint: "Anchor-12" 293 782 basechar 0
AnchorPoint: "Anchor-11" 483 0 basechar 0
AnchorPoint: "Anchor-10" 287 0 basechar 0
LayerCount: 2
Back
Fore
SplineSet
210 782 m 1xb8
 398 679 l 1
 380 645 l 1
 184 730 l 1
 210 782 l 1xb8
473 523 m 1
 473 0 l 1
 423 0 l 1x78
 420 93 l 1
 383 31 330 -11 249 -11 c 0
 155 -11 101 46 101 149 c 2
 101 523 l 1
 159 523 l 1
 159 155 l 2
 159 72 194 37 262 37 c 0
 331 37 379 82 415 144 c 1
 415 523 l 1
 473 523 l 1
EndSplineSet
Substitution2: "'smcp' Lowercase to Small Capitals lookup 27 subtable" ugrave.sc
Substitution2: "'aalt' Access All Alternates lookup 0 subtable" ugrave.sc
EndChar

StartChar: uacute
Encoding: 250 250 240
Width: 579
GlyphClass: 2
Flags: MW
HStem: -11 48<228 289.5> 0 21G<423 473 423 423> 503 20G<101 159 159 159 415 473 473 473>
VStem: 101 58<149 155 155 523> 415 58<144 523>
AnchorPoint: "Anchor-11" 0 0 basechar 0
AnchorPoint: "Anchor-10" 0 0 basechar 0
AnchorPoint: "Anchor-9" 287 523 basechar 0
AnchorPoint: "Anchor-8" 483 0 basechar 0
LayerCount: 2
Fore
SplineSet
384 730 m 1xb8
 189 645 l 1
 170 679 l 1
 358 782 l 1
 384 730 l 1xb8
473 0 m 1x78
 423 0 l 1x78
 420 93 l 1
 383 31 330 -11 249 -11 c 0
 155 -11 101 46 101 149 c 2
 101 523 l 1
 159 523 l 1
 159 155 l 2
 159 72 194 37 262 37 c 0xb8
 331 37 379 82 415 144 c 1
 415 523 l 1
 473 523 l 1
 473 0 l 1x78
EndSplineSet
Substitution2: "'smcp' Lowercase to Small Capitals lookup 24 subtable" uacute.sc
Substitution2: "'aalt' Access All Alternates lookup 0 subtable" uacute.sc
EndChar

StartChar: ucircumflex
Encoding: 251 251 242
Width: 579
GlyphClass: 2
Flags: MW
HStem: -11 48<228 289.5> 0 21G<423 473 423 423> 503 20G<101 159 159 159 415 473 473 473>
VStem: 101 58<149 155 155 523> 415 58<144 523>
AnchorPoint: "Anchor-11" 0 0 basechar 0
AnchorPoint: "Anchor-10" 0 0 basechar 0
AnchorPoint: "Anchor-9" 287 523 basechar 0
AnchorPoint: "Anchor-8" 483 0 basechar 0
LayerCount: 2
Fore
SplineSet
142 674 m 1xb8
 271 779 l 1
 307 779 l 1
 437 674 l 1
 411 643 l 1
 289 728 l 1
 168 643 l 1
 142 674 l 1xb8
473 0 m 1x78
 423 0 l 1x78
 420 93 l 1
 383 31 330 -11 249 -11 c 0
 155 -11 101 46 101 149 c 2
 101 523 l 1
 159 523 l 1
 159 155 l 2
 159 72 194 37 262 37 c 0xb8
 331 37 379 82 415 144 c 1
 415 523 l 1
 473 523 l 1
 473 0 l 1x78
EndSplineSet
Substitution2: "'smcp' Lowercase to Small Capitals lookup 24 subtable" ucircumflex.sc
Substitution2: "'aalt' Access All Alternates lookup 0 subtable" ucircumflex.sc
EndChar
StartChar: udieresis
Encoding: 252 252 668
Width: 579
GlyphClass: 2
Flags: MW
HStem: -11 48<228 289.5> 0 21G<423 473 423 423> 503 20G<101 159 159 159 415 473 473 473> 663 79<180.5 203.5 369.5 392.5>
VStem: 101 58<149 155 155 523> 152 80<691 713> 341 80<691 713> 415 58<144 523 0 523>
AnchorPoint: "Anchor-14" 0 0 basechar 0
AnchorPoint: "Anchor-13" 483 523 basechar 0
AnchorPoint: "Anchor-12" 289 742 basechar 0
AnchorPoint: "Anchor-11" 483 0 basechar 0
AnchorPoint: "Anchor-10" 287 0 basechar 0
LayerCount: 2
Back
Fore
SplineSet
192 742 m 0xb6
 215 742 232 724 232 702 c 0
 232 680 215 663 192 663 c 0
 169 663 152 680 152 702 c 0
 152 724 169 742 192 742 c 0xb6
381 742 m 0
 404 742 421 724 421 702 c 0
 421 680 404 663 381 663 c 0
 358 663 341 680 341 702 c 0
 341 724 358 742 381 742 c 0
473 523 m 1xb9
 473 0 l 1
 423 0 l 1x79
 420 93 l 1
 383 31 330 -11 249 -11 c 0
 155 -11 101 46 101 149 c 2
 101 523 l 1
 159 523 l 1
 159 155 l 2
 159 72 194 37 262 37 c 0
 331 37 379 82 415 144 c 1
 415 523 l 1
 473 523 l 1xb9
EndSplineSet
Substitution2: "'smcp' Lowercase to Small Capitals lookup 27 subtable" udieresis.sc
Substitution2: "'aalt' Access All Alternates lookup 0 subtable" udieresis.sc
EndChar

StartChar: thorn
Encoding: 254 254 221
Width: 581
GlyphClass: 2
Flags: MW
HStem: -205 21G<106 106> -11 49<280 350 272 378> 486 48<289 356.5> 716 20G<106 106> 723 20G<164 164>
VStem: 106 58<-195 61 -195 118 118 396 451 736 736 736> 450 62<189 338.5>
LayerCount: 2
Fore
SplineSet
322 534 m 0xee
 451 534 512 433 512 264 c 0
 512 99 443 -11 313 -11 c 0
 247 -11 197 19 164 61 c 1
 164 -195 l 1
 106 -205 l 1
 106 736 l 1xf6
 164 743 l 1
 164 451 l 1
 202 503 256 534 322 534 c 0xee
302 38 m 0
 398 38 450 114 450 264 c 0
 450 413 402 486 311 486 c 0
 244 486 200 446 164 396 c 1
 164 118 l 1
 196 69 242 38 302 38 c 0
EndSplineSet
Substitution2: "'smcp' Lowercase to Small Capitals lookup 24 subtable" thorn.sc
Substitution2: "'aalt' Access All Alternates lookup 0 subtable" thorn.sc
EndChar

StartChar: ydieresis
Encoding: 255 255 260
Width: 468
GlyphClass: 2
Flags: MW
HStem: -204 21G<59 59> 0 21G<197 217 197 197> 503 20G<15 78 78 78 391 452 452 452> 663 79<123.5 146.5 312.5 335.5>
VStem: 95 80<691 713> 284 80<691 713>
AnchorPoint: "Anchor-11" 0 0 basechar 0
AnchorPoint: "Anchor-10" 0 0 basechar 0
AnchorPoint: "Anchor-9" 230 651 basechar 0
AnchorPoint: "Anchor-8" 0 0 basechar 0
LayerCount: 2
Fore
SplineSet
135 742 m 0
 158 742 175 724 175 702 c 0
 175 680 158 663 135 663 c 0
 112 663 95 680 95 702 c 0
 95 724 112 742 135 742 c 0
324 742 m 0
 347 742 364 724 364 702 c 0
 364 680 347 663 324 663 c 0
 301 663 284 680 284 702 c 0
 284 724 301 742 324 742 c 0
273 -2 m 2
 234 -116 187 -179 59 -204 c 1
 53 -159 l 1
 158 -133 184 -92 217 0 c 1
 197 0 l 1
 15 523 l 1
 78 523 l 1
 236 43 l 1
 391 523 l 1
 452 523 l 1
 273 -2 l 2
EndSplineSet
Substitution2: "'smcp' Lowercase to Small Capitals lookup 24 subtable" ydieresis.sc
Substitution2: "'aalt' Access All Alternates lookup 0 subtable" ydieresis.sc
EndChar

StartChar: Abreve
Encoding: 258 258 3
Width: 565
GlyphClass: 2
Flags: MW
HStem: 0 21G<16 77 16 16 485 485 485 548> 187 51<154 409 154 425 137 409> 636 49<282 282> 765 47<258.5 305.5 258.5 316.5>
VStem: 16 532<0 0>
AnchorPoint: "Anchor-11" 0 0 basechar 0
AnchorPoint: "Anchor-10" 156 685 basechar 0
AnchorPoint: "Anchor-9" 283 685 basechar 0
AnchorPoint: "Anchor-8" 540 0 basechar 0
LayerCount: 2
Fore
SplineSet
282 765 m 0
 213 765 161 808 152 865 c 1
 192 874 l 1
 205 837 235 812 282 812 c 0
 329 812 360 837 373 874 c 1
 413 865 l 1
 404 808 351 765 282 765 c 0
425 187 m 1
 137 187 l 1
 77 0 l 1
 16 0 l 1
 245 685 l 1
 320 685 l 1
 548 0 l 1
 485 0 l 1
 425 187 l 1
409 238 m 1
 282 636 l 1
 154 238 l 1
 409 238 l 1
EndSplineSet
Substitution2: "'c2sc' Capitals to Small Capitals lookup 23 subtable" abreve.sc
Substitution2: "'aalt' Access All Alternates lookup 0 subtable" abreve.sc
Position2: "'cpsp' Capital Spacing lookup 0 subtable" dx=5 dy=0 dh=10 dv=0
EndChar

StartChar: Aogonek
Encoding: 260 260 8
Width: 565
GlyphClass: 2
Flags: MW
HStem: -218 48<451 477> -211 21G<524 524> 0 21G<16 77 16 16 531 548 531 531> 187 51<154 409 154 425 137 409> 636 49<282 282>
VStem: 355 54<-133.5 -96.5>
AnchorPoint: "Anchor-11" 0 0 basechar 0
AnchorPoint: "Anchor-10" 156 685 basechar 0
AnchorPoint: "Anchor-9" 283 685 basechar 0
AnchorPoint: "Anchor-8" 540 0 basechar 0
LayerCount: 2
Fore
SplineSet
531 0 m 1x7c
 442 -40 409 -71 409 -118 c 0
 409 -149 429 -170 473 -170 c 0
 492 -170 507 -168 530 -163 c 1xbc
 524 -211 l 1
 504 -215 488 -218 466 -218 c 0
 393 -218 355 -178 355 -126 c 0
 355 -67 397 -25 482 11 c 1
 425 187 l 1
 137 187 l 1
 77 0 l 1
 16 0 l 1
 245 685 l 1
 320 685 l 1
 548 0 l 1
 531 0 l 1x7c
409 238 m 1
 282 636 l 1
 154 238 l 1
 409 238 l 1
EndSplineSet
Substitution2: "'c2sc' Capitals to Small Capitals lookup 23 subtable" aogonek.sc
Substitution2: "'aalt' Access All Alternates lookup 0 subtable" aogonek.sc
Position2: "'cpsp' Capital Spacing lookup 0 subtable" dx=5 dy=0 dh=10 dv=0
EndChar
StartChar: cacute
Encoding: 263 263 381
Width: 469
GlyphClass: 2
Flags: MW
HStem: -11 51<239.5 311.5 239.5 315.5> 484 50<240.5 312>
VStem: 64 62<184 334.5 184 342>
AnchorPoint: "Anchor-14" 0 0 basechar 0
AnchorPoint: "Anchor-13" 0 0 basechar 0
AnchorPoint: "Anchor-12" 286 782 basechar 0
AnchorPoint: "Anchor-11" 0 0 basechar 0
AnchorPoint: "Anchor-10" 283 0 basechar 0
LayerCount: 2
Back
Fore
SplineSet
360 782 m 1
 386 730 l 1
 191 645 l 1
 172 679 l 1
 360 782 l 1
285 534 m 0
 344 534 389 519 433 481 c 1
 404 443 l 1
 370 470 336 484 288 484 c 0
 193 484 126 410 126 259 c 0
 126 109 192 40 287 40 c 0
 336 40 371 56 408 84 c 1
 436 45 l 1
 395 10 345 -11 286 -11 c 0
 152 -11 64 88 64 258 c 0
 64 426 151 534 285 534 c 0
EndSplineSet
Substitution2: "'smcp' Lowercase to Small Capitals lookup 27 subtable" cacute.sc
Substitution2: "'locl' Localized Forms in Latin lookup 7 subtable" cacute.loclPLK
AlternateSubs2: "'aalt' Access All Alternates lookup 1 subtable" cacute.loclPLK cacute.sc
EndChar
StartChar: Ccircumflex
Encoding: 264 264 48
Width: 550
GlyphClass: 2
Flags: MW
HStem: -11 53<284 379.5 284 384.5> 645 51<287.5 375>
VStem: 66 63<239 452 239 460>
AnchorPoint: "Anchor-14" 334 345 basechar 0
AnchorPoint: "Anchor-13" 441 755 basechar 0
AnchorPoint: "Anchor-12" 344 894 basechar 0
AnchorPoint: "Anchor-11" 0 0 basechar 0
AnchorPoint: "Anchor-10" 343 0 basechar 0
LayerCount: 2
Back
Fore
SplineSet
465 762 m 1
 344 842 l 1
 222 762 l 1
 196 792 l 1
 326 894 l 1
 362 894 l 1
 491 792 l 1
 465 762 l 1
343 696 m 0
 424 696 470 673 519 633 c 1
 487 593 l 1
 441 629 403 645 347 645 c 0
 228 645 129 561 129 343 c 0
 129 135 224 42 344 42 c 0
 415 42 455 68 495 100 c 1
 527 60 l 1
 487 21 427 -11 342 -11 c 0
 184 -11 66 112 66 343 c 0
 66 577 191 696 343 696 c 0
EndSplineSet
Substitution2: "'c2sc' Capitals to Small Capitals lookup 26 subtable" ccircumflex.sc
Substitution2: "'aalt' Access All Alternates lookup 0 subtable" ccircumflex.sc
Position2: "'cpsp' Capital Spacing lookup 0 subtable" dx=5 dy=0 dh=10 dv=0
EndChar

StartChar: ccircumflex
Encoding: 265 265 151
Width: 469
GlyphClass: 2
Flags: MW
HStem: -11 51<239.5 311.5 239.5 315.5> 484 50<240.5 312>
VStem: 64 62<184 334.5 184 342>
AnchorPoint: "Anchor-11" 283 0 basechar 0
AnchorPoint: "Anchor-10" 0 0 basechar 0
AnchorPoint: "Anchor-9" 285 523 basechar 0
AnchorPoint: "Anchor-8" 0 0 basechar 0
LayerCount: 2
Fore
SplineSet
139 674 m 1
 268 779 l 1
 304 779 l 1
 434 674 l 1
 408 643 l 1
 286 728 l 1
 165 643 l 1
 139 674 l 1
285 534 m 0
 344 534 389 519 433 481 c 1
 404 442 l 1
 370 470 336 484 288 484 c 0
 193 484 126 410 126 259 c 0
 126 109 192 40 287 40 c 0
 336 40 371 56 407 85 c 1
 436 45 l 1
 395 10 345 -11 286 -11 c 0
 152 -11 64 88 64 258 c 0
 64 426 151 534 285 534 c 0
EndSplineSet
Substitution2: "'smcp' Lowercase to Small Capitals lookup 24 subtable" ccircumflex.sc
Substitution2: "'aalt' Access All Alternates lookup 0 subtable" ccircumflex.sc
EndChar

StartChar: Cdotaccent
Encoding: 266 266 19
Width: 550
GlyphClass: 2
Flags: MW
HStem: -11 53<284 379.5 284 384.5> 645 51<287.5 375> 795 84<331 357.5>
VStem: 66 63<239 452 239 460> 301 87<825.5 848.5>
AnchorPoint: "Anchor-11" 343 0 basechar 0
AnchorPoint: "Anchor-10" 0 0 basechar 0
AnchorPoint: "Anchor-9" 344 685 basechar 0
AnchorPoint: "Anchor-8" 0 0 basechar 0
LayerCount: 2
Fore
SplineSet
344 879 m 0
 371 879 388 860 388 837 c 0
 388 814 371 795 344 795 c 0
 318 795 301 814 301 837 c 0
 301 860 318 879 344 879 c 0
343 696 m 0
 424 696 470 673 519 633 c 1
 487 593 l 1
 441 629 403 645 347 645 c 0
 228 645 129 561 129 343 c 0
 129 135 224 42 344 42 c 0
 415 42 455 68 495 100 c 1
 527 60 l 1
 487 21 427 -11 342 -11 c 0
 184 -11 66 112 66 343 c 0
 66 577 191 696 343 696 c 0
EndSplineSet
Substitution2: "'c2sc' Capitals to Small Capitals lookup 23 subtable" cdotaccent.sc
Substitution2: "'aalt' Access All Alternates lookup 0 subtable" cdotaccent.sc
Position2: "'cpsp' Capital Spacing lookup 0 subtable" dx=5 dy=0 dh=10 dv=0
EndChar
StartChar: Ccaron
Encoding: 268 268 46
Width: 550
GlyphClass: 2
Flags: MW
HStem: -11 53<284 379.5 284 384.5> 645 51<287.5 375>
VStem: 66 63<239 452 239 460>
AnchorPoint: "Anchor-14" 334 345 basechar 0
AnchorPoint: "Anchor-13" 0 0 basechar 0
AnchorPoint: "Anchor-12" 346 888 basechar 0
AnchorPoint: "Anchor-11" 0 0 basechar 0
AnchorPoint: "Anchor-10" 343 0 basechar 0
LayerCount: 2
Back
Fore
SplineSet
465 888 m 1
 491 857 l 1
 362 756 l 1
 326 756 l 1
 196 857 l 1
 222 888 l 1
 344 808 l 1
 465 888 l 1
343 696 m 0
 424 696 470 673 519 633 c 1
 487 593 l 1
 441 629 403 645 347 645 c 0
 228 645 129 561 129 343 c 0
 129 135 224 42 344 42 c 0
 415 42 455 68 495 100 c 1
 527 60 l 1
 487 21 427 -11 342 -11 c 0
 184 -11 66 112 66 343 c 0
 66 577 191 696 343 696 c 0
EndSplineSet
Substitution2: "'c2sc' Capitals to Small Capitals lookup 26 subtable" ccaron.sc
Substitution2: "'aalt' Access All Alternates lookup 0 subtable" ccaron.sc
Position2: "'cpsp' Capital Spacing lookup 0 subtable" dx=5 dy=0 dh=10 dv=0
EndChar
StartChar: ccaron
Encoding: 269 269 383
Width: 469
GlyphClass: 2
Flags: MW
HStem: -11 51<239.5 311.5 239.5 315.5> 484 50<240.5 312> 633 52<285 285 285 303 267 285> 665 20G<285 285> 719 20G<137 137 432 432>
VStem: 64 62<184 334.5 184 342>
AnchorPoint: "Anchor-14" 0 0 basechar 0
AnchorPoint: "Anchor-13" 0 0 basechar 0
AnchorPoint: "Anchor-12" 287 769 basechar 0
AnchorPoint: "Anchor-11" 0 0 basechar 0
AnchorPoint: "Anchor-10" 283 0 basechar 0
LayerCount: 2
Back
Fore
SplineSet
406 769 m 1xdc
 432 739 l 1
 303 633 l 1
 267 633 l 1xec
 137 739 l 1
 163 769 l 1
 285 685 l 1
 406 769 l 1xdc
285 534 m 0
 344 534 389 519 433 481 c 1
 404 443 l 1
 370 470 336 484 288 484 c 0
 193 484 126 410 126 259 c 0
 126 109 192 40 287 40 c 0
 336 40 371 56 408 84 c 1
 436 45 l 1
 395 10 345 -11 286 -11 c 0
 152 -11 64 88 64 258 c 0
 64 426 151 534 285 534 c 0
EndSplineSet
Substitution2: "'smcp' Lowercase to Small Capitals lookup 27 subtable" ccaron.sc
Substitution2: "'aalt' Access All Alternates lookup 0 subtable" ccaron.sc
EndChar

StartChar: dcaron
Encoding: 271 271 155
Width: 585
GlyphClass: 2
Flags: MW
HStem: -11 48<230 303> 0 21G<429 479 429 429> 486 48<238 309.5 210 316> 716 20G<479 479 615 615> 722 20G<559 559> 723 20G<421 421>
VStem: 69 62<187 260 187 339.5> 421 58<134 407 407 407 463 736 0 743 0 743>
LayerCount: 2
Fore
SplineSet
421 743 m 1xa7
 479 736 l 1
 479 0 l 1
 429 0 l 1x73
 422 80 l 1
 391 28 341 -11 265 -11 c 0
 143 -11 69 93 69 259 c 0
 69 420 146 534 274 534 c 0
 345 534 391 500 421 463 c 1
 421 743 l 1xa7
615 736 m 1
 578 572 l 1
 542 577 l 1
 559 742 l 1xab
 615 736 l 1
274 37 m 0
 343 37 385 72 421 134 c 1
 421 407 l 1
 390 451 348 486 284 486 c 0
 192 486 130 407 131 260 c 0
 131 114 186 37 274 37 c 0
EndSplineSet
Substitution2: "'smcp' Lowercase to Small Capitals lookup 24 subtable" dcaron.sc
Substitution2: "'aalt' Access All Alternates lookup 0 subtable" dcaron.sc
EndChar

StartChar: Dcroat
Encoding: 272 272 23
Width: 635
GlyphClass: 2
Flags: MW
HStem: 0 50<174 261> 330 46<23 114 23 114 174 349> 635 50<174 250 250 258 174 174>
VStem: 114 60<50 330 50 330 50 330 376 635> 506 63<225 473.5>
AnchorPoint: "Anchor-11" 0 0 basechar 0
AnchorPoint: "Anchor-10" 0 0 basechar 0
AnchorPoint: "Anchor-9" 303 685 basechar 0
AnchorPoint: "Anchor-8" 0 0 basechar 0
LayerCount: 2
Fore
SplineSet
250 685 m 2
 410 685 569 630 569 348 c 0
 569 64 402 0 261 0 c 2
 114 0 l 1
 114 330 l 1
 23 330 l 1
 23 376 l 1
 114 376 l 1
 114 685 l 1
 250 685 l 2
265 50 m 2
 383 50 506 102 506 348 c 0
 506 599 378 635 258 635 c 2
 174 635 l 1
 174 376 l 1
 349 376 l 1
 349 330 l 1
 174 330 l 1
 174 50 l 1
 265 50 l 2
EndSplineSet
Substitution2: "'c2sc' Capitals to Small Capitals lookup 23 subtable" dcroat.sc
Substitution2: "'aalt' Access All Alternates lookup 0 subtable" dcroat.sc
Position2: "'cpsp' Capital Spacing lookup 0 subtable" dx=5 dy=0 dh=10 dv=0
EndChar

StartChar: dcroat
Encoding: 273 273 156
Width: 592
GlyphClass: 2
Flags: MW
HStem: -11 48<230 303> 0 21G<429 479 429 429> 486 48<238 309.5 210 316> 616 47<261 421 261 261 479 556> 716 20G<479 479> 723 20G<421 421>
VStem: 69 62<187 260 187 339.5> 421 58<134 407 407 407 463 616 0 616 663 736>
LayerCount: 2
Fore
SplineSet
556 663 m 1xb7
 556 616 l 1
 479 616 l 1
 479 0 l 1
 429 0 l 1x77
 422 80 l 1
 391 28 341 -11 265 -11 c 0
 143 -11 69 93 69 259 c 0
 69 420 146 534 274 534 c 0
 345 534 391 500 421 463 c 1
 421 616 l 1
 261 616 l 1
 254 663 l 1
 421 663 l 1
 421 743 l 1xb7
 479 736 l 1xbb
 479 663 l 1
 556 663 l 1xb7
274 37 m 0xb7
 343 37 385 72 421 134 c 1
 421 407 l 1
 390 451 348 486 284 486 c 0
 192 486 130 407 131 260 c 0
 131 114 186 37 274 37 c 0xb7
EndSplineSet
Substitution2: "'smcp' Lowercase to Small Capitals lookup 24 subtable" dcroat.sc
Substitution2: "'aalt' Access All Alternates lookup 0 subtable" dcroat.sc
EndChar
StartChar: Emacron
Encoding: 274 274 85
Width: 512
GlyphClass: 2
Flags: MW
HStem: 0 50<171 466 171 466> 330 50<171 414 171 414> 635 50<171 452 171 171> 802 47<168 409 168 409>
VStem: 111 60<50 330 380 635> 168 241<802 849 802 849>
AnchorPoint: "Anchor-14" 0 0 basechar 0
AnchorPoint: "Anchor-13" 0 0 basechar 0
AnchorPoint: "Anchor-12" 291 849 basechar 0
AnchorPoint: "Anchor-11" 444 0 basechar 0
AnchorPoint: "Anchor-10" 287 0 basechar 0
LayerCount: 2
Back
Fore
SplineSet
409 802 m 1xf4
 168 802 l 1
 168 849 l 1
 409 849 l 1
 409 802 l 1xf4
459 685 m 1
 452 635 l 1
 171 635 l 1
 171 380 l 1
 414 380 l 1
 414 330 l 1
 171 330 l 1
 171 50 l 1
 466 50 l 1
 466 0 l 1
 111 0 l 1
 111 685 l 1xf8
 459 685 l 1
EndSplineSet
Substitution2: "'c2sc' Capitals to Small Capitals lookup 26 subtable" emacron.sc
Substitution2: "'aalt' Access All Alternates lookup 0 subtable" emacron.sc
Position2: "'cpsp' Capital Spacing lookup 0 subtable" dx=5 dy=0 dh=10 dv=0
EndChar
StartChar: emacron
Encoding: 275 275 428
Width: 538
GlyphClass: 2
Flags: MW
HStem: -11 49<244 317.5 244 320.5> 239 45<126 420 125 475 126 126> 486 48<234.5 324.5> 676 47<156 397 156 397>
VStem: 64 61<284 284 284 340.5> 156 241<676 723 676 723> 420 57<284 299 299 356>
AnchorPoint: "Anchor-14" 0 0 basechar 0
AnchorPoint: "Anchor-13" 0 0 basechar 0
AnchorPoint: "Anchor-12" 279 723 basechar 0
AnchorPoint: "Anchor-11" 386 5 basechar 0
AnchorPoint: "Anchor-10" 289 0 basechar 0
LayerCount: 2
Back
Fore
SplineSet
397 723 m 1
 397 676 l 1
 156 676 l 1
 156 723 l 1
 397 723 l 1
477 281 m 0xfa
 477 265 476 249 475 239 c 1
 126 239 l 1
 133 97 199 38 289 38 c 0
 346 38 384 56 430 90 c 1
 457 53 l 1
 408 13 355 -11 286 -11 c 0
 148 -11 64 89 64 257 c 0
 64 424 145 534 273 534 c 0
 409 534 477 435 477 281 c 0xfa
420 284 m 1
 420 299 l 2
 420 413 374 486 275 486 c 0
 194 486 132 425 125 284 c 1
 420 284 l 1
EndSplineSet
Substitution2: "'smcp' Lowercase to Small Capitals lookup 27 subtable" emacron.sc
Substitution2: "'aalt' Access All Alternates lookup 0 subtable" emacron.sc
EndChar
StartChar: ebreve
Encoding: 277 277 412
Width: 538
GlyphClass: 2
Flags: MW
HStem: -11 49<244 317.5 244 320.5> 239 45<126 420 125 475 126 126> 486 48<234.5 324.5> 653 47<252.5 299.5 252.5 310.5>
VStem: 64 61<284 284 284 340.5> 420 57<284 299 299 356>
AnchorPoint: "Anchor-14" 0 0 basechar 0
AnchorPoint: "Anchor-13" 0 0 basechar 0
AnchorPoint: "Anchor-12" 279 772 basechar 0
AnchorPoint: "Anchor-11" 386 5 basechar 0
AnchorPoint: "Anchor-10" 289 0 basechar 0
LayerCount: 2
Back
Fore
SplineSet
276 653 m 0
 207 653 155 696 146 763 c 1
 186 772 l 1
 199 725 229 700 276 700 c 0
 323 700 354 725 367 772 c 1
 407 763 l 1
 398 696 345 653 276 653 c 0
477 281 m 0
 477 265 476 249 475 239 c 1
 126 239 l 1
 133 97 199 38 289 38 c 0
 346 38 384 56 430 90 c 1
 457 53 l 1
 408 13 355 -11 286 -11 c 0
 148 -11 64 89 64 257 c 0
 64 424 145 534 273 534 c 0
 409 534 477 435 477 281 c 0
420 284 m 1
 420 299 l 2
 420 413 374 486 275 486 c 0
 194 486 132 425 125 284 c 1
 420 284 l 1
EndSplineSet
Substitution2: "'smcp' Lowercase to Small Capitals lookup 27 subtable" ebreve.sc
Substitution2: "'aalt' Access All Alternates lookup 0 subtable" ebreve.sc
EndChar
StartChar: Edotaccent
Encoding: 278 278 80
Width: 512
GlyphClass: 2
Flags: MW
HStem: 0 50<171 466 171 466> 330 50<171 414 171 414> 635 50<171 452 171 171> 795 84<275 301.5>
VStem: 111 60<50 330 380 635> 245 87<825.5 848.5>
AnchorPoint: "Anchor-14" 0 0 basechar 0
AnchorPoint: "Anchor-13" 0 0 basechar 0
AnchorPoint: "Anchor-12" 291 879 basechar 0
AnchorPoint: "Anchor-11" 444 0 basechar 0
AnchorPoint: "Anchor-10" 287 0 basechar 0
LayerCount: 2
Back
Fore
SplineSet
288 879 m 0
 315 879 332 860 332 837 c 0
 332 814 315 795 288 795 c 0
 262 795 245 814 245 837 c 0
 245 860 262 879 288 879 c 0
459 685 m 1
 452 635 l 1
 171 635 l 1
 171 380 l 1
 414 380 l 1
 414 330 l 1
 171 330 l 1
 171 50 l 1
 466 50 l 1
 466 0 l 1
 111 0 l 1
 111 685 l 1
 459 685 l 1
EndSplineSet
Substitution2: "'c2sc' Capitals to Small Capitals lookup 26 subtable" edotaccent.sc
Substitution2: "'aalt' Access All Alternates lookup 0 subtable" edotaccent.sc
Position2: "'cpsp' Capital Spacing lookup 0 subtable" dx=5 dy=0 dh=10 dv=0
EndChar
StartChar: edotaccent
Encoding: 279 279 423
Width: 538
GlyphClass: 2
Flags: MW
HStem: -11 49<244 317.5 244 320.5> 239 45<126 420 125 475 126 126> 486 48<234.5 324.5> 669 84<263 289.5>
VStem: 64 61<284 284 284 340.5> 233 87<699.5 722.5> 420 57<284 299 299 356>
AnchorPoint: "Anchor-14" 0 0 basechar 0
AnchorPoint: "Anchor-13" 0 0 basechar 0
AnchorPoint: "Anchor-12" 278 706 basechar 0
AnchorPoint: "Anchor-11" 386 5 basechar 0
AnchorPoint: "Anchor-10" 289 0 basechar 0
LayerCount: 2
Back
Fore
SplineSet
276 669 m 0
 250 669 233 688 233 711 c 0
 233 734 250 753 276 753 c 0
 303 753 320 734 320 711 c 0
 320 688 303 669 276 669 c 0
477 281 m 0
 477 265 476 249 475 239 c 1
 126 239 l 1
 133 97 199 38 289 38 c 0
 346 38 384 56 430 90 c 1
 457 53 l 1
 408 13 355 -11 286 -11 c 0
 148 -11 64 89 64 257 c 0
 64 424 145 534 273 534 c 0
 409 534 477 435 477 281 c 0
420 284 m 1
 420 299 l 2
 420 413 374 486 275 486 c 0
 194 486 132 425 125 284 c 1
 420 284 l 1
EndSplineSet
Substitution2: "'smcp' Lowercase to Small Capitals lookup 27 subtable" edotaccent.sc
Substitution2: "'aalt' Access All Alternates lookup 0 subtable" edotaccent.sc
EndChar
StartChar: Eogonek
Encoding: 280 280 86
Width: 512
GlyphClass: 2
Flags: MW
HStem: -218 48<352 380> 0 50<171 361 434 466 434 434> 330 50<171 414 171 414> 635 50<171 452 171 171>
VStem: 111 60<50 50 50 330 380 635> 258 54<-133.5 -99.5>
AnchorPoint: "Anchor-14" 0 0 basechar 0
AnchorPoint: "Anchor-13" 0 0 basechar 0
AnchorPoint: "Anchor-12" 289 685 basechar 0
AnchorPoint: "Anchor-11" 444 0 basechar 0
AnchorPoint: "Anchor-10" 287 0 basechar 0
LayerCount: 2
Back
Fore
SplineSet
171 50 m 1
 466 50 l 1
 466 0 l 1
 434 0 l 1
 345 -40 312 -71 312 -118 c 0
 312 -149 330 -170 374 -170 c 0
 394 -170 410 -168 433 -163 c 1
 427 -211 l 1
 407 -215 391 -218 369 -218 c 0
 296 -218 258 -178 258 -126 c 0
 258 -73 292 -33 361 0 c 1
 111 0 l 1
 111 685 l 1
 459 685 l 1
 452 635 l 1
 171 635 l 1
 171 380 l 1
 414 380 l 1
 414 330 l 1
 171 330 l 1
 171 50 l 1
EndSplineSet
Substitution2: "'c2sc' Capitals to Small Capitals lookup 26 subtable" eogonek.sc
Substitution2: "'aalt' Access All Alternates lookup 0 subtable" eogonek.sc
Position2: "'cpsp' Capital Spacing lookup 0 subtable" dx=5 dy=0 dh=10 dv=0
EndChar

StartChar: eogonek
Encoding: 281 281 166
Width: 538
GlyphClass: 2
Flags: MW
HStem: -213 48<296 322> -206 21G<369 369> -11 49 239 45<126 420 126 475 126 420> 486 48<234 324.5>
VStem: 64 62<239 239 239 284 239 340.5> 200 54<-128.5 -98> 420 57<284 299 299 356>
AnchorPoint: "Anchor-11" 289 0 basechar 0
AnchorPoint: "Anchor-10" 0 0 basechar 0
AnchorPoint: "Anchor-9" 276 523 basechar 0
AnchorPoint: "Anchor-8" 386 5 basechar 0
LayerCount: 2
Fore
SplineSet
477 281 m 0x7f
 477 265 476 249 475 239 c 1
 126 239 l 1
 133 97 199 38 289 38 c 0
 346 38 384 56 430 90 c 1
 457 53 l 1
 431 32 404 15 374 4 c 1
 287 -35 254 -66 254 -113 c 0
 254 -144 274 -165 318 -165 c 0
 337 -165 352 -163 375 -158 c 1xbf
 369 -206 l 1
 349 -210 333 -213 311 -213 c 0
 238 -213 200 -173 200 -121 c 0
 200 -75 228 -39 283 -11 c 1
 147 -10 64 90 64 257 c 0
 64 424 145 534 273 534 c 0
 409 534 477 435 477 281 c 0x7f
420 284 m 1
 420 299 l 2
 420 413 374 486 275 486 c 0
 193 486 132 426 126 284 c 1
 420 284 l 1
EndSplineSet
Substitution2: "'smcp' Lowercase to Small Capitals lookup 24 subtable" eogonek.sc
Substitution2: "'aalt' Access All Alternates lookup 0 subtable" eogonek.sc
EndChar
StartChar: Ecaron
Encoding: 282 282 70
Width: 512
GlyphClass: 2
Flags: MW
HStem: 0 50<171 466 171 466> 330 50<171 414 171 414> 635 50<171 452 171 171>
VStem: 111 60<50 330 380 635>
AnchorPoint: "Anchor-14" 0 0 basechar 0
AnchorPoint: "Anchor-13" 0 0 basechar 0
AnchorPoint: "Anchor-12" 291 888 basechar 0
AnchorPoint: "Anchor-11" 444 0 basechar 0
AnchorPoint: "Anchor-10" 287 0 basechar 0
LayerCount: 2
Back
Fore
SplineSet
410 888 m 1
 436 857 l 1
 307 756 l 1
 271 756 l 1
 141 857 l 1
 167 888 l 1
 289 808 l 1
 410 888 l 1
459 685 m 1
 452 635 l 1
 171 635 l 1
 171 380 l 1
 414 380 l 1
 414 330 l 1
 171 330 l 1
 171 50 l 1
 466 50 l 1
 466 0 l 1
 111 0 l 1
 111 685 l 1
 459 685 l 1
EndSplineSet
Substitution2: "'c2sc' Capitals to Small Capitals lookup 26 subtable" ecaron.sc
Substitution2: "'aalt' Access All Alternates lookup 0 subtable" ecaron.sc
Position2: "'cpsp' Capital Spacing lookup 0 subtable" dx=5 dy=0 dh=10 dv=0
EndChar
StartChar: ecaron
Encoding: 283 283 413
Width: 538
GlyphClass: 2
Flags: MW
HStem: -11 49<244 317.5 244 320.5> 239 45<126 420 125 475 126 126> 486 48<234.5 324.5> 633 52<276 276 276 294 258 276> 719 20G<128 128 423 423>
VStem: 64 61<284 284 284 340.5> 420 57<284 299 299 356>
AnchorPoint: "Anchor-14" 0 0 basechar 0
AnchorPoint: "Anchor-13" 0 0 basechar 0
AnchorPoint: "Anchor-12" 278 769 basechar 0
AnchorPoint: "Anchor-11" 386 5 basechar 0
AnchorPoint: "Anchor-10" 289 0 basechar 0
LayerCount: 2
Back
Fore
SplineSet
294 633 m 1
 258 633 l 1
 128 739 l 1
 154 769 l 1
 276 685 l 1
 397 769 l 1
 423 739 l 1
 294 633 l 1
477 281 m 0
 477 265 476 249 475 239 c 1
 126 239 l 1
 133 97 199 38 289 38 c 0
 346 38 384 56 430 90 c 1
 457 53 l 1
 408 13 355 -11 286 -11 c 0
 148 -11 64 89 64 257 c 0
 64 424 145 534 273 534 c 0
 409 534 477 435 477 281 c 0
420 284 m 1
 420 299 l 2
 420 413 374 486 275 486 c 0
 194 486 132 425 125 284 c 1
 420 284 l 1
EndSplineSet
Substitution2: "'smcp' Lowercase to Small Capitals lookup 27 subtable" ecaron.sc
Substitution2: "'aalt' Access All Alternates lookup 0 subtable" ecaron.sc
EndChar

StartChar: Gbreve
Encoding: 286 286 36
Width: 618
GlyphClass: 2
Flags: MW
HStem: -11 51<281.5 377 281.5 385> 319 50<359 493 359 359> 645 51<297 382> 765 47<327.5 374.5 327.5 385.5>
VStem: 66 63<240 453.5 240 462.5> 493 59<76 319 319 319>
AnchorPoint: "Anchor-11" 340 0 basechar 0
AnchorPoint: "Anchor-10" 0 0 basechar 0
AnchorPoint: "Anchor-9" 352 685 basechar 0
AnchorPoint: "Anchor-8" 0 0 basechar 0
LayerCount: 2
Fore
SplineSet
351 765 m 0
 282 765 230 808 221 865 c 1
 261 874 l 1
 274 837 304 812 351 812 c 0
 398 812 429 837 442 874 c 1
 482 865 l 1
 473 808 420 765 351 765 c 0
350 696 m 0
 432 696 484 673 540 628 c 1
 504 591 l 1
 456 628 413 645 351 645 c 0
 243 645 129 562 129 345 c 0
 129 135 214 40 349 40 c 0
 405 40 450 52 493 76 c 1
 493 319 l 1
 359 319 l 1
 352 369 l 1
 552 369 l 1
 552 45 l 1
 492 10 424 -11 346 -11 c 0
 179 -11 66 108 66 345 c 0
 66 580 207 696 350 696 c 0
EndSplineSet
Substitution2: "'c2sc' Capitals to Small Capitals lookup 23 subtable" gbreve.sc
Substitution2: "'aalt' Access All Alternates lookup 0 subtable" gbreve.sc
Position2: "'cpsp' Capital Spacing lookup 0 subtable" dx=5 dy=0 dh=10 dv=0
EndChar
StartChar: Gdotaccent
Encoding: 288 288 105
Width: 618
GlyphClass: 2
Flags: MW
HStem: -11 51<281.5 377 281.5 385> 319 50<359 493 359 359> 645 51<297 382> 795 84<338 364.5>
VStem: 66 63<240 453.5 240 462.5> 308 87<825.5 848.5> 493 59<76 319 319 319>
AnchorPoint: "Anchor-14" 0 0 basechar 0
AnchorPoint: "Anchor-13" 0 0 basechar 0
AnchorPoint: "Anchor-12" 354 879 basechar 0
AnchorPoint: "Anchor-11" 0 0 basechar 0
AnchorPoint: "Anchor-10" 340 0 basechar 0
LayerCount: 2
Back
Fore
SplineSet
351 879 m 0
 378 879 395 860 395 837 c 0
 395 814 378 795 351 795 c 0
 325 795 308 814 308 837 c 0
 308 860 325 879 351 879 c 0
350 696 m 0
 432 696 484 673 540 628 c 1
 504 591 l 1
 456 628 413 645 351 645 c 0
 243 645 129 562 129 345 c 0
 129 135 214 40 349 40 c 0
 405 40 450 52 493 76 c 1
 493 319 l 1
 359 319 l 1
 352 369 l 1
 552 369 l 1
 552 45 l 1
 492 10 424 -11 346 -11 c 0
 179 -11 66 108 66 345 c 0
 66 580 207 696 350 696 c 0
EndSplineSet
Substitution2: "'c2sc' Capitals to Small Capitals lookup 26 subtable" gdotaccent.sc
Substitution2: "'aalt' Access All Alternates lookup 0 subtable" gdotaccent.sc
Position2: "'cpsp' Capital Spacing lookup 0 subtable" dx=5 dy=0 dh=10 dv=0
EndChar

StartChar: gdotaccent
Encoding: 289 289 172
Width: 503
GlyphClass: 2
Flags: MW
HStem: -205 48<188.5 312 188.5 327.5> 29 50<172.5 310 225 301> 183 42<237.5 290.5 208 309> 489 45<203.5 248 190.5 292.5> 497 37 548 20G<477 477> 669 84<238 264.5>
VStem: 56 60<322 395.5 315 409.5> 87 55<117.5 138.5> 208 87<699.5 722.5> 380 59<314.5 391 304 397> 419 59<-89 -30>
AnchorPoint: "Anchor-11" 0 0 basechar 0
AnchorPoint: "Anchor-10" 0 0 basechar 0
AnchorPoint: "Anchor-9" 252 523 basechar 0
AnchorPoint: "Anchor-8" 0 0 basechar 0
LayerCount: 2
Fore
SplineSet
251 753 m 0xf760
 278 753 295 734 295 711 c 0
 295 688 278 669 251 669 c 0
 225 669 208 688 208 711 c 0
 208 734 225 753 251 753 c 0xf760
495 512 m 1xef60
 459 502 413 498 350 497 c 1
 405 471 439 427 439 355 c 0xef60
 439 253 368 183 250 183 c 0
 225 183 202 186 182 193 c 1
 157 179 142 157 142 133 c 0
 142 102 162 79 225 79 c 2
 310 79 l 2
 414 79 478 23 478 -55 c 0
 478 -149 404 -205 251 -205 c 0
 93 -205 33 -159 33 -55 c 1
 87 -55 l 1
 88 -128 126 -157 251 -157 c 0
 373 -157 419 -120 419 -58 c 0
 419 -2 375 29 301 29 c 2
 216 29 l 2
 129 29 87 71 87 121 c 0xf6d0
 87 156 108 187 144 210 c 1
 84 241 56 287 56 357 c 0
 56 462 133 534 248 534 c 1xf760
 388 532 426 547 477 568 c 1
 495 512 l 1xef60
248 489 m 0xf760
 159 489 116 434 116 357 c 0
 116 273 168 225 248 225 c 0
 333 225 380 273 380 356 c 0
 380 438 337 489 248 489 c 0xf760
EndSplineSet
Substitution2: "'smcp' Lowercase to Small Capitals lookup 24 subtable" gdotaccent.sc
Substitution2: "'aalt' Access All Alternates lookup 0 subtable" gdotaccent.sc
EndChar
StartChar: Gcommaaccent
Encoding: 290 290 104
Width: 618
GlyphClass: 2
Flags: MW
HStem: -11 51<281.5 377 281.5 385> 319 50<359 493 359 359> 645 51<297 382>
VStem: 66 63<240 453.5 240 462.5> 296 88<-135 -115 -135 -115> 493 59<76 319 319 319>
AnchorPoint: "Anchor-14" 0 0 basechar 0
AnchorPoint: "Anchor-13" 0 0 basechar 0
AnchorPoint: "Anchor-12" 352 685 basechar 0
AnchorPoint: "Anchor-11" 0 0 basechar 0
AnchorPoint: "Anchor-10" 340 0 basechar 0
LayerCount: 2
Back
Fore
SplineSet
350 696 m 0
 432 696 484 673 540 628 c 1
 504 591 l 1
 456 628 413 645 351 645 c 0
 243 645 129 562 129 345 c 0
 129 135 214 40 349 40 c 0
 405 40 450 52 493 76 c 1
 493 319 l 1
 359 319 l 1
 352 369 l 1
 552 369 l 1
 552 45 l 1
 492 10 424 -11 346 -11 c 0
 179 -11 66 108 66 345 c 0
 66 580 207 696 350 696 c 0
340 -85 m 0
 366 -85 384 -103 384 -127 c 0
 384 -143 379 -156 362 -193 c 2
 322 -279 l 1
 286 -279 l 1
 318 -165 l 1
 304 -156 296 -144 296 -127 c 0
 296 -103 315 -85 340 -85 c 0
EndSplineSet
Substitution2: "'c2sc' Capitals to Small Capitals lookup 26 subtable" gcommaaccent.sc
Substitution2: "'aalt' Access All Alternates lookup 0 subtable" gcommaaccent.sc
Position2: "'cpsp' Capital Spacing lookup 0 subtable" dx=5 dy=0 dh=10 dv=0
EndChar

StartChar: gcommaaccent
Encoding: 291 291 171
Width: 503
GlyphClass: 2
Flags: MW
HStem: -205 48<188.5 312 188.5 327.5> 29 50<172.5 310 225 301> 183 42<237.5 290.5 208 309> 489 45<203.5 248 190.5 292.5> 497 37 548 20G<477 477>
VStem: 56 60<322 395.5 315 409.5> 87 55<117.5 138.5> 207 88<638 658> 380 59<314.5 391 304 397> 419 59<-89 -30>
AnchorPoint: "Anchor-11" 0 0 basechar 0
AnchorPoint: "Anchor-10" 0 0 basechar 0
AnchorPoint: "Anchor-9" 252 523 basechar 0
AnchorPoint: "Anchor-8" 0 0 basechar 0
LayerCount: 2
Fore
SplineSet
251 608 m 0xf6c0
 225 608 207 626 207 650 c 0
 207 666 212 679 229 716 c 2
 269 802 l 1
 305 802 l 1
 273 688 l 1
 288 679 295 667 295 650 c 0
 295 626 277 608 251 608 c 0xf6c0
495 512 m 1xeec0
 459 502 413 498 350 497 c 1
 405 471 439 427 439 355 c 0xeec0
 439 253 368 183 250 183 c 0
 225 183 202 186 182 193 c 1
 157 179 142 157 142 133 c 0
 142 102 162 79 225 79 c 2
 310 79 l 2
 414 79 478 23 478 -55 c 0
 478 -149 404 -205 251 -205 c 0
 93 -205 33 -159 33 -55 c 1
 87 -55 l 1
 88 -128 126 -157 251 -157 c 0
 373 -157 419 -120 419 -58 c 0
 419 -2 375 29 301 29 c 2
 216 29 l 2
 129 29 87 71 87 121 c 0xf5a0
 87 156 108 187 144 210 c 1
 84 241 56 287 56 357 c 0
 56 462 133 534 248 534 c 1xf6c0
 388 532 426 547 477 568 c 1
 495 512 l 1xeec0
248 489 m 0xf6c0
 159 489 116 434 116 357 c 0
 116 273 168 225 248 225 c 0
 333 225 380 273 380 356 c 0
 380 438 337 489 248 489 c 0xf6c0
EndSplineSet
Substitution2: "'smcp' Lowercase to Small Capitals lookup 24 subtable" gcommaaccent.sc
Substitution2: "'aalt' Access All Alternates lookup 0 subtable" gcommaaccent.sc
EndChar
StartChar: Hcircumflex
Encoding: 292 292 112
Width: 670
GlyphClass: 2
Flags: MW
HStem: 0 21G<111 171 111 111 499 559 499 499> 335 51<171 499 171 499> 665 20G<111 171 171 171 499 559 559 559>
VStem: 111 60<0 335 0 386 386 685> 499 60<0 335 335 335 386 685 0 685>
AnchorPoint: "Anchor-14" 334 343 basechar 0
AnchorPoint: "Anchor-13" 431 755 basechar 0
AnchorPoint: "Anchor-12" 334 894 basechar 0
AnchorPoint: "Anchor-11" 0 0 basechar 0
AnchorPoint: "Anchor-10" 335 0 basechar 0
LayerCount: 2
Back
Fore
SplineSet
455 762 m 1
 334 842 l 1
 212 762 l 1
 186 792 l 1
 316 894 l 1
 352 894 l 1
 481 792 l 1
 455 762 l 1
499 0 m 1
 499 335 l 1
 171 335 l 1
 171 0 l 1
 111 0 l 1
 111 685 l 1
 171 685 l 1
 171 386 l 1
 499 386 l 1
 499 685 l 1
 559 685 l 1
 559 0 l 1
 499 0 l 1
EndSplineSet
Substitution2: "'c2sc' Capitals to Small Capitals lookup 26 subtable" hcircumflex.sc
Substitution2: "'aalt' Access All Alternates lookup 0 subtable" hcircumflex.sc
Position2: "'cpsp' Capital Spacing lookup 0 subtable" dx=5 dy=0 dh=10 dv=0
EndChar

StartChar: Hbar
Encoding: 294 294 41
Width: 668
GlyphClass: 2
Flags: MW
HStem: 0 21G<115 175 115 115 503 563 503 503> 335 51<175 503 175 503> 513 45<46 115 46 115 175 503 563 622> 513 172<46 175 46 175 115 175 115 503>
VStem: 115 60<0 335 0 386 386 513 558 685> 503 60<0 335 335 335 386 513 0 513 558 685>
AnchorPoint: "Anchor-11" 0 0 basechar 0
AnchorPoint: "Anchor-10" 94 685 basechar 0
AnchorPoint: "Anchor-9" 338 685 basechar 0
AnchorPoint: "Anchor-8" 0 0 basechar 0
LayerCount: 2
Fore
SplineSet
622 513 m 1xec
 563 513 l 1
 563 0 l 1
 503 0 l 1
 503 335 l 1
 175 335 l 1
 175 0 l 1
 115 0 l 1
 115 513 l 1
 46 513 l 1
 46 558 l 1
 115 558 l 1xec
 115 685 l 1
 175 685 l 1xdc
 175 558 l 1
 503 558 l 1xec
 503 685 l 1
 563 685 l 1xdc
 563 558 l 1
 622 558 l 1
 622 513 l 1xec
503 513 m 1
 175 513 l 1
 175 386 l 1
 503 386 l 1
 503 513 l 1
EndSplineSet
Substitution2: "'c2sc' Capitals to Small Capitals lookup 23 subtable" hbar.sc
Substitution2: "'aalt' Access All Alternates lookup 0 subtable" hbar.sc
Position2: "'cpsp' Capital Spacing lookup 0 subtable" dx=5 dy=0 dh=10 dv=0
EndChar

StartChar: Itilde
Encoding: 296 296 53
Width: 282
GlyphClass: 2
Flags: MW
HStem: 0 21G<111 171 111 111> 665 20G<111 171 171 171> 792 47<180 210 180 219> 838 46<68.5 99.5>
VStem: 111 60<0 685>
AnchorPoint: "Anchor-11" 0 0 basechar 0
AnchorPoint: "Anchor-10" 90 685 basechar 0
AnchorPoint: "Anchor-9" 141 685 basechar 0
AnchorPoint: "Anchor-8" 181 0 basechar 0
LayerCount: 2
Fore
SplineSet
203 792 m 0xe8
 145 792 117 838 82 838 c 0
 55 838 44 825 26 798 c 1
 -10 816 l 1
 12 856 41 884 82 884 c 0xd8
 128 884 160 839 200 839 c 0
 220 839 235 851 255 882 c 1
 291 864 l 1
 267 814 235 792 203 792 c 0xe8
171 0 m 1xd8
 111 0 l 1
 111 685 l 1
 171 685 l 1
 171 0 l 1xd8
EndSplineSet
Substitution2: "'c2sc' Capitals to Small Capitals lookup 23 subtable" itilde.sc
Substitution2: "'aalt' Access All Alternates lookup 0 subtable" itilde.sc
Position2: "'cpsp' Capital Spacing lookup 0 subtable" dx=5 dy=0 dh=10 dv=0
EndChar

StartChar: itilde
Encoding: 297 297 187
Width: 270
GlyphClass: 2
Flags: MW
HStem: 0 21G<106 164 106 106> 503 20G<106 164 164 164> 666 47<174 204 174 213> 670 20G<-16 -16> 712 46<62.5 93.5> 718 20G<285 285>
VStem: 106 58<0 523>
AnchorPoint: "Anchor-11" 0 0 basechar 0
AnchorPoint: "Anchor-10" 0 0 basechar 0
AnchorPoint: "Anchor-9" 135 523 basechar 0
AnchorPoint: "Anchor-8" 174 0 basechar 0
LayerCount: 2
Fore
SplineSet
197 666 m 0xe2
 139 666 111 712 76 712 c 0xda
 49 712 38 699 20 672 c 1xd6
 -16 690 l 1
 6 730 35 758 76 758 c 0xda
 122 758 154 713 194 713 c 0
 214 713 229 725 249 756 c 1xe2
 285 738 l 1xd6
 261 688 229 666 197 666 c 0xe2
164 0 m 1xd6
 106 0 l 1
 106 523 l 1
 164 523 l 1
 164 0 l 1xd6
EndSplineSet
Substitution2: "'smcp' Lowercase to Small Capitals lookup 24 subtable" itilde.sc
Substitution2: "'aalt' Access All Alternates lookup 0 subtable" itilde.sc
EndChar
StartChar: Imacron
Encoding: 298 298 132
Width: 282
GlyphClass: 2
Flags: MW
HStem: 0 21G<111 171 111 111> 665 20G<111 171 171 171> 802 47<20 261 20 261>
VStem: 111 60<0 685 0 685>
AnchorPoint: "Anchor-14" 0 0 basechar 0
AnchorPoint: "Anchor-13" 0 0 basechar 0
AnchorPoint: "Anchor-12" 143 849 basechar 0
AnchorPoint: "Anchor-11" 181 0 basechar 0
AnchorPoint: "Anchor-10" 141 0 basechar 0
LayerCount: 2
Back
Fore
SplineSet
261 802 m 1
 20 802 l 1
 20 849 l 1
 261 849 l 1
 261 802 l 1
171 685 m 1
 171 0 l 1
 111 0 l 1
 111 685 l 1
 171 685 l 1
EndSplineSet
Substitution2: "'c2sc' Capitals to Small Capitals lookup 26 subtable" imacron.sc
Substitution2: "'aalt' Access All Alternates lookup 0 subtable" imacron.sc
Position2: "'cpsp' Capital Spacing lookup 0 subtable" dx=5 dy=0 dh=10 dv=0
EndChar

StartChar: imacron
Encoding: 299 299 185
Width: 270
GlyphClass: 2
Flags: MW
HStem: 0 21G<106 164 106 106> 503 20G<106 164 164 164> 676 47<14 255 14 255>
VStem: 106 58<0 523>
AnchorPoint: "Anchor-11" 0 0 basechar 0
AnchorPoint: "Anchor-10" 0 0 basechar 0
AnchorPoint: "Anchor-9" 135 523 basechar 0
AnchorPoint: "Anchor-8" 174 0 basechar 0
LayerCount: 2
Fore
SplineSet
14 676 m 1
 14 723 l 1
 255 723 l 1
 255 676 l 1
 14 676 l 1
164 0 m 1
 106 0 l 1
 106 523 l 1
 164 523 l 1
 164 0 l 1
EndSplineSet
Substitution2: "'smcp' Lowercase to Small Capitals lookup 24 subtable" imacron.sc
Substitution2: "'aalt' Access All Alternates lookup 0 subtable" imacron.sc
EndChar
StartChar: ibreve
Encoding: 301 301 481
Width: 270
GlyphClass: 2
Flags: MW
HStem: 0 21G<106 164 106 106> 503 20G<106 164 164 164> 653 47<110.5 157.5 110.5 168.5>
VStem: 106 58<0 523 0 523>
AnchorPoint: "Anchor-14" 0 0 basechar 0
AnchorPoint: "Anchor-13" 0 0 basechar 0
AnchorPoint: "Anchor-12" 137 772 basechar 0
AnchorPoint: "Anchor-11" 174 0 basechar 0
AnchorPoint: "Anchor-10" 135 0 basechar 0
LayerCount: 2
Back
Fore
SplineSet
134 653 m 0
 65 653 13 696 4 763 c 1
 44 772 l 1
 57 725 87 700 134 700 c 0
 181 700 212 725 225 772 c 1
 265 763 l 1
 256 696 203 653 134 653 c 0
164 523 m 1
 164 0 l 1
 106 0 l 1
 106 523 l 1
 164 523 l 1
EndSplineSet
Substitution2: "'smcp' Lowercase to Small Capitals lookup 27 subtable" ibreve.sc
Substitution2: "'aalt' Access All Alternates lookup 0 subtable" ibreve.sc
EndChar

StartChar: Iogonek
Encoding: 302 302 52
Width: 282
GlyphClass: 2
Flags: MW
HStem: -218 48<92 118> -211 21G<165 165> 0 21G<172 172> 665 20G<111 171 171 171>
VStem: -4 54<-133.5 -98> 111 60<6 685>
AnchorPoint: "Anchor-11" 0 0 basechar 0
AnchorPoint: "Anchor-10" 90 685 basechar 0
AnchorPoint: "Anchor-9" 141 685 basechar 0
AnchorPoint: "Anchor-8" 181 0 basechar 0
LayerCount: 2
Fore
SplineSet
50 -118 m 0xbc
 50 -149 70 -170 114 -170 c 0
 133 -170 148 -168 171 -163 c 1xbc
 165 -211 l 1
 145 -215 129 -218 107 -218 c 0
 34 -218 -4 -178 -4 -126 c 0x7c
 -4 -70 34 -29 111 6 c 1
 111 685 l 1
 171 685 l 1
 171 2 l 1
 172 0 l 1
 83 -40 50 -71 50 -118 c 0xbc
EndSplineSet
Substitution2: "'c2sc' Capitals to Small Capitals lookup 23 subtable" iogonek.sc
Substitution2: "'aalt' Access All Alternates lookup 0 subtable" iogonek.sc
Position2: "'cpsp' Capital Spacing lookup 0 subtable" dx=5 dy=0 dh=10 dv=0
EndChar
StartChar: iogonek
Encoding: 303 303 494
Width: 270
GlyphClass: 2
Flags: MW
HStem: -218 48<82 110> 0 21G<164 164> 503 20G<106 164 164 164> 669 84<121 147.5>
VStem: -12 54<-133.5 -97.5> 91 87<699.5 722.5> 106 58<7 523>
AnchorPoint: "Anchor-14" 0 0 basechar 0
AnchorPoint: "Anchor-13" 0 0 basechar 0
AnchorPoint: "Anchor-12" 136 706 basechar 0
AnchorPoint: "Anchor-11" 174 0 basechar 0
AnchorPoint: "Anchor-10" 135 0 basechar 0
LayerCount: 2
Back
Fore
SplineSet
134 753 m 0xfc
 161 753 178 734 178 711 c 0
 178 688 161 669 134 669 c 0
 108 669 91 688 91 711 c 0
 91 734 108 753 134 753 c 0xfc
164 0 m 1xfa
 75 -40 42 -71 42 -118 c 0
 42 -149 60 -170 104 -170 c 0
 124 -170 140 -168 163 -163 c 1
 157 -211 l 1
 137 -215 121 -218 99 -218 c 0
 26 -218 -12 -178 -12 -126 c 0
 -12 -69 27 -28 106 7 c 1
 106 523 l 1
 164 523 l 1
 164 0 l 1xfa
EndSplineSet
Substitution2: "'smcp' Lowercase to Small Capitals lookup 27 subtable" iogonek.sc
Substitution2: "'aalt' Access All Alternates lookup 0 subtable" iogonek.sc
EndChar
StartChar: Idotaccent
Encoding: 304 304 127
Width: 282
GlyphClass: 2
Flags: MW
HStem: 0 21G<111 171 111 111> 665 20G<111 171 171 171> 795 84<127 153.5>
VStem: 97 87<825.5 848.5> 111 60<0 685 0 685>
AnchorPoint: "Anchor-14" 0 0 basechar 0
AnchorPoint: "Anchor-13" 0 0 basechar 0
AnchorPoint: "Anchor-12" 143 879 basechar 0
AnchorPoint: "Anchor-11" 181 0 basechar 0
AnchorPoint: "Anchor-10" 141 0 basechar 0
LayerCount: 2
Back
Fore
SplineSet
140 879 m 0xf0
 167 879 184 860 184 837 c 0
 184 814 167 795 140 795 c 0
 114 795 97 814 97 837 c 0
 97 860 114 879 140 879 c 0xf0
171 685 m 1xe8
 171 0 l 1
 111 0 l 1
 111 685 l 1
 171 685 l 1xe8
EndSplineSet
Substitution2: "'c2sc' Capitals to Small Capitals lookup 26 subtable" i.sc.loclTRK
Substitution2: "'aalt' Access All Alternates lookup 0 subtable" i.sc.loclTRK
Position2: "'cpsp' Capital Spacing lookup 0 subtable" dx=5 dy=0 dh=10 dv=0
EndChar
StartChar: dotlessi
Encoding: 305 305 479
Width: 270
GlyphClass: 2
Flags: MW
HStem: 0 21G<106 164 106 106> 503 20G<106 164 164 164>
VStem: 106 58<0 523 0 523>
AnchorPoint: "Anchor-14" 0 0 basechar 0
AnchorPoint: "Anchor-13" 0 0 basechar 0
AnchorPoint: "Anchor-12" 135 523 basechar 0
AnchorPoint: "Anchor-11" 174 0 basechar 0
AnchorPoint: "Anchor-10" 135 0 basechar 0
LayerCount: 2
Back
Fore
SplineSet
164 523 m 1
 164 0 l 1
 106 0 l 1
 106 523 l 1
 164 523 l 1
EndSplineSet
Substitution2: "'smcp' Lowercase to Small Capitals lookup 27 subtable" dotlessi.sc
Substitution2: "'aalt' Access All Alternates lookup 0 subtable" dotlessi.sc
EndChar
StartChar: IJ
Encoding: 306 306 119
Width: 573
GlyphClass: 2
Flags: MW
HStem: 0 21G<111 171 111 111> 665 20G<111 171 171 171 407 467 467 467>
VStem: 111 60<0 685 0 685> 407 60<95 685>
AnchorPoint: "Anchor-14" 0 0 basechar 0
AnchorPoint: "Anchor-13" 0 0 basechar 0
AnchorPoint: "Anchor-12" 436 685 basechar 0
AnchorPoint: "Anchor-11" 181 0 basechar 0
AnchorPoint: "Anchor-10" 141 0 basechar 0
LayerCount: 2
Back
Fore
SplineSet
171 685 m 1
 171 0 l 1
 111 0 l 1
 111 685 l 1
 171 685 l 1
467 685 m 1
 467 92 l 2
 467 -30 423 -76 311 -119 c 1
 295 -75 l 1
 386 -35 407 2 407 95 c 2
 407 685 l 1
 467 685 l 1
EndSplineSet
Substitution2: "'c2sc' Capitals to Small Capitals lookup 26 subtable" ij.sc
Substitution2: "'aalt' Access All Alternates lookup 0 subtable" ij.sc
Position2: "'cpsp' Capital Spacing lookup 0 subtable" dx=5 dy=0 dh=10 dv=0
EndChar
StartChar: ij
Encoding: 307 307 492
Width: 540
GlyphClass: 2
Flags: MW
HStem: -203 21G<293 293> 0 21G<106 164 106 106> 503 20G<106 164 164 164 376 434 434 434> 669 84<121 147.5 391 417.5>
VStem: 91 87<699.5 722.5> 106 58<0 523 0 523> 361 87<699.5 722.5> 376 58<17 19 19 523>
AnchorPoint: "Anchor-14" 0 0 basechar 0
AnchorPoint: "Anchor-13" 0 0 basechar 0
AnchorPoint: "Anchor-12" 405 706 basechar 0
AnchorPoint: "Anchor-11" 174 0 basechar 0
AnchorPoint: "Anchor-10" 405 -197 basechar 0
LayerCount: 2
Back
Fore
SplineSet
134 753 m 0xfa
 161 753 178 734 178 711 c 0
 178 688 161 669 134 669 c 0
 108 669 91 688 91 711 c 0
 91 734 108 753 134 753 c 0xfa
404 753 m 0
 431 753 448 734 448 711 c 0
 448 688 431 669 404 669 c 0
 378 669 361 688 361 711 c 0
 361 734 378 753 404 753 c 0
164 523 m 1xf5
 164 0 l 1
 106 0 l 1
 106 523 l 1
 164 523 l 1xf5
434 523 m 1
 434 19 l 2
 434 -121 388 -159 293 -203 c 1
 276 -161 l 1
 345 -127 376 -99 376 17 c 2
 376 523 l 1
 434 523 l 1
EndSplineSet
Substitution2: "'smcp' Lowercase to Small Capitals lookup 27 subtable" ij.sc
Substitution2: "'aalt' Access All Alternates lookup 0 subtable" ij.sc
EndChar
StartChar: Jcircumflex
Encoding: 308 308 138
Width: 291
GlyphClass: 2
Flags: MW
HStem: 665 20G<125 185 185 185>
VStem: 125 60<95 685>
AnchorPoint: "Anchor-14" 0 0 basechar 0
AnchorPoint: "Anchor-13" 251 755 basechar 0
AnchorPoint: "Anchor-12" 154 894 basechar 0
AnchorPoint: "Anchor-11" 0 0 basechar 0
AnchorPoint: "Anchor-10" 0 0 basechar 0
LayerCount: 2
Back
Fore
SplineSet
275 762 m 1
 154 842 l 1
 32 762 l 1
 6 792 l 1
 136 894 l 1
 172 894 l 1
 301 792 l 1
 275 762 l 1
185 685 m 1
 185 92 l 2
 185 -30 141 -76 29 -119 c 1
 13 -75 l 1
 104 -35 125 2 125 95 c 2
 125 685 l 1
 185 685 l 1
EndSplineSet
Substitution2: "'c2sc' Capitals to Small Capitals lookup 26 subtable" jcircumflex.sc
Substitution2: "'aalt' Access All Alternates lookup 0 subtable" jcircumflex.sc
Position2: "'cpsp' Capital Spacing lookup 0 subtable" dx=5 dy=0 dh=10 dv=0
EndChar
StartChar: jcircumflex
Encoding: 309 309 501
Width: 270
GlyphClass: 2
Flags: MW
HStem: -203 21G<23 23> 503 20G<106 164 164 164>
VStem: 106 58<17 19 19 523>
AnchorPoint: "Anchor-14" 0 0 basechar 0
AnchorPoint: "Anchor-13" 0 0 basechar 0
AnchorPoint: "Anchor-12" 137 779 basechar 0
AnchorPoint: "Anchor-11" 0 0 basechar 0
AnchorPoint: "Anchor-10" 135 -197 basechar 0
LayerCount: 2
Back
Fore
SplineSet
13 643 m 1
 -13 674 l 1
 116 779 l 1
 152 779 l 1
 282 674 l 1
 256 643 l 1
 134 728 l 1
 13 643 l 1
164 523 m 1
 164 19 l 2
 164 -121 118 -159 23 -203 c 1
 6 -161 l 1
 75 -127 106 -99 106 17 c 2
 106 523 l 1
 164 523 l 1
EndSplineSet
Substitution2: "'smcp' Lowercase to Small Capitals lookup 27 subtable" jcircumflex.sc
Substitution2: "'aalt' Access All Alternates lookup 0 subtable" jcircumflex.sc
EndChar
StartChar: Kcommaaccent
Encoding: 310 310 142
Width: 547
GlyphClass: 2
Flags: MW
HStem: 0 21G<111 171 111 111 474 474 474 547> 665 20G<111 171 171 171 461 530 530 530>
VStem: 111 60<0 685 0 685> 263 88<-135 -115 -135 -115>
AnchorPoint: "Anchor-14" 0 0 basechar 0
AnchorPoint: "Anchor-13" 0 0 basechar 0
AnchorPoint: "Anchor-12" 307 685 basechar 0
AnchorPoint: "Anchor-11" 0 0 basechar 0
AnchorPoint: "Anchor-10" 307 0 basechar 0
LayerCount: 2
Back
Fore
SplineSet
171 685 m 1
 171 0 l 1
 111 0 l 1
 111 685 l 1
 171 685 l 1
530 685 m 1
 246 370 l 1
 547 0 l 1
 474 0 l 1
 175 367 l 1
 461 685 l 1
 530 685 l 1
307 -85 m 0
 333 -85 351 -103 351 -127 c 0
 351 -143 346 -156 329 -193 c 2
 289 -279 l 1
 253 -279 l 1
 285 -165 l 1
 271 -156 263 -144 263 -127 c 0
 263 -103 282 -85 307 -85 c 0
EndSplineSet
Substitution2: "'c2sc' Capitals to Small Capitals lookup 26 subtable" kcommaaccent.sc
Substitution2: "'aalt' Access All Alternates lookup 0 subtable" kcommaaccent.sc
Position2: "'cpsp' Capital Spacing lookup 0 subtable" dx=5 dy=0 dh=10 dv=0
EndChar
StartChar: kcommaaccent
Encoding: 311 311 508
Width: 488
GlyphClass: 2
Flags: MW
HStem: 0 21G<106 164 106 106 410 410 410 480> 503 20G<390 457 457 457> 716 20G<106 106> 723 20G<164 164>
VStem: 106 58<0 736 736 736> 219 88<-135 -115 -135 -115>
AnchorPoint: "Anchor-14" 0 0 basechar 0
AnchorPoint: "Anchor-13" 0 0 basechar 0
AnchorPoint: "Anchor-12" 269 736 basechar 0
AnchorPoint: "Anchor-11" 0 0 basechar 0
AnchorPoint: "Anchor-10" 262 0 basechar 0
LayerCount: 2
Back
Fore
SplineSet
164 743 m 1xd8
 164 0 l 1
 106 0 l 1
 106 736 l 1xec
 164 743 l 1xd8
457 523 m 1
 237 289 l 1
 480 0 l 1
 410 0 l 1
 170 286 l 1
 390 523 l 1
 457 523 l 1
263 -85 m 0
 289 -85 307 -103 307 -127 c 0
 307 -143 302 -156 285 -193 c 2
 245 -279 l 1
 209 -279 l 1
 241 -165 l 1
 227 -156 219 -144 219 -127 c 0
 219 -103 238 -85 263 -85 c 0
EndSplineSet
Substitution2: "'smcp' Lowercase to Small Capitals lookup 27 subtable" kcommaaccent.sc
Substitution2: "'aalt' Access All Alternates lookup 0 subtable" kcommaaccent.sc
EndChar

StartChar: kgreenlandic
Encoding: 312 312 193
Width: 487
GlyphClass: 2
Flags: MW
HStem: 0 21G<106 164 106 106 409 409 409 479> 503 20G<106 164 164 164 388 456 456 456>
VStem: 106 58<0 523>
LayerCount: 2
Fore
SplineSet
164 0 m 1
 106 0 l 1
 106 523 l 1
 164 523 l 1
 164 0 l 1
236 279 m 1
 479 0 l 1
 409 0 l 1
 169 276 l 1
 388 523 l 1
 456 523 l 1
 236 279 l 1
EndSplineSet
Substitution2: "'smcp' Lowercase to Small Capitals lookup 24 subtable" kgreenlandic.sc
Substitution2: "'aalt' Access All Alternates lookup 0 subtable" kgreenlandic.sc
EndChar

StartChar: Lacute
Encoding: 313 313 59
Width: 474
GlyphClass: 2
Flags: MW
HStem: 0 54<171 449> 665 20G<111 171 171 171>
VStem: 111 60<54 54 54 685>
AnchorPoint: "Anchor-11" 282 0 basechar 0
AnchorPoint: "Anchor-10" 0 0 basechar 0
AnchorPoint: "Anchor-9" 141 685 basechar 0
AnchorPoint: "Anchor-8" 0 0 basechar 0
LayerCount: 2
Fore
SplineSet
252 836 m 1
 54 758 l 1
 38 792 l 1
 225 888 l 1
 252 836 l 1
171 54 m 1
 457 54 l 1
 449 0 l 1
 111 0 l 1
 111 685 l 1
 171 685 l 1
 171 54 l 1
EndSplineSet
Substitution2: "'c2sc' Capitals to Small Capitals lookup 23 subtable" lacute.sc
Substitution2: "'aalt' Access All Alternates lookup 0 subtable" lacute.sc
Position2: "'cpsp' Capital Spacing lookup 0 subtable" dx=5 dy=0 dh=10 dv=0
EndChar
StartChar: lacute
Encoding: 314 314 513
Width: 284
GlyphClass: 2
Flags: MW
HStem: -11 50<186.5 204> 716 20G<101 101> 723 20G<159 159>
VStem: 101 58<88 90 90 736 736 736>
AnchorPoint: "Anchor-14" 278 377 basechar 0
AnchorPoint: "Anchor-13" 180 736 basechar 0
AnchorPoint: "Anchor-12" 132 939 basechar 0
AnchorPoint: "Anchor-11" 0 0 basechar 0
AnchorPoint: "Anchor-10" 179 0 basechar 0
LayerCount: 2
Back
Fore
SplineSet
210 939 m 1xb0
 237 887 l 1
 39 809 l 1
 23 843 l 1
 210 939 l 1xb0
193 -11 m 0
 138 -11 101 21 101 88 c 2
 101 736 l 1xd0
 159 743 l 1
 159 90 l 2
 159 56 172 39 201 39 c 0
 214 39 226 41 237 46 c 1
 253 3 l 1
 237 -5 215 -11 193 -11 c 0
EndSplineSet
Substitution2: "'smcp' Lowercase to Small Capitals lookup 27 subtable" lacute.sc
Substitution2: "'aalt' Access All Alternates lookup 0 subtable" lacute.sc
EndChar

StartChar: Lcommaaccent
Encoding: 315 315 61
Width: 474
GlyphClass: 2
Flags: MW
HStem: 0 54<171 449> 665 20G<111 171 171 171>
VStem: 111 60<54 54 54 685> 238 88<-135 -115 -135 -115>
AnchorPoint: "Anchor-11" 282 0 basechar 0
AnchorPoint: "Anchor-10" 0 0 basechar 0
AnchorPoint: "Anchor-9" 141 685 basechar 0
AnchorPoint: "Anchor-8" 0 0 basechar 0
LayerCount: 2
Fore
SplineSet
171 54 m 1
 457 54 l 1
 449 0 l 1
 111 0 l 1
 111 685 l 1
 171 685 l 1
 171 54 l 1
282 -85 m 0
 308 -85 326 -103 326 -127 c 0
 326 -143 321 -156 304 -193 c 2
 264 -279 l 1
 228 -279 l 1
 260 -165 l 1
 245 -156 238 -144 238 -127 c 0
 238 -103 256 -85 282 -85 c 0
EndSplineSet
Substitution2: "'c2sc' Capitals to Small Capitals lookup 23 subtable" lcommaaccent.sc
Substitution2: "'aalt' Access All Alternates lookup 0 subtable" lcommaaccent.sc
Position2: "'cpsp' Capital Spacing lookup 0 subtable" dx=5 dy=0 dh=10 dv=0
EndChar
StartChar: lcommaaccent
Encoding: 316 316 519
Width: 284
GlyphClass: 2
Flags: MW
HStem: -11 50<186.5 204> 716 20G<101 101> 723 20G<159 159>
VStem: 101 58<88 90 90 736 736 736> 136 88<-135 -115 -135 -115>
AnchorPoint: "Anchor-14" 278 377 basechar 0
AnchorPoint: "Anchor-13" 180 736 basechar 0
AnchorPoint: "Anchor-12" 130 736 basechar 0
AnchorPoint: "Anchor-11" 0 0 basechar 0
AnchorPoint: "Anchor-10" 179 0 basechar 0
LayerCount: 2
Back
Fore
SplineSet
193 -11 m 0xb0
 138 -11 101 21 101 88 c 2
 101 736 l 1xd0
 159 743 l 1
 159 90 l 2
 159 56 172 39 201 39 c 0
 214 39 226 41 237 46 c 1
 253 3 l 1
 237 -5 215 -11 193 -11 c 0xb0
180 -85 m 0xa8
 206 -85 224 -103 224 -127 c 0
 224 -143 219 -156 202 -193 c 2
 162 -279 l 1
 126 -279 l 1
 158 -165 l 1
 144 -156 136 -144 136 -127 c 0
 136 -103 155 -85 180 -85 c 0xa8
EndSplineSet
Substitution2: "'smcp' Lowercase to Small Capitals lookup 27 subtable" lcommaaccent.sc
Substitution2: "'aalt' Access All Alternates lookup 0 subtable" lcommaaccent.sc
EndChar

StartChar: Lcaron
Encoding: 317 317 60
Width: 474
GlyphClass: 2
Flags: MW
HStem: 0 54<171 449> 506 20G<241 241> 665 20G<111 171 171 171 314 314> 671 20G<258 258>
VStem: 111 60<54 54 54 685>
AnchorPoint: "Anchor-11" 282 0 basechar 0
AnchorPoint: "Anchor-10" 0 0 basechar 0
AnchorPoint: "Anchor-9" 141 685 basechar 0
AnchorPoint: "Anchor-8" 0 0 basechar 0
LayerCount: 2
Fore
SplineSet
314 685 m 1xe8
 277 521 l 1
 241 526 l 1
 258 691 l 1xd8
 314 685 l 1xe8
171 54 m 1
 457 54 l 1
 449 0 l 1
 111 0 l 1
 111 685 l 1
 171 685 l 1xe8
 171 54 l 1
EndSplineSet
Substitution2: "'c2sc' Capitals to Small Capitals lookup 23 subtable" lcaron.sc
Substitution2: "'aalt' Access All Alternates lookup 0 subtable" lcaron.sc
Position2: "'cpsp' Capital Spacing lookup 0 subtable" dx=5 dy=0 dh=10 dv=0
EndChar

StartChar: lcaron
Encoding: 318 318 196
Width: 284
GlyphClass: 2
Flags: MW
HStem: -11 50<186.5 202> 716 20G<101 101 297 297> 722 20G<241 241> 723 20G<159 159>
VStem: 101 58<90 736 736 736>
AnchorPoint: "Anchor-11" 137 0 basechar 0
AnchorPoint: "Anchor-10" 0 0 basechar 0
AnchorPoint: "Anchor-9" 0 0 basechar 0
AnchorPoint: "Anchor-8" 0 0 basechar 0
LayerCount: 2
Fore
SplineSet
159 90 m 2x98
 159 56 171 39 202 39 c 0
 214 39 226 41 237 46 c 1
 253 3 l 1
 235 -5 213 -11 191 -11 c 0
 135 -11 101 21 101 90 c 2
 101 736 l 1xc8
 159 743 l 1
 159 90 l 2x98
297 736 m 1xc8
 260 572 l 1
 224 577 l 1
 241 742 l 1xa8
 297 736 l 1xc8
EndSplineSet
Substitution2: "'smcp' Lowercase to Small Capitals lookup 24 subtable" lcaron.sc
Substitution2: "'aalt' Access All Alternates lookup 0 subtable" lcaron.sc
EndChar

StartChar: Ldot
Encoding: 319 319 62
Width: 474
GlyphClass: 2
Flags: MW
HStem: 0 54<171 449> 327 84<356 382.5> 665 20G<111 171 171 171>
VStem: 111 60<54 54 54 685> 326 87<357.5 380.5>
AnchorPoint: "Anchor-11" 282 0 basechar 0
AnchorPoint: "Anchor-10" 0 0 basechar 0
AnchorPoint: "Anchor-9" 141 685 basechar 0
AnchorPoint: "Anchor-8" 0 0 basechar 0
LayerCount: 2
Fore
SplineSet
171 54 m 1
 457 54 l 1
 449 0 l 1
 111 0 l 1
 111 685 l 1
 171 685 l 1
 171 54 l 1
369 411 m 0
 396 411 413 392 413 369 c 0
 413 346 396 327 369 327 c 0
 343 327 326 346 326 369 c 0
 326 392 343 411 369 411 c 0
EndSplineSet
Ligature2: "Ligature Substitution lookup 29 subtable" L periodcentered
Substitution2: "'c2sc' Capitals to Small Capitals lookup 23 subtable" ldot.sc
Substitution2: "'aalt' Access All Alternates lookup 0 subtable" ldot.sc
Position2: "'cpsp' Capital Spacing lookup 0 subtable" dx=5 dy=0 dh=10 dv=0
EndChar

StartChar: ldot
Encoding: 320 320 198
Width: 304
GlyphClass: 2
Flags: MW
HStem: -11 50<186.5 202> 334 84<264 290.5> 716 20G<101 101> 723 20G<159 159>
VStem: 101 58<90 736 736 736> 234 87<364.5 387.5>
AnchorPoint: "Anchor-11" 137 0 basechar 0
AnchorPoint: "Anchor-10" 0 0 basechar 0
AnchorPoint: "Anchor-9" 0 0 basechar 0
AnchorPoint: "Anchor-8" 0 0 basechar 0
LayerCount: 2
Fore
SplineSet
159 90 m 2xd8
 159 56 171 39 202 39 c 0
 214 39 226 41 237 46 c 1
 253 3 l 1
 235 -5 213 -11 191 -11 c 0
 135 -11 101 21 101 90 c 2
 101 736 l 1xe8
 159 743 l 1
 159 90 l 2xd8
277 418 m 0xdc
 304 418 321 399 321 376 c 0
 321 353 304 334 277 334 c 0
 251 334 234 353 234 376 c 0
 234 399 251 418 277 418 c 0xdc
EndSplineSet
Ligature2: "Ligature Substitution lookup 29 subtable" l periodcentered
Substitution2: "'smcp' Lowercase to Small Capitals lookup 24 subtable" ldot.sc
Substitution2: "'aalt' Access All Alternates lookup 0 subtable" ldot.sc
EndChar

StartChar: Lslash
Encoding: 321 321 63
Width: 485
GlyphClass: 2
Flags: MW
HStem: 0 54<181 459> 665 20G<121 181 181 181>
VStem: 121 60<54 281 281 281 372 685>
AnchorPoint: "Anchor-11" 293 0 basechar 0
AnchorPoint: "Anchor-10" 0 0 basechar 0
AnchorPoint: "Anchor-9" 152 685 basechar 0
AnchorPoint: "Anchor-8" 0 0 basechar 0
LayerCount: 2
Fore
SplineSet
468 54 m 1
 459 0 l 1
 121 0 l 1
 121 281 l 1
 57 241 l 1
 33 280 l 1
 121 335 l 1
 121 685 l 1
 181 685 l 1
 181 372 l 1
 362 485 l 1
 387 446 l 1
 181 318 l 1
 181 54 l 1
 468 54 l 1
EndSplineSet
Substitution2: "'c2sc' Capitals to Small Capitals lookup 23 subtable" lslash.sc
Substitution2: "'aalt' Access All Alternates lookup 0 subtable" lslash.sc
Position2: "'cpsp' Capital Spacing lookup 0 subtable" dx=5 dy=0 dh=10 dv=0
EndChar

StartChar: lslash
Encoding: 322 322 199
Width: 292
GlyphClass: 2
Flags: MW
HStem: -11 50<192.5 209> 716 20G<107 107> 723 20G<165 165>
VStem: 107 58<90 330 330 330 421 736 736 736>
AnchorPoint: "Anchor-11" 144 0 basechar 0
AnchorPoint: "Anchor-10" 0 0 basechar 0
AnchorPoint: "Anchor-9" 0 0 basechar 0
AnchorPoint: "Anchor-8" 0 0 basechar 0
LayerCount: 2
Fore
SplineSet
208 39 m 0xb0
 221 39 233 41 244 46 c 1
 260 3 l 1
 241 -5 220 -11 198 -11 c 0
 141 -11 107 21 107 90 c 2
 107 330 l 1
 49 295 l 1
 28 337 l 1
 107 386 l 1
 107 736 l 1xd0
 165 743 l 1
 165 421 l 1
 254 476 l 1
 275 433 l 1
 165 366 l 1
 165 90 l 2
 165 56 177 39 208 39 c 0xb0
EndSplineSet
Substitution2: "'smcp' Lowercase to Small Capitals lookup 24 subtable" lslash.sc
Substitution2: "'aalt' Access All Alternates lookup 0 subtable" lslash.sc
EndChar
StartChar: nacute
Encoding: 324 324 537
Width: 584
GlyphClass: 2
Flags: MW
HStem: 0 21G<106 164 106 106 425 483 425 425> 487 47<299 358> 503 20G<106 156 156 156>
VStem: 106 58<0 379 0 523> 425 58<0 366 366 374 0 409>
AnchorPoint: "Anchor-14" 0 0 basechar 0
AnchorPoint: "Anchor-13" 0 0 basechar 0
AnchorPoint: "Anchor-12" 299 782 basechar 0
AnchorPoint: "Anchor-11" 0 0 basechar 0
AnchorPoint: "Anchor-10" 291 0 basechar 0
LayerCount: 2
Back
Fore
SplineSet
399 730 m 1xd8
 204 645 l 1
 185 679 l 1
 373 782 l 1
 399 730 l 1xd8
337 534 m 0
 432 534 483 475 483 374 c 2
 483 0 l 1
 425 0 l 1
 425 366 l 2
 425 452 390 487 326 487 c 0xd8
 255 487 207 443 164 379 c 1
 164 0 l 1
 106 0 l 1
 106 523 l 1
 156 523 l 1xb8
 161 434 l 1
 203 493 261 534 337 534 c 0
EndSplineSet
Substitution2: "'smcp' Lowercase to Small Capitals lookup 27 subtable" nacute.sc
Substitution2: "'locl' Localized Forms in Latin lookup 7 subtable" nacute.loclPLK
AlternateSubs2: "'aalt' Access All Alternates lookup 1 subtable" nacute.loclPLK nacute.sc
EndChar
StartChar: Ncommaaccent
Encoding: 325 325 165
Width: 673
GlyphClass: 2
Flags: MW
HStem: 0 21G<111 168 111 111 483 562 483 483> 0 66<513 513 513 562 483 513> 619 66<160 160> 665 20G<111 188 188 188 505 562 562 562>
VStem: 111 57<0 383 0 685> 293 88<-135 -115 -135 -115> 505 57<269 685 0 685>
AnchorPoint: "Anchor-14" 0 0 basechar 0
AnchorPoint: "Anchor-13" 0 0 basechar 0
AnchorPoint: "Anchor-12" 345 685 basechar 0
AnchorPoint: "Anchor-11" 0 0 basechar 0
AnchorPoint: "Anchor-10" 337 0 basechar 0
LayerCount: 2
Back
Fore
SplineSet
562 685 m 1x9a
 562 0 l 1
 483 0 l 1
 160 619 l 1xae
 163 572 168 506 168 383 c 2
 168 0 l 1
 111 0 l 1
 111 685 l 1
 188 685 l 1
 513 66 l 1x5a
 511 95 505 180 505 269 c 2
 505 685 l 1
 562 685 l 1x9a
337 -85 m 0
 363 -85 381 -103 381 -127 c 0
 381 -143 376 -156 359 -193 c 2
 319 -279 l 1
 283 -279 l 1
 315 -165 l 1
 301 -156 293 -144 293 -127 c 0
 293 -103 312 -85 337 -85 c 0
EndSplineSet
Substitution2: "'c2sc' Capitals to Small Capitals lookup 26 subtable" ncommaaccent.sc
Substitution2: "'aalt' Access All Alternates lookup 0 subtable" ncommaaccent.sc
Position2: "'cpsp' Capital Spacing lookup 0 subtable" dx=5 dy=0 dh=10 dv=0
EndChar
StartChar: ncommaaccent
Encoding: 326 326 542
Width: 584
GlyphClass: 2
Flags: MW
HStem: 0 21G<106 164 106 106 425 483 425 425> 487 47<299 358> 503 20G<106 156 156 156>
VStem: 106 58<0 379 0 523> 248 88<-135 -115 -135 -115> 425 58<0 366 366 374 0 409>
AnchorPoint: "Anchor-14" 0 0 basechar 0
AnchorPoint: "Anchor-13" 0 0 basechar 0
AnchorPoint: "Anchor-12" 297 523 basechar 0
AnchorPoint: "Anchor-11" 0 0 basechar 0
AnchorPoint: "Anchor-10" 291 0 basechar 0
LayerCount: 2
Back
Fore
SplineSet
337 534 m 0xd4
 432 534 483 475 483 374 c 2
 483 0 l 1
 425 0 l 1
 425 366 l 2
 425 452 390 487 326 487 c 0xd4
 255 487 207 443 164 379 c 1
 164 0 l 1
 106 0 l 1
 106 523 l 1
 156 523 l 1xb4
 161 434 l 1
 203 493 261 534 337 534 c 0xd4
292 -85 m 0xdc
 318 -85 336 -103 336 -127 c 0
 336 -143 331 -156 314 -193 c 2
 274 -279 l 1
 238 -279 l 1
 270 -165 l 1
 256 -156 248 -144 248 -127 c 0
 248 -103 267 -85 292 -85 c 0xdc
EndSplineSet
Substitution2: "'smcp' Lowercase to Small Capitals lookup 27 subtable" ncommaaccent.sc
Substitution2: "'aalt' Access All Alternates lookup 0 subtable" ncommaaccent.sc
EndChar

StartChar: Ncaron
Encoding: 327 327 67
Width: 673
GlyphClass: 2
Flags: MW
HStem: 0 21G<111 168 111 111 483 562 483 483> 0 66<513 513 513 562 483 513> 619 66<160 160> 665 20G<111 188 188 188 505 562 562 562>
VStem: 111 57<0 383 0 685> 505 57<269 685>
AnchorPoint: "Anchor-11" 337 0 basechar 0
AnchorPoint: "Anchor-10" 0 0 basechar 0
AnchorPoint: "Anchor-9" 345 685 basechar 0
AnchorPoint: "Anchor-8" 0 0 basechar 0
LayerCount: 2
Fore
SplineSet
495 857 m 1x9c
 366 756 l 1
 330 756 l 1
 200 857 l 1
 226 888 l 1
 348 808 l 1
 469 888 l 1
 495 857 l 1x9c
562 0 m 1
 483 0 l 1
 160 619 l 1xac
 163 572 168 506 168 383 c 2
 168 0 l 1
 111 0 l 1
 111 685 l 1
 188 685 l 1
 513 66 l 1x5c
 511 95 505 180 505 269 c 2
 505 685 l 1
 562 685 l 1
 562 0 l 1
EndSplineSet
Substitution2: "'c2sc' Capitals to Small Capitals lookup 23 subtable" ncaron.sc
Substitution2: "'aalt' Access All Alternates lookup 0 subtable" ncaron.sc
Position2: "'cpsp' Capital Spacing lookup 0 subtable" dx=5 dy=0 dh=10 dv=0
EndChar

StartChar: ncaron
Encoding: 328 328 204
Width: 584
GlyphClass: 2
Flags: MW
HStem: 0 21G<106 164 106 106 425 483 425 425> 487 47<299 358> 503 20G<106 156 156 156> 635 52<282 300 300 300 300 318> 667 20G<300 300> 721 20G<152 152 447 447>
VStem: 106 58<0 379 0 523> 425 58<0 366 366 374 0 409>
AnchorPoint: "Anchor-11" 291 0 basechar 0
AnchorPoint: "Anchor-10" 96 523 basechar 0
AnchorPoint: "Anchor-9" 297 523 basechar 0
AnchorPoint: "Anchor-8" 0 0 basechar 0
LayerCount: 2
Fore
SplineSet
282 635 m 1xd7
 152 741 l 1
 178 771 l 1
 300 687 l 1
 421 771 l 1
 447 741 l 1
 318 635 l 1
 282 635 l 1xd7
337 534 m 0
 432 534 483 475 483 374 c 2
 483 0 l 1
 425 0 l 1
 425 366 l 2
 425 452 390 487 326 487 c 0xcf
 255 487 207 443 164 379 c 1
 164 0 l 1
 106 0 l 1
 106 523 l 1
 156 523 l 1xaf
 162 434 l 1
 203 494 261 534 337 534 c 0
EndSplineSet
Substitution2: "'smcp' Lowercase to Small Capitals lookup 24 subtable" ncaron.sc
Substitution2: "'aalt' Access All Alternates lookup 0 subtable" ncaron.sc
EndChar

StartChar: napostrophe
Encoding: 329 329 203
Width: 584
GlyphClass: 2
Flags: MW
HStem: 0 21G<106 164 106 106 425 483 425 425> 487 47<299 358> 503 20G<106 156 156 156> 723 20G<95 121>
VStem: 64 88<693 713 693 713> 106 58<0 379 0 523> 425 58<0 366 366 374 0 409>
AnchorPoint: "Anchor-11" 291 0 basechar 0
AnchorPoint: "Anchor-10" 96 523 basechar 0
AnchorPoint: "Anchor-9" 297 523 basechar 0
AnchorPoint: "Anchor-8" 0 0 basechar 0
LayerCount: 2
Fore
SplineSet
152 701 m 0xda
 152 685 146 673 130 635 c 2
 93 546 l 1
 58 546 l 1
 86 663 l 1
 71 672 64 684 64 701 c 0
 64 725 82 743 108 743 c 0
 134 743 152 725 152 701 c 0xda
337 534 m 0
 432 534 483 475 483 374 c 2
 483 0 l 1
 425 0 l 1
 425 366 l 2
 425 452 390 487 326 487 c 0xd6
 255 487 207 443 164 379 c 1
 164 0 l 1
 106 0 l 1
 106 523 l 1
 156 523 l 1xb6
 162 434 l 1xd6
 203 494 261 534 337 534 c 0
EndSplineSet
Substitution2: "'smcp' Lowercase to Small Capitals lookup 24 subtable" napostrophe.sc
Substitution2: "'aalt' Access All Alternates lookup 0 subtable" napostrophe.sc
EndChar
StartChar: Eng
Encoding: 330 330 169
Width: 673
GlyphClass: 2
Flags: MW
HStem: -205 49<417 453.5 417 473.5> 0 21G<111 168 111 111 483 502 483 483> 619 66<160 160> 665 20G<111 188 188 188 505 562 562 562>
VStem: 111 57<0 383 0 685> 505 57<269 685>
AnchorPoint: "Anchor-14" 0 0 basechar 0
AnchorPoint: "Anchor-13" 0 0 basechar 0
AnchorPoint: "Anchor-12" 345 685 basechar 0
AnchorPoint: "Anchor-11" 0 0 basechar 0
AnchorPoint: "Anchor-10" 337 0 basechar 0
LayerCount: 2
Back
Fore
SplineSet
562 -71 m 2xdc
 562 -161 511 -205 436 -205 c 0
 390 -205 357 -188 335 -171 c 1
 359 -132 l 1
 380 -146 400 -156 434 -156 c 0
 473 -156 502 -133 502 -72 c 2
 502 0 l 1
 483 0 l 1
 160 619 l 1xec
 163 572 168 506 168 383 c 2
 168 0 l 1
 111 0 l 1
 111 685 l 1
 188 685 l 1
 513 66 l 1
 511 95 505 180 505 269 c 2
 505 685 l 1
 562 685 l 1
 562 -71 l 2xdc
EndSplineSet
Substitution2: "'ss01' Style Set 1 lookup 33 subtable" Eng.ss01
Substitution2: "'salt' Stylistic Alternatives lookup 32 subtable" Eng.ss01
Substitution2: "'c2sc' Capitals to Small Capitals lookup 26 subtable" eng.sc
AlternateSubs2: "'aalt' Access All Alternates lookup 1 subtable" eng.sc Eng.ss01
Position2: "'cpsp' Capital Spacing lookup 0 subtable" dx=5 dy=0 dh=10 dv=0
EndChar
StartChar: eng
Encoding: 331 331 547
Width: 584
GlyphClass: 2
Flags: MW
HStem: -205 48<338.5 375.5 338.5 395> 0 21G<106 164 106 106> 487 47<299 358> 503 20G<106 156 156 156>
VStem: 106 58<0 379 0 523> 425 58<-74 -71 -71 366 366 374>
AnchorPoint: "Anchor-14" 0 0 basechar 0
AnchorPoint: "Anchor-13" 0 0 basechar 0
AnchorPoint: "Anchor-12" 297 523 basechar 0
AnchorPoint: "Anchor-11" 0 0 basechar 0
AnchorPoint: "Anchor-10" 288 -197 basechar 0
LayerCount: 2
Back
Fore
SplineSet
483 -71 m 2xec
 483 -161 432 -205 358 -205 c 0
 311 -205 278 -188 256 -171 c 1
 280 -134 l 1
 301 -147 321 -157 356 -157 c 0
 395 -157 425 -136 425 -74 c 2
 425 366 l 2
 425 452 390 487 326 487 c 0xec
 255 487 207 443 164 379 c 1
 164 0 l 1
 106 0 l 1
 106 523 l 1
 156 523 l 1xdc
 161 434 l 1
 203 493 261 534 337 534 c 0
 432 534 483 475 483 374 c 2
 483 -71 l 2xec
EndSplineSet
Substitution2: "'smcp' Lowercase to Small Capitals lookup 27 subtable" eng.sc
Substitution2: "'aalt' Access All Alternates lookup 0 subtable" eng.sc
EndChar

StartChar: Obreve
Encoding: 334 334 73
Width: 691
GlyphClass: 2
Flags: MW
HStem: -11 51<281.5 412 281.5 430> 645 51<280.5 411> 765 47<314.5 361.5 314.5 372.5>
VStem: 66 63<238.5 445 238.5 454> 562 63<239 446>
AnchorPoint: "Anchor-11" 0 0 basechar 0
AnchorPoint: "Anchor-10" 108 685 basechar 0
AnchorPoint: "Anchor-9" 339 685 basechar 0
AnchorPoint: "Anchor-8" 0 0 basechar 0
LayerCount: 2
Fore
SplineSet
338 765 m 0
 269 765 217 808 208 865 c 1
 248 874 l 1
 261 837 291 812 338 812 c 0
 385 812 416 837 429 874 c 1
 469 865 l 1
 460 808 407 765 338 765 c 0
345 696 m 0
 512 696 625 573 625 342 c 0
 625 117 515 -11 345 -11 c 0
 180 -11 66 113 66 341 c 0
 66 567 181 696 345 696 c 0
345 645 m 0
 216 645 129 549 129 341 c 0
 129 136 218 40 345 40 c 0
 479 40 562 136 562 342 c 0
 562 550 477 645 345 645 c 0
EndSplineSet
Substitution2: "'c2sc' Capitals to Small Capitals lookup 23 subtable" obreve.sc
Substitution2: "'aalt' Access All Alternates lookup 0 subtable" obreve.sc
Position2: "'cpsp' Capital Spacing lookup 0 subtable" dx=5 dy=0 dh=10 dv=0
EndChar
StartChar: obreve
Encoding: 335 335 557
Width: 571
GlyphClass: 2
Flags: MW
HStem: -11 49<235 335 235 354> 485 49<236.5 336.5> 653 47<261.5 308.5 261.5 319.5>
VStem: 64 62<187.5 336 187.5 345> 446 61<188 336.5>
AnchorPoint: "Anchor-14" 0 0 basechar 0
AnchorPoint: "Anchor-13" 463 523 basechar 0
AnchorPoint: "Anchor-12" 288 772 basechar 0
AnchorPoint: "Anchor-11" 366 0 basechar 0
AnchorPoint: "Anchor-10" 286 0 basechar 0
LayerCount: 2
Back
Fore
SplineSet
285 653 m 0
 216 653 164 696 155 763 c 1
 195 772 l 1
 208 725 238 700 285 700 c 0
 332 700 363 725 376 772 c 1
 416 763 l 1
 407 696 354 653 285 653 c 0
286 534 m 0
 425 534 507 434 507 263 c 0
 507 94 423 -11 285 -11 c 0
 146 -11 64 93 64 261 c 0
 64 429 149 534 286 534 c 0
286 485 m 0
 187 485 126 411 126 261 c 0
 126 114 185 38 285 38 c 0
 385 38 446 113 446 263 c 0
 446 410 387 485 286 485 c 0
EndSplineSet
Substitution2: "'smcp' Lowercase to Small Capitals lookup 27 subtable" obreve.sc
Substitution2: "'aalt' Access All Alternates lookup 0 subtable" obreve.sc
EndChar

StartChar: ohungarumlaut
Encoding: 337 337 214
Width: 571
GlyphClass: 2
Flags: MW
HStem: -11 49<235 335 235 354> 485 49<236.5 336.5>
VStem: 64 62<187.5 336 187.5 345> 446 61<188 336.5>
AnchorPoint: "Anchor-11" 0 0 basechar 0
AnchorPoint: "Anchor-10" 0 0 basechar 0
AnchorPoint: "Anchor-9" 286 523 basechar 0
AnchorPoint: "Anchor-8" 0 0 basechar 0
LayerCount: 2
Fore
SplineSet
324 783 m 1
 239 647 l 1
 201 664 l 1
 272 811 l 1
 324 783 l 1
453 784 m 1
 360 642 l 1
 322 660 l 1
 401 811 l 1
 453 784 l 1
286 534 m 0
 425 534 507 434 507 263 c 0
 507 94 423 -11 285 -11 c 0
 146 -11 64 93 64 261 c 0
 64 429 149 534 286 534 c 0
286 485 m 0
 187 485 126 411 126 261 c 0
 126 114 185 38 285 38 c 0
 385 38 446 113 446 263 c 0
 446 410 387 485 286 485 c 0
EndSplineSet
Substitution2: "'smcp' Lowercase to Small Capitals lookup 24 subtable" ohungarumlaut.sc
Substitution2: "'aalt' Access All Alternates lookup 0 subtable" ohungarumlaut.sc
EndChar
StartChar: OE
Encoding: 338 338 217
Width: 875
GlyphClass: 2
Flags: MW
HStem: -11 51<276.5 346> 0 40<276.5 824 276.5 403> 0 50<490 824 490 824> 330 50<605 772 605 605> 635 50<493 810 493 493> 645 40<275.5 817> 645 51<275.5 346.5 257.5 396>
VStem: 66 63<238.5 445 238.5 454> 542 62<380 380 380 448.5>
LayerCount: 2
Back
Fore
SplineSet
824 50 m 1x3980
 824 0 l 1
 403 0 l 1x3980
 381 -7 358 -11 334 -11 c 0
 180 -11 66 113 66 341 c 0
 66 567 181 696 334 696 c 0x9380
 359 696 383 692 406 685 c 1
 817 685 l 1
 810 635 l 1
 493 635 l 1
 559 584 598 497 604 380 c 1
 772 380 l 1
 772 330 l 1
 605 330 l 1
 602 200 561 104 490 50 c 1
 824 50 l 1x3980
129 341 m 0x5580
 129 136 218 40 335 40 c 0
 459 40 542 136 542 347 c 0
 542 550 457 645 335 645 c 0
 216 645 129 549 129 341 c 0x5580
EndSplineSet
Substitution2: "'c2sc' Capitals to Small Capitals lookup 26 subtable" oe.sc
Substitution2: "'aalt' Access All Alternates lookup 0 subtable" oe.sc
Position2: "'cpsp' Capital Spacing lookup 0 subtable" dx=5 dy=0 dh=10 dv=0
EndChar
StartChar: racute
Encoding: 341 341 608
Width: 373
GlyphClass: 2
Flags: MW
HStem: 0 21G<106 164 106 106> 479 55<272.5 313> 503 20G<106 156 156 156> 508 20G<361 361>
VStem: 106 58<0 318 0 523>
AnchorPoint: "Anchor-14" 0 0 basechar 0
AnchorPoint: "Anchor-13" 0 0 basechar 0
AnchorPoint: "Anchor-12" 234 782 basechar 0
AnchorPoint: "Anchor-11" 0 0 basechar 0
AnchorPoint: "Anchor-10" 134 0 basechar 0
LayerCount: 2
Back
Fore
SplineSet
334 730 m 1xc8
 139 645 l 1
 120 679 l 1
 308 782 l 1
 334 730 l 1xc8
309 534 m 0
 329 534 347 532 361 528 c 1x98
 350 473 l 1
 335 477 322 479 304 479 c 0xc8
 231 479 191 426 164 318 c 1
 164 0 l 1
 106 0 l 1
 106 523 l 1
 156 523 l 1xa8
 161 406 l 1
 189 492 236 534 309 534 c 0
EndSplineSet
Substitution2: "'smcp' Lowercase to Small Capitals lookup 27 subtable" racute.sc
Substitution2: "'aalt' Access All Alternates lookup 0 subtable" racute.sc
EndChar
StartChar: Rcommaaccent
Encoding: 342 342 228
Width: 590
GlyphClass: 2
Flags: MW
HStem: 0 21G<111 171 111 111 484 556 484 484> 307 49<171 285 285 308 171 285> 636 49<171 275 171 171>
VStem: 111 60<0 307 356 636> 263 88<-135 -115 -135 -115> 457 64<449 544.5>
AnchorPoint: "Anchor-14" 0 0 basechar 0
AnchorPoint: "Anchor-13" 0 0 basechar 0
AnchorPoint: "Anchor-12" 294 685 basechar 0
AnchorPoint: "Anchor-11" 0 0 basechar 0
AnchorPoint: "Anchor-10" 307 0 basechar 0
LayerCount: 2
Back
Fore
SplineSet
368 318 m 1
 556 0 l 1
 484 0 l 1
 308 307 l 1
 171 307 l 1
 171 0 l 1
 111 0 l 1
 111 685 l 1
 277 685 l 2
 442 685 521 620 521 499 c 0
 521 397 465 343 368 318 c 1
171 356 m 1
 285 356 l 2
 394 356 457 399 457 499 c 0
 457 590 406 636 275 636 c 2
 171 636 l 1
 171 356 l 1
307 -85 m 0
 333 -85 351 -103 351 -127 c 0
 351 -143 346 -156 329 -193 c 2
 289 -279 l 1
 253 -279 l 1
 285 -165 l 1
 271 -156 263 -144 263 -127 c 0
 263 -103 282 -85 307 -85 c 0
EndSplineSet
Substitution2: "'c2sc' Capitals to Small Capitals lookup 26 subtable" rcommaaccent.sc
Substitution2: "'aalt' Access All Alternates lookup 0 subtable" rcommaaccent.sc
Position2: "'cpsp' Capital Spacing lookup 0 subtable" dx=5 dy=0 dh=10 dv=0
EndChar
StartChar: rcommaaccent
Encoding: 343 343 611
Width: 373
GlyphClass: 2
Flags: MW
HStem: 0 21G<106 164 106 106> 479 55<272.5 313> 503 20G<106 156 156 156> 508 20G<361 361>
VStem: 91 88<-135 -115 -135 -115> 106 58<0 318 0 523>
AnchorPoint: "Anchor-14" 0 0 basechar 0
AnchorPoint: "Anchor-13" 0 0 basechar 0
AnchorPoint: "Anchor-12" 233 523 basechar 0
AnchorPoint: "Anchor-11" 0 0 basechar 0
AnchorPoint: "Anchor-10" 134 0 basechar 0
LayerCount: 2
Back
Fore
SplineSet
309 534 m 0xc4
 329 534 347 532 361 528 c 1x94
 350 473 l 1
 335 477 322 479 304 479 c 0xc4
 231 479 191 426 164 318 c 1
 164 0 l 1
 106 0 l 1
 106 523 l 1
 156 523 l 1xa4
 161 406 l 1
 189 492 236 534 309 534 c 0xc4
135 -85 m 0xc8
 161 -85 179 -103 179 -127 c 0
 179 -143 174 -156 157 -193 c 2
 117 -279 l 1
 81 -279 l 1
 113 -165 l 1
 99 -156 91 -144 91 -127 c 0
 91 -103 110 -85 135 -85 c 0xc8
EndSplineSet
Substitution2: "'smcp' Lowercase to Small Capitals lookup 27 subtable" rcommaaccent.sc
Substitution2: "'aalt' Access All Alternates lookup 0 subtable" rcommaaccent.sc
EndChar
StartChar: Rcaron
Encoding: 344 344 227
Width: 590
GlyphClass: 2
Flags: MW
HStem: 0 21G<111 171 111 111 484 556 484 484> 307 49<171 285 285 308 171 285> 636 49<171 275 171 171>
VStem: 111 60<0 307 356 636> 457 64<449 544.5>
AnchorPoint: "Anchor-14" 0 0 basechar 0
AnchorPoint: "Anchor-13" 0 0 basechar 0
AnchorPoint: "Anchor-12" 296 888 basechar 0
AnchorPoint: "Anchor-11" 0 0 basechar 0
AnchorPoint: "Anchor-10" 307 0 basechar 0
LayerCount: 2
Back
Fore
SplineSet
312 756 m 1
 276 756 l 1
 146 857 l 1
 172 888 l 1
 294 808 l 1
 415 888 l 1
 441 857 l 1
 312 756 l 1
484 0 m 1
 308 307 l 1
 171 307 l 1
 171 0 l 1
 111 0 l 1
 111 685 l 1
 277 685 l 2
 442 685 521 620 521 499 c 0
 521 397 465 343 368 318 c 1
 556 0 l 1
 484 0 l 1
171 356 m 1
 285 356 l 2
 394 356 457 399 457 499 c 0
 457 590 406 636 275 636 c 2
 171 636 l 1
 171 356 l 1
EndSplineSet
Substitution2: "'c2sc' Capitals to Small Capitals lookup 26 subtable" rcaron.sc
Substitution2: "'aalt' Access All Alternates lookup 0 subtable" rcaron.sc
Position2: "'cpsp' Capital Spacing lookup 0 subtable" dx=5 dy=0 dh=10 dv=0
EndChar
StartChar: rcaron
Encoding: 345 345 610
Width: 373
GlyphClass: 2
Flags: MW
HStem: 0 21G<106 164 106 106> 479 55<272.5 313> 503 20G<106 156 156 156> 508 20G<361 361> 633 52<233 233 233 251 215 233> 665 20G<233 233> 719 20G<85 85 380 380>
VStem: 106 58<0 318 0 523>
AnchorPoint: "Anchor-14" 0 0 basechar 0
AnchorPoint: "Anchor-13" 0 0 basechar 0
AnchorPoint: "Anchor-12" 235 769 basechar 0
AnchorPoint: "Anchor-11" 0 0 basechar 0
AnchorPoint: "Anchor-10" 134 0 basechar 0
LayerCount: 2
Back
Fore
SplineSet
251 633 m 1xcb
 215 633 l 1
 85 739 l 1
 111 769 l 1
 233 685 l 1
 354 769 l 1
 380 739 l 1
 251 633 l 1xcb
161 406 m 1
 189 492 236 534 309 534 c 0xc7
 329 534 347 532 361 528 c 1x97
 350 473 l 1
 335 477 322 479 304 479 c 0xc7
 231 479 191 426 164 318 c 1
 164 0 l 1
 106 0 l 1
 106 523 l 1
 156 523 l 1xa7
 161 406 l 1
EndSplineSet
Substitution2: "'smcp' Lowercase to Small Capitals lookup 27 subtable" rcaron.sc
Substitution2: "'aalt' Access All Alternates lookup 0 subtable" rcaron.sc
EndChar
StartChar: Sacute
Encoding: 346 346 236
Width: 539
GlyphClass: 2
Flags: MW
HStem: -11 51<217 305 217 327> 645 51<227 300.5>
VStem: 66 61<494 565 494 576.5> 424 61<139 226.5>
AnchorPoint: "Anchor-14" 0 0 basechar 0
AnchorPoint: "Anchor-13" 0 0 basechar 0
AnchorPoint: "Anchor-12" 273 888 basechar 0
AnchorPoint: "Anchor-11" 0 0 basechar 0
AnchorPoint: "Anchor-10" 264 0 basechar 0
LayerCount: 2
Back
Fore
SplineSet
351 888 m 1
 378 836 l 1
 180 758 l 1
 164 792 l 1
 351 888 l 1
267 696 m 0
 356 696 410 668 464 620 c 1
 429 582 l 1
 378 626 332 645 269 645 c 0
 185 645 127 601 127 529 c 0
 127 459 164 427 287 390 c 0
 410 352 485 308 485 187 c 0
 485 70 396 -11 258 -11 c 0
 164 -11 95 22 39 75 c 1
 74 113 l 1
 124 69 177 40 257 40 c 0
 353 40 424 93 424 185 c 0
 424 268 383 302 261 340 c 0
 125 382 66 429 66 528 c 0
 66 625 147 696 267 696 c 0
EndSplineSet
Substitution2: "'c2sc' Capitals to Small Capitals lookup 26 subtable" sacute.sc
Substitution2: "'locl' Localized Forms in Latin lookup 7 subtable" Sacute.loclPLK
AlternateSubs2: "'aalt' Access All Alternates lookup 1 subtable" Sacute.loclPLK sacute.sc
Position2: "'cpsp' Capital Spacing lookup 0 subtable" dx=5 dy=0 dh=10 dv=0
EndChar

StartChar: scircumflex
Encoding: 349 349 231
Width: 464
GlyphClass: 2
Flags: MW
HStem: -11 49<193 263 193 278> 486 48<201.5 262.5>
VStem: 60 60<372 425 372 437.5> 354 61<105.5 169>
AnchorPoint: "Anchor-11" 232 0 basechar 0
AnchorPoint: "Anchor-10" 0 0 basechar 0
AnchorPoint: "Anchor-9" 240 523 basechar 0
AnchorPoint: "Anchor-8" 0 0 basechar 0
LayerCount: 2
Fore
SplineSet
94 674 m 1
 223 779 l 1
 259 779 l 1
 389 674 l 1
 363 643 l 1
 241 728 l 1
 120 643 l 1
 94 674 l 1
234 534 m 0
 301 534 352 514 401 476 c 1
 373 437 l 1
 328 470 289 486 236 486 c 0
 167 486 120 452 120 398 c 0
 120 346 153 324 247 299 c 0
 361 269 415 230 415 141 c 0
 415 44 330 -11 226 -11 c 0
 141 -11 84 18 39 56 c 1
 72 94 l 1
 115 58 161 38 225 38 c 0
 301 38 354 74 354 137 c 0
 354 201 325 224 216 254 c 1
 105 283 60 324 60 398 c 0
 60 477 135 534 234 534 c 0
EndSplineSet
Substitution2: "'smcp' Lowercase to Small Capitals lookup 24 subtable" scircumflex.sc
Substitution2: "'aalt' Access All Alternates lookup 0 subtable" scircumflex.sc
EndChar
StartChar: Scedilla
Encoding: 350 350 240
Width: 539
GlyphClass: 2
Flags: MW
HStem: -227 42<253 281 253 295.5> -206 21G -96 32<232 280> -10 50<240 240 280 280> 645 51<227 300.5>
VStem: 66 61<494 565 494 576.5> 236 44 321 51<-156 -125.5> 424 61<139 226.5>
AnchorPoint: "Anchor-14" 0 0 basechar 0
AnchorPoint: "Anchor-13" 0 0 basechar 0
AnchorPoint: "Anchor-12" 272 685 basechar 0
AnchorPoint: "Anchor-11" 0 0 basechar 0
AnchorPoint: "Anchor-10" 282 -227 basechar 0
LayerCount: 2
Back
Fore
SplineSet
485 187 m 0x7f80
 485 76 405 -2 280 -10 c 1
 280 -64 l 1
 345 -69 372 -99 372 -140 c 0
 372 -197 324 -227 267 -227 c 0xbf80
 232 -227 205 -218 187 -206 c 1x7f80
 205 -170 l 1
 221 -179 240 -185 266 -185 c 0xbf80
 296 -185 321 -172 321 -140 c 0
 321 -111 295 -96 232 -96 c 1
 240 -10 l 1
 155 -6 91 26 39 75 c 1
 74 113 l 1
 124 69 177 40 257 40 c 0
 353 40 424 93 424 185 c 0
 424 268 383 302 261 340 c 0
 125 382 66 429 66 528 c 0
 66 625 147 696 267 696 c 0
 356 696 410 668 464 620 c 1
 429 582 l 1
 378 626 332 645 269 645 c 0
 185 645 127 601 127 529 c 0
 127 459 164 427 287 390 c 0
 410 352 485 308 485 187 c 0x7f80
EndSplineSet
Substitution2: "'c2sc' Capitals to Small Capitals lookup 26 subtable" scedilla.sc
Substitution2: "'locl' Localized Forms in Latin lookup 5 subtable" Scommaaccent
Substitution2: "'locl' Localized Forms in Latin lookup 4 subtable" Scommaaccent
AlternateSubs2: "'aalt' Access All Alternates lookup 1 subtable" Scommaaccent scedilla.sc
Position2: "'cpsp' Capital Spacing lookup 0 subtable" dx=5 dy=0 dh=10 dv=0
EndChar
StartChar: scedilla
Encoding: 351 351 628
Width: 464
GlyphClass: 2
Flags: MW
HStem: -227 42<220 248 220 262.5> -206 21G -96 32<199 247> -10 48<207 207 247 247> 486 48<201.5 262.5>
VStem: 60 60<372 425 372 437> 203 44 288 51<-156 -125.5> 354 61<106 169.5>
AnchorPoint: "Anchor-14" 0 0 basechar 0
AnchorPoint: "Anchor-13" 0 0 basechar 0
AnchorPoint: "Anchor-12" 240 523 basechar 0
AnchorPoint: "Anchor-11" 0 0 basechar 0
AnchorPoint: "Anchor-10" 249 -227 basechar 0
LayerCount: 2
Back
Fore
SplineSet
415 141 m 0x7e80
 415 51 341 -3 247 -10 c 1
 247 -64 l 1
 312 -69 339 -99 339 -140 c 0
 339 -197 291 -227 234 -227 c 0xbf80
 199 -227 172 -218 154 -206 c 1x7e80
 172 -170 l 1
 188 -179 207 -185 233 -185 c 0
 263 -185 288 -172 288 -140 c 0xbf80
 288 -111 262 -96 199 -96 c 1
 207 -10 l 1
 132 -6 81 21 39 56 c 1
 71 93 l 1
 115 58 161 38 225 38 c 0
 301 38 354 74 354 138 c 0
 354 201 325 224 216 254 c 0
 105 283 60 324 60 397 c 0
 60 477 135 534 234 534 c 0
 301 534 352 514 401 476 c 1
 374 438 l 1
 328 470 289 486 236 486 c 0
 167 486 120 452 120 398 c 0
 120 346 153 324 247 299 c 0
 361 269 415 230 415 141 c 0x7e80
EndSplineSet
Substitution2: "'smcp' Lowercase to Small Capitals lookup 27 subtable" scedilla.sc
Substitution2: "'locl' Localized Forms in Latin lookup 5 subtable" scommaaccent
Substitution2: "'locl' Localized Forms in Latin lookup 4 subtable" scommaaccent
AlternateSubs2: "'aalt' Access All Alternates lookup 1 subtable" scommaaccent scedilla.sc
EndChar

StartChar: scaron
Encoding: 353 353 229
Width: 464
GlyphClass: 2
Flags: MW
HStem: -11 49<193 263 193 278> 486 48<201.5 262.5> 635 52<242 242 242 260 224 242> 667 20G<242 242> 721 20G<94 94 389 389>
VStem: 60 60<372 425 372 437.5> 354 61<105.5 169>
AnchorPoint: "Anchor-11" 232 0 basechar 0
AnchorPoint: "Anchor-10" 0 0 basechar 0
AnchorPoint: "Anchor-9" 240 523 basechar 0
AnchorPoint: "Anchor-8" 0 0 basechar 0
LayerCount: 2
Fore
SplineSet
389 741 m 1xde
 260 635 l 1
 224 635 l 1xee
 94 741 l 1
 120 771 l 1
 242 687 l 1
 363 771 l 1
 389 741 l 1xde
234 534 m 0
 301 534 352 514 401 476 c 1
 373 437 l 1
 328 470 289 486 236 486 c 0
 167 486 120 452 120 398 c 0
 120 346 153 324 247 299 c 0
 361 269 415 230 415 141 c 0
 415 44 330 -11 226 -11 c 0
 141 -11 84 18 39 56 c 1
 72 94 l 1
 115 58 161 38 225 38 c 0
 301 38 354 74 354 137 c 0
 354 201 325 224 216 254 c 1
 105 283 60 324 60 398 c 0
 60 477 135 534 234 534 c 0
EndSplineSet
Substitution2: "'smcp' Lowercase to Small Capitals lookup 24 subtable" scaron.sc
Substitution2: "'aalt' Access All Alternates lookup 0 subtable" scaron.sc
EndChar

StartChar: Tcedilla
Encoding: 354 354 99
Width: 495
GlyphClass: 2
Flags: MW
HStem: -227 42<249.5 277.5 249.5 292> -206 21G -96 32<230 277> 0 21G<218 239 218 218> 632 53<15 218 15 485 277 277 277 478>
VStem: 218 59<0 632> 319 51<-156 -125.5>
AnchorPoint: "Anchor-11" 248 0 basechar 0
AnchorPoint: "Anchor-10" 0 0 basechar 0
AnchorPoint: "Anchor-9" 243 685 basechar 0
AnchorPoint: "Anchor-8" 0 0 basechar 0
LayerCount: 2
Fore
SplineSet
277 -64 m 1x7e
 342 -69 370 -99 370 -140 c 0
 370 -197 321 -227 263 -227 c 0xbe
 229 -227 203 -218 185 -206 c 1x7e
 203 -170 l 1
 219 -179 237 -185 262 -185 c 0xbe
 293 -185 319 -172 319 -140 c 0
 319 -111 293 -96 230 -96 c 1
 239 0 l 1
 218 0 l 1
 218 632 l 1
 15 632 l 1
 15 685 l 1
 485 685 l 1
 478 632 l 1
 277 632 l 1
 277 -64 l 1x7e
EndSplineSet
Substitution2: "'c2sc' Capitals to Small Capitals lookup 23 subtable" tcedilla.sc
Substitution2: "'locl' Localized Forms in Latin lookup 5 subtable" uni021A
Substitution2: "'locl' Localized Forms in Latin lookup 4 subtable" uni021A
AlternateSubs2: "'aalt' Access All Alternates lookup 1 subtable" uni021A tcedilla.sc
Position2: "'cpsp' Capital Spacing lookup 0 subtable" dx=5 dy=0 dh=10 dv=0
EndChar

StartChar: Tcaron
Encoding: 356 356 98
Width: 495
GlyphClass: 2
Flags: MW
HStem: 0 21G<218 277 218 218> 632 53<15 218 15 485 277 478 277 277>
VStem: 218 59<0 632 0 632>
AnchorPoint: "Anchor-11" 248 0 basechar 0
AnchorPoint: "Anchor-10" 0 0 basechar 0
AnchorPoint: "Anchor-9" 243 685 basechar 0
AnchorPoint: "Anchor-8" 0 0 basechar 0
LayerCount: 2
Fore
SplineSet
392 857 m 1
 263 756 l 1
 227 756 l 1
 97 857 l 1
 123 888 l 1
 245 808 l 1
 366 888 l 1
 392 857 l 1
478 632 m 1
 277 632 l 1
 277 0 l 1
 218 0 l 1
 218 632 l 1
 15 632 l 1
 15 685 l 1
 485 685 l 1
 478 632 l 1
EndSplineSet
Substitution2: "'c2sc' Capitals to Small Capitals lookup 23 subtable" tcaron.sc
Substitution2: "'aalt' Access All Alternates lookup 0 subtable" tcaron.sc
Position2: "'cpsp' Capital Spacing lookup 0 subtable" dx=5 dy=0 dh=10 dv=0
EndChar

StartChar: tcaron
Encoding: 357 357 236
Width: 341
GlyphClass: 2
Flags: MW
HStem: -11 50<214.5 255> 476 47<18 106 18 106 164 292> 719 20G<304 304> 725 20G<248 248>
VStem: 106 58<127 130 130 476 523 648 648 648>
AnchorPoint: "Anchor-11" 227 0 basechar 0
AnchorPoint: "Anchor-10" 0 0 basechar 0
AnchorPoint: "Anchor-9" 0 0 basechar 0
AnchorPoint: "Anchor-8" 0 0 basechar 0
LayerCount: 2
Fore
SplineSet
267 575 m 1xd8
 231 580 l 1
 248 745 l 1xd8
 304 739 l 1xe8
 267 575 l 1xd8
344 22 m 1
 312 1 276 -11 234 -11 c 0
 155 -11 106 36 106 127 c 2
 106 476 l 1
 18 476 l 1
 18 523 l 1
 106 523 l 1
 106 648 l 1
 164 655 l 1
 164 523 l 1
 299 523 l 1
 292 476 l 1
 164 476 l 1
 164 130 l 2
 164 69 188 39 241 39 c 0
 270 39 295 47 321 63 c 1
 344 22 l 1
EndSplineSet
Substitution2: "'smcp' Lowercase to Small Capitals lookup 24 subtable" tcaron.sc
Substitution2: "'aalt' Access All Alternates lookup 0 subtable" tcaron.sc
EndChar

StartChar: Tbar
Encoding: 358 358 97
Width: 500
GlyphClass: 2
Flags: MW
HStem: -1 21G<218 277 218 218> 337 47<95 218 95 218 277 403> 631 53<15 218 15 485 277 478 277 277>
VStem: 218 59<-1 337 -1 337 384 631>
AnchorPoint: "Anchor-11" 248 -1 basechar 0
AnchorPoint: "Anchor-10" 0 0 basechar 0
AnchorPoint: "Anchor-9" 243 684 basechar 0
AnchorPoint: "Anchor-8" 0 0 basechar 0
LayerCount: 2
Fore
SplineSet
277 631 m 1
 277 384 l 1
 403 384 l 1
 403 337 l 1
 277 337 l 1
 277 -1 l 1
 218 -1 l 1
 218 337 l 1
 95 337 l 1
 95 384 l 1
 218 384 l 1
 218 631 l 1
 15 631 l 1
 15 684 l 1
 485 684 l 1
 478 631 l 1
 277 631 l 1
EndSplineSet
Substitution2: "'c2sc' Capitals to Small Capitals lookup 23 subtable" tbar.sc
Substitution2: "'aalt' Access All Alternates lookup 0 subtable" tbar.sc
Position2: "'cpsp' Capital Spacing lookup 0 subtable" dx=5 dy=0 dh=10 dv=0
EndChar
StartChar: tbar
Encoding: 359 359 639
Width: 341
GlyphClass: 2
Flags: MW
HStem: -11 50<214.5 255> 303 47<23 106 23 106 164 288> 476 47<18 106 18 106 164 292>
VStem: 106 58<127 130 130 303 350 476 523 648 648 648>
AnchorPoint: "Anchor-14" 167 262 basechar 0
AnchorPoint: "Anchor-13" 171 741 basechar 0
AnchorPoint: "Anchor-12" 135 648 basechar 0
AnchorPoint: "Anchor-11" 0 0 basechar 0
AnchorPoint: "Anchor-10" 227 0 basechar 0
LayerCount: 2
Back
Fore
SplineSet
321 63 m 1
 344 22 l 1
 312 1 276 -11 234 -11 c 0
 155 -11 106 36 106 127 c 2
 106 303 l 1
 23 303 l 1
 23 350 l 1
 106 350 l 1
 106 476 l 1
 18 476 l 1
 18 523 l 1
 106 523 l 1
 106 648 l 1
 164 655 l 1
 164 523 l 1
 299 523 l 1
 292 476 l 1
 164 476 l 1
 164 350 l 1
 288 350 l 1
 288 303 l 1
 164 303 l 1
 164 130 l 2
 164 69 188 39 241 39 c 0
 270 39 295 47 321 63 c 1
EndSplineSet
Substitution2: "'smcp' Lowercase to Small Capitals lookup 27 subtable" tbar.sc
Substitution2: "'aalt' Access All Alternates lookup 0 subtable" tbar.sc
EndChar
StartChar: Utilde
Encoding: 360 360 289
Width: 652
GlyphClass: 2
Flags: MW
HStem: -11 52<268.5 383.5 268.5 401> 665 20G<101 161 161 161 490 551 551 551> 792 47<365.5 395.5 365.5 403> 838 46<256.5 285>
VStem: 101 60<214 219 219 685> 490 61<219 685>
AnchorPoint: "Anchor-14" 0 0 basechar 0
AnchorPoint: "Anchor-13" 561 685 basechar 0
AnchorPoint: "Anchor-12" 329 884 basechar 0
AnchorPoint: "Anchor-11" 416 0 basechar 0
AnchorPoint: "Anchor-10" 326 0 basechar 0
LayerCount: 2
Back
Fore
SplineSet
385 792 m 0xec
 334 792 302 838 268 838 c 0
 245 838 230 825 212 798 c 1
 176 816 l 1
 198 856 228 884 268 884 c 0xdc
 315 884 346 839 385 839 c 0
 406 839 421 851 441 882 c 1
 477 864 l 1
 453 814 421 792 385 792 c 0xec
551 685 m 1
 551 214 l 2
 551 82 476 -11 326 -11 c 0
 174 -11 101 82 101 214 c 2
 101 685 l 1
 161 685 l 1
 161 219 l 2
 161 108 211 41 326 41 c 0
 441 41 490 109 490 219 c 2
 490 685 l 1
 551 685 l 1
EndSplineSet
Substitution2: "'c2sc' Capitals to Small Capitals lookup 26 subtable" utilde.sc
Substitution2: "'aalt' Access All Alternates lookup 0 subtable" utilde.sc
Position2: "'cpsp' Capital Spacing lookup 0 subtable" dx=5 dy=0 dh=10 dv=0
EndChar

StartChar: utilde
Encoding: 361 361 249
Width: 579
GlyphClass: 2
Flags: MW
HStem: -11 48<228 289.5> 0 21G<423 473 423 423> 503 20G<101 159 159 159 415 473 473 473> 666 47<327 357 327 366> 670 20G<137 137> 712 46<215.5 246.5> 718 20G<438 438>
VStem: 101 58<149 155 155 523> 415 58<144 523>
AnchorPoint: "Anchor-11" 0 0 basechar 0
AnchorPoint: "Anchor-10" 0 0 basechar 0
AnchorPoint: "Anchor-9" 287 523 basechar 0
AnchorPoint: "Anchor-8" 483 0 basechar 0
LayerCount: 2
Fore
SplineSet
350 666 m 0xb180
 292 666 264 712 229 712 c 0xad80
 202 712 191 699 173 672 c 1xab80
 137 690 l 1
 159 730 188 758 229 758 c 0xad80
 275 758 307 713 347 713 c 0
 367 713 382 725 402 756 c 1xb180
 438 738 l 1xab80
 414 688 382 666 350 666 c 0xb180
473 0 m 1x6b80
 423 0 l 1x6b80
 420 93 l 1
 383 31 330 -11 249 -11 c 0
 155 -11 101 46 101 149 c 2
 101 523 l 1
 159 523 l 1
 159 155 l 2
 159 72 194 37 262 37 c 0xab80
 331 37 379 82 415 144 c 1
 415 523 l 1
 473 523 l 1
 473 0 l 1x6b80
EndSplineSet
Substitution2: "'smcp' Lowercase to Small Capitals lookup 24 subtable" utilde.sc
Substitution2: "'aalt' Access All Alternates lookup 0 subtable" utilde.sc
EndChar

StartChar: umacron
Encoding: 363 363 246
Width: 579
GlyphClass: 2
Flags: MW
HStem: -11 48<228 289.5> 0 21G<423 473 423 423> 503 20G<101 159 159 159 415 473 473 473> 676 47<167 408 167 408>
VStem: 101 58<149 155 155 523> 167 241<676 723 676 723> 415 58<144 523>
AnchorPoint: "Anchor-11" 0 0 basechar 0
AnchorPoint: "Anchor-10" 0 0 basechar 0
AnchorPoint: "Anchor-9" 287 523 basechar 0
AnchorPoint: "Anchor-8" 483 0 basechar 0
LayerCount: 2
Fore
SplineSet
167 676 m 1xbc
 167 723 l 1
 408 723 l 1
 408 676 l 1
 167 676 l 1xbc
473 0 m 1x7a
 423 0 l 1x7a
 420 93 l 1
 383 31 330 -11 249 -11 c 0
 155 -11 101 46 101 149 c 2
 101 523 l 1
 159 523 l 1
 159 155 l 2
 159 72 194 37 262 37 c 0xba
 331 37 379 82 415 144 c 1
 415 523 l 1
 473 523 l 1
 473 0 l 1x7a
EndSplineSet
Substitution2: "'smcp' Lowercase to Small Capitals lookup 24 subtable" umacron.sc
Substitution2: "'aalt' Access All Alternates lookup 0 subtable" umacron.sc
EndChar

StartChar: Ubreve
Encoding: 364 364 103
Width: 652
GlyphClass: 2
Flags: MW
HStem: -11 52<268.5 383.5 268.5 401> 665 20G<101 161 161 161 490 551 551 551> 765 47<303.5 350.5 303.5 361.5>
VStem: 101 60<214 219 219 685> 490 61<219 685>
AnchorPoint: "Anchor-11" 0 0 basechar 0
AnchorPoint: "Anchor-10" 0 0 basechar 0
AnchorPoint: "Anchor-9" 328 685 basechar 0
AnchorPoint: "Anchor-8" 416 0 basechar 0
LayerCount: 2
Fore
SplineSet
327 765 m 0
 258 765 206 808 197 865 c 1
 237 874 l 1
 250 837 280 812 327 812 c 0
 374 812 405 837 418 874 c 1
 458 865 l 1
 449 808 396 765 327 765 c 0
551 214 m 2
 551 82 476 -11 326 -11 c 0
 173 -11 101 82 101 214 c 2
 101 685 l 1
 161 685 l 1
 161 219 l 2
 161 108 211 41 326 41 c 0
 441 41 490 109 490 219 c 2
 490 685 l 1
 551 685 l 1
 551 214 l 2
EndSplineSet
Substitution2: "'c2sc' Capitals to Small Capitals lookup 23 subtable" ubreve.sc
Substitution2: "'aalt' Access All Alternates lookup 0 subtable" ubreve.sc
Position2: "'cpsp' Capital Spacing lookup 0 subtable" dx=5 dy=0 dh=10 dv=0
EndChar
StartChar: ubreve
Encoding: 365 365 664
Width: 579
GlyphClass: 2
Flags: MW
HStem: -11 48<228 289.5> 0 21G<423 473 423 423> 503 20G<101 159 159 159 415 473 473 473> 653 47<263.5 310.5 263.5 321.5>
VStem: 101 58<149 155 155 523> 415 58<144 523 0 523>
AnchorPoint: "Anchor-14" 0 0 basechar 0
AnchorPoint: "Anchor-13" 483 523 basechar 0
AnchorPoint: "Anchor-12" 290 772 basechar 0
AnchorPoint: "Anchor-11" 483 0 basechar 0
AnchorPoint: "Anchor-10" 287 0 basechar 0
LayerCount: 2
Back
Fore
SplineSet
287 653 m 0xbc
 218 653 166 696 157 763 c 1
 197 772 l 1
 210 725 240 700 287 700 c 0
 334 700 365 725 378 772 c 1
 418 763 l 1
 409 696 356 653 287 653 c 0xbc
473 523 m 1
 473 0 l 1
 423 0 l 1x7c
 420 93 l 1
 383 31 330 -11 249 -11 c 0
 155 -11 101 46 101 149 c 2
 101 523 l 1
 159 523 l 1
 159 155 l 2
 159 72 194 37 262 37 c 0
 331 37 379 82 415 144 c 1
 415 523 l 1
 473 523 l 1
EndSplineSet
Substitution2: "'smcp' Lowercase to Small Capitals lookup 27 subtable" ubreve.sc
Substitution2: "'aalt' Access All Alternates lookup 0 subtable" ubreve.sc
EndChar

StartChar: Uring
Encoding: 366 366 110
Width: 652
GlyphClass: 2
Flags: MW
HStem: -11 52<268.5 383.5 268.5 401> 665 20G<101 161 161 161 490 551 551 551> 759 36<310 345 310 357> 911 36<310 345.5>
VStem: 101 60<214 219 219 685> 229 43<834.5 871 834.5 880> 383 43<834.5 871> 490 61<219 685>
AnchorPoint: "Anchor-11" 0 0 basechar 0
AnchorPoint: "Anchor-10" 0 0 basechar 0
AnchorPoint: "Anchor-9" 328 685 basechar 0
AnchorPoint: "Anchor-8" 416 0 basechar 0
LayerCount: 2
Fore
SplineSet
328 947 m 0
 386 947 426 907 426 853 c 0
 426 798 386 759 328 759 c 0
 269 759 229 798 229 853 c 0
 229 907 269 947 328 947 c 0
328 911 m 0
 292 911 272 889 272 853 c 0
 272 816 292 795 328 795 c 0
 362 795 383 816 383 853 c 0
 383 889 363 911 328 911 c 0
551 214 m 2
 551 82 476 -11 326 -11 c 0
 173 -11 101 82 101 214 c 2
 101 685 l 1
 161 685 l 1
 161 219 l 2
 161 108 211 41 326 41 c 0
 441 41 490 109 490 219 c 2
 490 685 l 1
 551 685 l 1
 551 214 l 2
EndSplineSet
Substitution2: "'c2sc' Capitals to Small Capitals lookup 23 subtable" uring.sc
Substitution2: "'aalt' Access All Alternates lookup 0 subtable" uring.sc
Position2: "'cpsp' Capital Spacing lookup 0 subtable" dx=5 dy=0 dh=10 dv=0
EndChar
StartChar: uring
Encoding: 367 367 687
Width: 579
GlyphClass: 2
Flags: MW
HStem: -11 48<228 289.5> 0 21G<423 473 423 423> 503 20G<101 159 159 159 415 473 473 473> 633 36<270 305 270 317> 785 36<270 305.5>
VStem: 101 58<149 155 155 523> 189 43<708.5 745 708.5 754> 343 43<708.5 745> 415 58<144 523 0 523>
AnchorPoint: "Anchor-14" 0 0 basechar 0
AnchorPoint: "Anchor-13" 483 523 basechar 0
AnchorPoint: "Anchor-12" 290 821 basechar 0
AnchorPoint: "Anchor-11" 483 0 basechar 0
AnchorPoint: "Anchor-10" 287 0 basechar 0
LayerCount: 2
Back
Fore
SplineSet
288 821 m 0xbf80
 346 821 386 781 386 727 c 0
 386 672 346 633 288 633 c 0
 229 633 189 672 189 727 c 0
 189 781 229 821 288 821 c 0xbf80
288 785 m 0
 252 785 232 763 232 727 c 0
 232 690 252 669 288 669 c 0
 322 669 343 690 343 727 c 0
 343 763 323 785 288 785 c 0
473 523 m 1xbc80
 473 0 l 1
 423 0 l 1x7c80
 420 93 l 1
 383 31 330 -11 249 -11 c 0
 155 -11 101 46 101 149 c 2
 101 523 l 1
 159 523 l 1
 159 155 l 2
 159 72 194 37 262 37 c 0
 331 37 379 82 415 144 c 1
 415 523 l 1
 473 523 l 1xbc80
EndSplineSet
Substitution2: "'smcp' Lowercase to Small Capitals lookup 27 subtable" uring.sc
Substitution2: "'aalt' Access All Alternates lookup 0 subtable" uring.sc
EndChar

StartChar: Uhungarumlaut
Encoding: 368 368 107
Width: 652
GlyphClass: 2
Flags: MW
HStem: -11 52<268.5 383.5 268.5 401> 665 20G<101 161 161 161 490 551 551 551>
VStem: 101 60<214 219 219 685> 490 61<219 685>
AnchorPoint: "Anchor-11" 0 0 basechar 0
AnchorPoint: "Anchor-10" 0 0 basechar 0
AnchorPoint: "Anchor-9" 328 685 basechar 0
AnchorPoint: "Anchor-8" 416 0 basechar 0
LayerCount: 2
Fore
SplineSet
359 909 m 1
 274 773 l 1
 236 790 l 1
 307 937 l 1
 359 909 l 1
488 910 m 1
 395 768 l 1
 357 786 l 1
 436 937 l 1
 488 910 l 1
551 214 m 2
 551 82 476 -11 326 -11 c 0
 173 -11 101 82 101 214 c 2
 101 685 l 1
 161 685 l 1
 161 219 l 2
 161 108 211 41 326 41 c 0
 441 41 490 109 490 219 c 2
 490 685 l 1
 551 685 l 1
 551 214 l 2
EndSplineSet
Substitution2: "'c2sc' Capitals to Small Capitals lookup 23 subtable" uhungarumlaut.sc
Substitution2: "'aalt' Access All Alternates lookup 0 subtable" uhungarumlaut.sc
Position2: "'cpsp' Capital Spacing lookup 0 subtable" dx=5 dy=0 dh=10 dv=0
EndChar

StartChar: uhungarumlaut
Encoding: 369 369 245
Width: 579
GlyphClass: 2
Flags: MW
HStem: -11 48<228 289.5> 0 21G<423 473 423 423> 503 20G<101 159 159 159 415 473 473 473>
VStem: 101 58<149 155 155 523> 415 58<144 523>
AnchorPoint: "Anchor-11" 0 0 basechar 0
AnchorPoint: "Anchor-10" 0 0 basechar 0
AnchorPoint: "Anchor-9" 287 523 basechar 0
AnchorPoint: "Anchor-8" 483 0 basechar 0
LayerCount: 2
Fore
SplineSet
325 783 m 1xb8
 240 647 l 1
 202 664 l 1
 273 811 l 1
 325 783 l 1xb8
454 784 m 1
 361 642 l 1
 323 660 l 1
 402 811 l 1
 454 784 l 1
473 0 m 1x78
 423 0 l 1x78
 420 93 l 1
 383 31 330 -11 249 -11 c 0
 155 -11 101 46 101 149 c 2
 101 523 l 1
 159 523 l 1
 159 155 l 2
 159 72 194 37 262 37 c 0xb8
 331 37 379 82 415 144 c 1
 415 523 l 1
 473 523 l 1
 473 0 l 1x78
EndSplineSet
Substitution2: "'smcp' Lowercase to Small Capitals lookup 24 subtable" uhungarumlaut.sc
Substitution2: "'aalt' Access All Alternates lookup 0 subtable" uhungarumlaut.sc
EndChar

StartChar: Uogonek
Encoding: 370 370 109
Width: 652
GlyphClass: 2
Flags: MW
HStem: -218 48<327 353> -211 21G<400 400> -11 52 665 20G<101 161 161 161 490 551 551 551>
VStem: 101 60<214 219 219 685> 231 54<-133.5 -101.5> 490 61<219 685>
AnchorPoint: "Anchor-11" 0 0 basechar 0
AnchorPoint: "Anchor-10" 0 0 basechar 0
AnchorPoint: "Anchor-9" 328 685 basechar 0
AnchorPoint: "Anchor-8" 416 0 basechar 0
LayerCount: 2
Fore
SplineSet
551 685 m 1x7e
 551 214 l 2
 551 108 502 27 405 -1 c 1
 318 -40 285 -71 285 -118 c 0
 285 -149 305 -170 349 -170 c 0
 368 -170 383 -168 406 -163 c 1xbe
 400 -211 l 1
 380 -215 364 -218 342 -218 c 0
 269 -218 231 -178 231 -126 c 0
 231 -77 263 -39 324 -11 c 1
 172 -10 101 82 101 214 c 2
 101 685 l 1
 161 685 l 1
 161 219 l 2
 161 108 211 41 326 41 c 0
 441 41 490 109 490 219 c 2
 490 685 l 1
 551 685 l 1x7e
EndSplineSet
Substitution2: "'c2sc' Capitals to Small Capitals lookup 23 subtable" uogonek.sc
Substitution2: "'aalt' Access All Alternates lookup 0 subtable" uogonek.sc
Position2: "'cpsp' Capital Spacing lookup 0 subtable" dx=5 dy=0 dh=10 dv=0
EndChar
StartChar: uogonek
Encoding: 371 371 685
Width: 579
GlyphClass: 2
Flags: MW
HStem: -218 48<392 420> -11 21G -11 48<228 289.5> 503 20G<101 159 159 159 415 473 473 473>
VStem: 101 58<149 155 155 523> 298 54<-133.5 -96.5> 415 58<144 523>
AnchorPoint: "Anchor-14" 0 0 basechar 0
AnchorPoint: "Anchor-13" 483 523 basechar 0
AnchorPoint: "Anchor-12" 287 523 basechar 0
AnchorPoint: "Anchor-11" 483 0 basechar 0
AnchorPoint: "Anchor-10" 287 0 basechar 0
LayerCount: 2
Back
Fore
SplineSet
352 -118 m 0xbe
 352 -149 370 -170 414 -170 c 0
 434 -170 450 -168 473 -163 c 1
 467 -211 l 1
 447 -215 431 -218 409 -218 c 0
 336 -218 298 -178 298 -126 c 0
 298 -67 339 -26 423 10 c 1xde
 420 93 l 1
 383 31 330 -11 249 -11 c 0
 155 -11 101 46 101 149 c 2
 101 523 l 1
 159 523 l 1
 159 155 l 2
 159 72 194 37 262 37 c 0
 331 37 379 82 415 144 c 1
 415 523 l 1
 473 523 l 1
 473 1 l 1
 474 0 l 1
 385 -40 352 -71 352 -118 c 0xbe
EndSplineSet
Substitution2: "'smcp' Lowercase to Small Capitals lookup 27 subtable" uogonek.sc
Substitution2: "'aalt' Access All Alternates lookup 0 subtable" uogonek.sc
EndChar
StartChar: Wcircumflex
Encoding: 372 372 296
Width: 810
GlyphClass: 2
Flags: MW
HStem: 0 55<221 221 221 254 181 221> 618 67<404 404> 665 20G<30 91 91 91 371 438 438 438 722 779 779 779>
VStem: 30 749<685 685>
AnchorPoint: "Anchor-14" 0 0 basechar 0
AnchorPoint: "Anchor-13" 501 755 basechar 0
AnchorPoint: "Anchor-12" 404 894 basechar 0
AnchorPoint: "Anchor-11" 0 0 basechar 0
AnchorPoint: "Anchor-10" 0 0 basechar 0
LayerCount: 2
Back
Fore
SplineSet
525 762 m 1xb0
 404 842 l 1
 282 762 l 1
 256 792 l 1
 386 894 l 1
 422 894 l 1
 551 792 l 1
 525 762 l 1xb0
779 685 m 1
 629 0 l 1
 554 0 l 1
 404 618 l 1xd0
 254 0 l 1
 181 0 l 1
 30 685 l 1
 91 685 l 1
 221 55 l 1
 371 685 l 1
 438 685 l 1
 591 55 l 1
 722 685 l 1
 779 685 l 1
EndSplineSet
Substitution2: "'c2sc' Capitals to Small Capitals lookup 26 subtable" wcircumflex.sc
Substitution2: "'aalt' Access All Alternates lookup 0 subtable" wcircumflex.sc
Position2: "'cpsp' Capital Spacing lookup 0 subtable" dx=5 dy=0 dh=10 dv=0
EndChar
StartChar: wcircumflex
Encoding: 373 373 696
Width: 698
GlyphClass: 2
Flags: MW
HStem: 0 44<505 505 505 545 467 505> 469 54<351 351>
VStem: 25 648<523 523>
AnchorPoint: "Anchor-14" 0 0 basechar 0
AnchorPoint: "Anchor-13" 0 0 basechar 0
AnchorPoint: "Anchor-12" 352 779 basechar 0
AnchorPoint: "Anchor-11" 0 0 basechar 0
AnchorPoint: "Anchor-10" 350 0 basechar 0
LayerCount: 2
Back
Fore
SplineSet
228 643 m 1
 202 674 l 1
 331 779 l 1
 367 779 l 1
 497 674 l 1
 471 643 l 1
 349 728 l 1
 228 643 l 1
673 523 m 1
 545 0 l 1
 467 0 l 1
 351 469 l 1
 233 0 l 1
 156 0 l 1
 25 523 l 1
 85 523 l 1
 197 45 l 1
 319 523 l 1
 385 523 l 1
 505 44 l 1
 616 523 l 1
 673 523 l 1
EndSplineSet
Substitution2: "'smcp' Lowercase to Small Capitals lookup 27 subtable" wcircumflex.sc
Substitution2: "'aalt' Access All Alternates lookup 0 subtable" wcircumflex.sc
EndChar

StartChar: Ycircumflex
Encoding: 374 374 121
Width: 523
GlyphClass: 2
Flags: MW
HStem: 0 21G<232 292 232 232> 665 20G<13 80 80 80 445 509 509 509>
VStem: 232 60<0 267 267 267>
AnchorPoint: "Anchor-11" 0 0 basechar 0
AnchorPoint: "Anchor-10" 10 685 basechar 0
AnchorPoint: "Anchor-9" 260 685 basechar 0
AnchorPoint: "Anchor-8" 0 0 basechar 0
LayerCount: 2
Fore
SplineSet
261 842 m 1
 139 762 l 1
 113 792 l 1
 243 894 l 1
 279 894 l 1
 408 792 l 1
 382 762 l 1
 261 842 l 1
292 268 m 1
 292 0 l 1
 232 0 l 1
 232 267 l 1
 13 685 l 1
 80 685 l 1
 264 320 l 1
 445 685 l 1
 509 685 l 1
 292 268 l 1
EndSplineSet
Substitution2: "'c2sc' Capitals to Small Capitals lookup 23 subtable" ycircumflex.sc
Substitution2: "'aalt' Access All Alternates lookup 0 subtable" ycircumflex.sc
Position2: "'cpsp' Capital Spacing lookup 0 subtable" dx=5 dy=0 dh=10 dv=0
EndChar
StartChar: Ydieresis
Encoding: 376 376 305
Width: 523
GlyphClass: 2
Flags: MW
HStem: 0 21G<232 292 232 232> 665 20G<13 80 80 80 445 509 509 509> 789 79<154.5 177.5 343.5 366.5>
VStem: 126 80<817 839> 232 60<0 267 267 267> 315 80<817 839>
AnchorPoint: "Anchor-14" 0 0 basechar 0
AnchorPoint: "Anchor-13" 0 0 basechar 0
AnchorPoint: "Anchor-12" 263 868 basechar 0
AnchorPoint: "Anchor-11" 0 0 basechar 0
AnchorPoint: "Anchor-10" 262 0 basechar 0
LayerCount: 2
Back
Fore
SplineSet
166 868 m 0
 189 868 206 850 206 828 c 0
 206 806 189 789 166 789 c 0
 143 789 126 806 126 828 c 0
 126 850 143 868 166 868 c 0
355 868 m 0
 378 868 395 850 395 828 c 0
 395 806 378 789 355 789 c 0
 332 789 315 806 315 828 c 0
 315 850 332 868 355 868 c 0
509 685 m 1
 292 268 l 1
 292 0 l 1
 232 0 l 1
 232 267 l 1xe8
 13 685 l 1
 80 685 l 1
 264 320 l 1
 445 685 l 1
 509 685 l 1
EndSplineSet
Substitution2: "'c2sc' Capitals to Small Capitals lookup 26 subtable" ydieresis.sc
Substitution2: "'aalt' Access All Alternates lookup 0 subtable" ydieresis.sc
Position2: "'cpsp' Capital Spacing lookup 0 subtable" dx=5 dy=0 dh=10 dv=0
EndChar
StartChar: Zacute
Encoding: 377 377 316
Width: 516
GlyphClass: 2
Flags: MW
HStem: 0 53<104 454> 633 52<73 402 73 468>
VStem: 35 433
AnchorPoint: "Anchor-14" 0 0 basechar 0
AnchorPoint: "Anchor-13" 0 0 basechar 0
AnchorPoint: "Anchor-12" 265 888 basechar 0
AnchorPoint: "Anchor-11" 0 0 basechar 0
AnchorPoint: "Anchor-10" 258 0 basechar 0
LayerCount: 2
Back
Fore
SplineSet
343 888 m 1
 370 836 l 1
 172 758 l 1
 156 792 l 1
 343 888 l 1
468 685 m 1
 468 636 l 1
 104 53 l 1
 462 53 l 1
 454 0 l 1
 35 0 l 1
 35 50 l 1
 402 633 l 1
 73 633 l 1
 73 685 l 1
 468 685 l 1
EndSplineSet
Substitution2: "'c2sc' Capitals to Small Capitals lookup 26 subtable" zacute.sc
Substitution2: "'locl' Localized Forms in Latin lookup 7 subtable" Zacute.loclPLK
AlternateSubs2: "'aalt' Access All Alternates lookup 1 subtable" Zacute.loclPLK zacute.sc
Position2: "'cpsp' Capital Spacing lookup 0 subtable" dx=5 dy=0 dh=10 dv=0
EndChar
StartChar: zacute
Encoding: 378 378 717
Width: 422
GlyphClass: 2
Flags: MW
HStem: 0 50<96 380> 473 50<52 320 52 388>
VStem: 28 360
AnchorPoint: "Anchor-14" 0 0 basechar 0
AnchorPoint: "Anchor-13" 0 0 basechar 0
AnchorPoint: "Anchor-12" 217 782 basechar 0
AnchorPoint: "Anchor-11" 0 0 basechar 0
AnchorPoint: "Anchor-10" 211 0 basechar 0
LayerCount: 2
Back
Fore
SplineSet
291 782 m 1
 317 730 l 1
 122 645 l 1
 103 679 l 1
 291 782 l 1
388 523 m 1
 388 478 l 1
 96 50 l 1
 386 50 l 1
 380 0 l 1
 28 0 l 1
 28 45 l 1
 320 473 l 1
 52 473 l 1
 52 523 l 1
 388 523 l 1
EndSplineSet
Substitution2: "'smcp' Lowercase to Small Capitals lookup 27 subtable" zacute.sc
Substitution2: "'locl' Localized Forms in Latin lookup 7 subtable" zacute.loclPLK
AlternateSubs2: "'aalt' Access All Alternates lookup 1 subtable" zacute.loclPLK zacute.sc
EndChar
StartChar: Zdotaccent
Encoding: 379 379 319
Width: 516
GlyphClass: 2
Flags: MW
HStem: 0 53<104 454> 633 52<73 402 73 468> 795 84<250 276.5>
VStem: 220 87<825.5 848.5>
AnchorPoint: "Anchor-14" 0 0 basechar 0
AnchorPoint: "Anchor-13" 0 0 basechar 0
AnchorPoint: "Anchor-12" 266 879 basechar 0
AnchorPoint: "Anchor-11" 0 0 basechar 0
AnchorPoint: "Anchor-10" 258 0 basechar 0
LayerCount: 2
Back
Fore
SplineSet
263 879 m 0
 290 879 307 860 307 837 c 0
 307 814 290 795 263 795 c 0
 237 795 220 814 220 837 c 0
 220 860 237 879 263 879 c 0
468 685 m 1
 468 636 l 1
 104 53 l 1
 462 53 l 1
 454 0 l 1
 35 0 l 1
 35 50 l 1
 402 633 l 1
 73 633 l 1
 73 685 l 1
 468 685 l 1
EndSplineSet
Substitution2: "'c2sc' Capitals to Small Capitals lookup 26 subtable" zdotaccent.sc
Substitution2: "'aalt' Access All Alternates lookup 0 subtable" zdotaccent.sc
Position2: "'cpsp' Capital Spacing lookup 0 subtable" dx=5 dy=0 dh=10 dv=0
EndChar

StartChar: zdotaccent
Encoding: 380 380 265
Width: 422
GlyphClass: 2
Flags: MW
HStem: 0 50<96 380> 473 50<52 320 52 388> 669 84<203 229.5>
VStem: 173 87<699.5 722.5>
AnchorPoint: "Anchor-11" 0 0 basechar 0
AnchorPoint: "Anchor-10" 0 0 basechar 0
AnchorPoint: "Anchor-9" 216 523 basechar 0
AnchorPoint: "Anchor-8" 0 0 basechar 0
LayerCount: 2
Fore
SplineSet
216 753 m 0
 243 753 260 734 260 711 c 0
 260 688 243 669 216 669 c 0
 190 669 173 688 173 711 c 0
 173 734 190 753 216 753 c 0
388 478 m 1
 96 50 l 1
 386 50 l 1
 380 0 l 1
 28 0 l 1
 28 45 l 1
 320 473 l 1
 52 473 l 1
 52 523 l 1
 388 523 l 1
 388 478 l 1
EndSplineSet
Substitution2: "'smcp' Lowercase to Small Capitals lookup 24 subtable" zdotaccent.sc
Substitution2: "'aalt' Access All Alternates lookup 0 subtable" zdotaccent.sc
EndChar
StartChar: Zcaron
Encoding: 381 381 318
Width: 516
GlyphClass: 2
Flags: MW
HStem: 0 53<104 454> 633 52<73 402 73 468>
VStem: 35 433
AnchorPoint: "Anchor-14" 0 0 basechar 0
AnchorPoint: "Anchor-13" 0 0 basechar 0
AnchorPoint: "Anchor-12" 265 888 basechar 0
AnchorPoint: "Anchor-11" 0 0 basechar 0
AnchorPoint: "Anchor-10" 258 0 basechar 0
LayerCount: 2
Back
Fore
SplineSet
384 888 m 1
 410 857 l 1
 281 756 l 1
 245 756 l 1
 115 857 l 1
 141 888 l 1
 263 808 l 1
 384 888 l 1
468 685 m 1
 468 636 l 1
 104 53 l 1
 462 53 l 1
 454 0 l 1
 35 0 l 1
 35 50 l 1
 402 633 l 1
 73 633 l 1
 73 685 l 1
 468 685 l 1
EndSplineSet
Substitution2: "'c2sc' Capitals to Small Capitals lookup 26 subtable" zcaron.sc
Substitution2: "'aalt' Access All Alternates lookup 0 subtable" zcaron.sc
Position2: "'cpsp' Capital Spacing lookup 0 subtable" dx=5 dy=0 dh=10 dv=0
EndChar
